<?xml version="1.0" encoding="UTF-8" standalone="no"?>
<svg viewBox="0 0 305 51" version="1.1" xmlns="http://www.w3.org/2000/svg" xmlns:xlink="http://www.w3.org/1999/xlink" xmlns:sketch="http://www.bohemiancoding.com/sketch/ns">
    <g stroke="none" stroke-width="1" fill="none" fill-rule="evenodd">
        <g id="C1_logo">
            <path d="M30.945,36.734 L2.83,36.734 C1.807,36.734 0.978,37.563 0.978,38.586 L0.978,48.519 C0.978,49.541 1.807,50.371 2.83,50.371 L30.945,50.371 C31.967,50.371 32.796,49.541 32.796,48.519 L32.796,38.586 C32.796,37.563 31.967,36.734 30.945,36.734" id="Fill-1" fill="#1CA070"  ></path>
            <path d="M30.945,18.552 L21.012,18.552 C19.989,18.552 19.16,19.381 19.16,20.404 L19.16,30.337 C19.16,31.36 19.989,32.189 21.012,32.189 L30.945,32.189 C31.967,32.189 32.796,31.36 32.796,30.337 L32.796,20.404 C32.796,19.381 31.967,18.552 30.945,18.552" id="Fill-2" fill="#1CA070"  ></path>
            <path d="M26.399,0.371 L2.83,0.371 C1.807,0.371 0.978,1.2 0.978,2.222 L0.978,30.337 C0.978,31.36 1.807,32.189 2.83,32.189 L12.763,32.189 C13.785,32.189 14.615,31.36 14.615,30.337 L14.615,14.007 L26.399,14.007 C27.422,14.007 28.251,13.178 28.251,12.155 L28.251,2.222 C28.251,1.2 27.422,0.371 26.399,0.371" id="Fill-3" fill="#1CA070"  ></path>
            <path d="M49.126,0.371 L34.648,0.371 C33.625,0.371 32.796,1.2 32.796,2.222 L32.796,12.155 C32.796,13.178 33.625,14.007 34.648,14.007 L37.342,14.007 L37.342,48.519 C37.342,49.541 38.171,50.371 39.194,50.371 L49.126,50.371 C50.149,50.371 50.978,49.541 50.978,48.519 L50.978,2.222 C50.978,1.2 50.149,0.371 49.126,0.371" id="Fill-4" fill="#1CA070"  ></path>
            <path d="M89.793,33.55 C89.396,34.146 88.916,34.71 88.352,35.241 C87.789,35.773 87.137,36.24 86.398,36.644 C85.656,37.048 84.84,37.367 83.945,37.604 C83.051,37.839 82.072,37.957 81.013,37.957 C79.245,37.957 77.61,37.646 76.108,37.028 C74.606,36.41 73.314,35.554 72.231,34.461 C71.149,33.367 70.304,32.069 69.697,30.567 C69.089,29.065 68.785,27.419 68.785,25.63 C68.785,23.841 69.094,22.195 69.713,20.692 C70.332,19.19 71.188,17.893 72.281,16.799 C73.375,15.706 74.667,14.85 76.158,14.231 C77.649,13.613 79.268,13.303 81.013,13.303 C81.874,13.303 82.719,13.394 83.547,13.572 C84.376,13.752 85.154,14.005 85.884,14.33 C86.613,14.655 87.275,15.047 87.871,15.502 C88.469,15.958 88.965,16.474 89.363,17.048 L87.375,18.506 C87.131,18.13 86.806,17.755 86.398,17.379 C85.988,17.004 85.508,16.672 84.955,16.385 C84.403,16.098 83.801,15.866 83.15,15.69 C82.498,15.513 81.797,15.424 81.046,15.424 C79.522,15.424 78.157,15.699 76.953,16.25 C75.749,16.801 74.728,17.544 73.889,18.479 C73.049,19.415 72.408,20.499 71.967,21.732 C71.524,22.966 71.304,24.265 71.304,25.63 C71.304,26.995 71.529,28.294 71.982,29.527 C72.436,30.761 73.082,31.845 73.922,32.78 C74.761,33.717 75.782,34.46 76.986,35.01 C78.19,35.56 79.543,35.836 81.046,35.836 C82.393,35.836 83.674,35.56 84.89,35.008 C86.104,34.455 87.121,33.571 87.937,32.356 L89.793,33.55" id="Fill-5" fill="#231F1F"  ></path>
            <path d="M116.832,25.53 C116.832,27.386 116.512,29.082 115.871,30.617 C115.23,32.152 114.342,33.467 113.204,34.56 C112.066,35.653 110.713,36.499 109.145,37.095 C107.576,37.691 105.875,37.989 104.042,37.989 C102.208,37.989 100.513,37.691 98.955,37.095 C97.399,36.499 96.051,35.653 94.913,34.56 C93.775,33.467 92.886,32.152 92.246,30.617 C91.605,29.082 91.285,27.386 91.285,25.53 C91.285,23.653 91.605,21.957 92.246,20.444 C92.886,18.932 93.775,17.644 94.913,16.584 C96.051,15.523 97.399,14.706 98.955,14.132 C100.513,13.558 102.208,13.27 104.042,13.27 C105.875,13.27 107.576,13.558 109.145,14.132 C110.713,14.706 112.066,15.523 113.204,16.584 C114.342,17.644 115.23,18.932 115.871,20.444 C116.512,21.957 116.832,23.653 116.832,25.53 L116.832,25.53 Z M110.769,25.53 C110.769,24.515 110.604,23.565 110.272,22.681 C109.939,21.798 109.481,21.04 108.896,20.411 C108.311,19.781 107.604,19.284 106.775,18.92 C105.947,18.556 105.036,18.373 104.042,18.373 C103.048,18.373 102.142,18.556 101.324,18.92 C100.508,19.284 99.801,19.781 99.204,20.411 C98.607,21.04 98.149,21.798 97.828,22.681 C97.508,23.565 97.348,24.515 97.348,25.53 C97.348,26.591 97.514,27.568 97.846,28.463 C98.177,29.357 98.635,30.126 99.221,30.766 C99.806,31.407 100.508,31.909 101.324,32.273 C102.142,32.639 103.048,32.82 104.042,32.82 C105.036,32.82 105.941,32.639 106.76,32.273 C107.576,31.909 108.283,31.407 108.88,30.766 C109.477,30.126 109.939,29.357 110.272,28.463 C110.604,27.568 110.769,26.591 110.769,25.53 L110.769,25.53 Z" id="Fill-6" fill="#231F1F"  ></path>
            <path d="M141.022,37.36 L141.154,20.759 L141.055,20.759 L134.958,37.36 L130.982,37.36 L125.051,20.759 L124.951,20.759 L125.084,37.36 L119.748,37.36 L119.748,13.899 L127.811,13.899 L133.152,28.943 L133.285,28.943 L138.395,13.899 L146.589,13.899 L146.589,37.36 L141.022,37.36" id="Fill-7" fill="#231F1F"  ></path>
            <path d="M168.358,21.123 C168.358,22.493 168.105,23.647 167.597,24.586 C167.088,25.525 166.404,26.281 165.542,26.856 C164.681,27.431 163.687,27.85 162.56,28.115 C161.434,28.38 160.262,28.513 159.047,28.513 L156.231,28.513 L156.231,37.36 L150.564,37.36 L150.564,13.899 L159.18,13.899 C160.461,13.899 161.659,14.027 162.775,14.28 C163.891,14.535 164.863,14.943 165.691,15.507 C166.52,16.07 167.171,16.81 167.647,17.727 C168.121,18.644 168.358,19.776 168.358,21.123 L168.358,21.123 Z M162.692,21.156 C162.692,20.604 162.582,20.151 162.361,19.798 C162.14,19.444 161.842,19.168 161.467,18.97 C161.09,18.771 160.666,18.638 160.191,18.572 C159.715,18.506 159.225,18.473 158.716,18.473 L156.231,18.473 L156.231,24.006 L158.617,24.006 C159.146,24.006 159.654,23.962 160.141,23.874 C160.627,23.785 161.063,23.631 161.449,23.41 C161.836,23.19 162.14,22.897 162.361,22.531 C162.582,22.167 162.692,21.709 162.692,21.156 L162.692,21.156 Z" id="Fill-8" fill="#231F1F"  ></path>
            <path d="M195.398,25.53 C195.398,27.386 195.078,29.082 194.437,30.617 C193.796,32.152 192.907,33.467 191.77,34.56 C190.631,35.653 189.279,36.499 187.711,37.095 C186.142,37.691 184.441,37.989 182.607,37.989 C180.773,37.989 179.078,37.691 177.521,37.095 C175.963,36.499 174.615,35.653 173.479,34.56 C172.34,33.467 171.451,32.152 170.811,30.617 C170.17,29.082 169.85,27.386 169.85,25.53 C169.85,23.653 170.17,21.957 170.811,20.444 C171.451,18.932 172.34,17.644 173.479,16.584 C174.615,15.523 175.963,14.706 177.521,14.132 C179.078,13.558 180.773,13.27 182.607,13.27 C184.441,13.27 186.142,13.558 187.711,14.132 C189.279,14.706 190.631,15.523 191.77,16.584 C192.907,17.644 193.796,18.932 194.437,20.444 C195.078,21.957 195.398,23.653 195.398,25.53 L195.398,25.53 Z M189.334,25.53 C189.334,24.515 189.168,23.565 188.837,22.681 C188.506,21.798 188.047,21.04 187.462,20.411 C186.876,19.781 186.17,19.284 185.341,18.92 C184.513,18.556 183.602,18.373 182.607,18.373 C181.613,18.373 180.707,18.556 179.891,18.92 C179.072,19.284 178.365,19.781 177.77,20.411 C177.173,21.04 176.715,21.798 176.395,22.681 C176.074,23.565 175.914,24.515 175.914,25.53 C175.914,26.591 176.08,27.568 176.41,28.463 C176.742,29.357 177.2,30.126 177.786,30.766 C178.371,31.407 179.072,31.909 179.891,32.273 C180.707,32.639 181.613,32.82 182.607,32.82 C183.602,32.82 184.507,32.639 185.324,32.273 C186.142,31.909 186.849,31.407 187.445,30.766 C188.041,30.126 188.506,29.357 188.837,28.463 C189.168,27.568 189.334,26.591 189.334,25.53 L189.334,25.53 Z" id="Fill-9" fill="#231F1F"  ></path>
            <path d="M210.707,19.997 C210.221,19.379 209.586,18.887 208.802,18.523 C208.018,18.157 207.261,17.976 206.531,17.976 C206.156,17.976 205.775,18.009 205.389,18.075 C205.002,18.141 204.654,18.269 204.345,18.456 C204.035,18.644 203.775,18.887 203.566,19.185 C203.355,19.483 203.252,19.864 203.252,20.328 C203.252,20.726 203.334,21.057 203.5,21.322 C203.666,21.587 203.908,21.819 204.229,22.018 C204.549,22.217 204.93,22.399 205.372,22.565 C205.813,22.731 206.311,22.901 206.863,23.078 C207.658,23.344 208.486,23.637 209.348,23.956 C210.21,24.277 210.994,24.702 211.701,25.232 C212.408,25.763 212.993,26.42 213.457,27.204 C213.921,27.988 214.153,28.966 214.153,30.137 C214.153,31.484 213.904,32.649 213.408,33.632 C212.91,34.615 212.242,35.428 211.402,36.067 C210.562,36.709 209.602,37.184 208.52,37.492 C207.438,37.802 206.322,37.957 205.174,37.957 C203.494,37.957 201.871,37.663 200.303,37.078 C198.733,36.493 197.43,35.659 196.393,34.577 L200.104,30.799 C200.678,31.507 201.434,32.097 202.373,32.572 C203.313,33.047 204.245,33.284 205.174,33.284 C205.593,33.284 206.002,33.24 206.399,33.151 C206.797,33.063 207.145,32.92 207.443,32.721 C207.741,32.523 207.979,32.257 208.155,31.926 C208.332,31.595 208.42,31.196 208.42,30.732 C208.42,30.291 208.31,29.916 208.09,29.606 C207.868,29.297 207.553,29.016 207.145,28.762 C206.736,28.508 206.229,28.275 205.621,28.065 C205.013,27.856 204.322,27.63 203.549,27.386 C202.799,27.144 202.063,26.856 201.346,26.524 C200.628,26.193 199.987,25.769 199.424,25.249 C198.861,24.731 198.408,24.101 198.066,23.36 C197.723,22.62 197.552,21.72 197.552,20.659 C197.552,19.356 197.816,18.24 198.348,17.313 C198.877,16.385 199.573,15.623 200.435,15.026 C201.297,14.43 202.268,13.994 203.351,13.718 C204.433,13.441 205.526,13.303 206.631,13.303 C207.957,13.303 209.31,13.547 210.69,14.032 C212.07,14.519 213.28,15.236 214.318,16.187 L210.707,19.997" id="Fill-10" fill="#231F1F"  ></path>
            <path d="M217.068,13.899 L222.767,13.899 L222.767,37.36 L217.068,37.36 L217.068,13.899 Z" id="Fill-11" fill="#231F1F"  ></path>
            <path d="M236.817,18.737 L236.817,37.36 L231.151,37.36 L231.151,18.737 L224.523,18.737 L224.523,13.899 L243.445,13.899 L243.445,18.737 L236.817,18.737" id="Fill-12" fill="#231F1F"  ></path>
            <path d="M245.201,37.36 L245.201,13.899 L260.974,13.899 L260.974,18.671 L250.668,18.671 L250.668,23.111 L260.41,23.111 L260.41,27.651 L250.668,27.651 L250.668,32.523 L261.57,32.523 L261.57,37.36 L245.201,37.36" id="Fill-13" fill="#231F1F"  ></path>
            <path d="M292.318,33.285 C291.92,33.882 291.439,34.445 290.876,34.977 C290.312,35.509 289.66,35.977 288.921,36.38 C288.181,36.784 287.363,37.103 286.469,37.34 C285.574,37.575 284.596,37.693 283.535,37.693 C281.768,37.693 280.133,37.384 278.631,36.765 C277.129,36.146 275.836,35.29 274.754,34.196 C273.671,33.104 272.826,31.806 272.219,30.303 C271.61,28.801 271.307,27.154 271.307,25.365 C271.307,23.575 271.616,21.93 272.234,20.427 C272.854,18.925 273.709,17.627 274.803,16.533 C275.897,15.44 277.189,14.584 278.681,13.965 C280.172,13.347 281.79,13.037 283.535,13.037 C284.397,13.037 285.242,13.127 286.07,13.306 C286.899,13.485 287.678,13.738 288.407,14.063 C289.137,14.39 289.799,14.78 290.396,15.236 C290.992,15.692 291.489,16.207 291.887,16.781 L289.898,18.24 C289.655,17.864 289.33,17.489 288.921,17.113 C288.512,16.737 288.031,16.406 287.479,16.119 C286.927,15.832 286.324,15.6 285.674,15.423 C285.021,15.246 284.32,15.158 283.568,15.158 C282.045,15.158 280.68,15.434 279.477,15.983 C278.271,16.534 277.25,17.277 276.41,18.213 C275.57,19.149 274.93,20.233 274.488,21.468 C274.047,22.701 273.826,24 273.826,25.365 C273.826,26.731 274.052,28.029 274.505,29.263 C274.957,30.496 275.604,31.581 276.443,32.517 C277.283,33.452 278.305,34.195 279.51,34.746 C280.713,35.297 282.066,35.572 283.568,35.572 C284.916,35.572 286.197,35.296 287.413,34.743 C288.628,34.191 289.645,33.308 290.462,32.093 L292.318,33.285" id="Fill-14" fill="#000000"  ></path>
            <path d="M304.348,37.097 L301.961,37.097 L301.961,16.583 L297.719,20.195 L296.261,18.538 L302.227,13.634 L304.348,13.634 L304.348,37.097" id="Fill-15" fill="#000000"  ></path>
        </g>
    </g>
</svg>