<?xml version="1.0" encoding="UTF-8" standalone="no"?>
<svg width="121px" height="13px" viewBox="0 0 466 50" version="1.1" xmlns="http://www.w3.org/2000/svg" xmlns:xlink="http://www.w3.org/1999/xlink" xmlns:sketch="http://www.bohemiancoding.com/sketch/ns">
  <!-- Generator: Sketch 3.3.3 (12072) - http://www.bohemiancoding.com/sketch -->
  <title>C1_logos_white-green</title>
  <desc>Created with Sketch.</desc>
  <defs></defs>
  <g id="Page-1" stroke="none" stroke-width="1" fill="none" fill-rule="evenodd" sketch:type="MSPage">
    <g id="Marketing_campaign-Copy-2" sketch:type="MSArtboardGroup" transform="translate(-429.000000, -384.000000)">
      <g id="C1_logos_white-green" sketch:type="MSLayerGroup" transform="translate(429.000000, 384.000000)">
        <path d="M41.657,41.177 C40.873,42.355 39.923,43.471 38.806,44.522 C37.694,45.573 36.404,46.498 34.941,47.297 C33.475,48.095 31.86,48.727 30.091,49.194 C28.322,49.66 26.387,49.893 24.291,49.893 C20.796,49.893 17.562,49.279 14.592,48.057 C11.619,46.834 9.064,45.14 6.924,42.979 C4.782,40.815 3.112,38.249 1.912,35.278 C0.709,32.308 0.108,29.051 0.108,25.513 C0.108,21.974 0.718,18.72 1.943,15.747 C3.167,12.777 4.859,10.21 7.022,8.047 C9.186,5.886 11.741,4.192 14.69,2.969 C17.639,1.747 20.84,1.132 24.291,1.132 C25.995,1.132 27.666,1.312 29.303,1.665 C30.943,2.021 32.482,2.521 33.925,3.164 C35.368,3.807 36.678,4.582 37.856,5.482 C39.038,6.384 40.019,7.404 40.807,8.539 L36.875,11.423 C36.392,10.679 35.749,9.938 34.941,9.194 C34.132,8.453 33.182,7.796 32.088,7.228 C30.997,6.66 29.806,6.202 28.519,5.853 C27.229,5.503 25.842,5.327 24.357,5.327 C21.342,5.327 18.644,5.872 16.262,6.961 C13.881,8.051 11.86,9.521 10.201,11.371 C8.541,13.221 7.274,15.365 6.4,17.804 C5.526,20.244 5.089,22.813 5.089,25.513 C5.089,28.213 5.535,30.782 6.431,33.221 C7.327,35.661 8.606,37.804 10.267,39.655 C11.926,41.507 13.946,42.977 16.328,44.064 C18.71,45.153 21.384,45.698 24.357,45.698 C27.021,45.698 29.554,45.152 31.959,44.06 C34.36,42.967 36.372,41.219 37.987,38.817 L41.657,41.177" id="Fill-1" fill="#FFFFFF" sketch:type="MSShapeGroup"></path>
        <path d="M95.134,25.316 C95.134,28.985 94.5,32.34 93.234,35.377 C91.967,38.413 90.209,41.013 87.959,43.176 C85.709,45.337 83.032,47.01 79.93,48.188 C76.828,49.368 73.463,49.957 69.839,49.957 C66.211,49.957 62.858,49.368 59.777,48.188 C56.699,47.01 54.033,45.337 51.783,43.176 C49.533,41.013 47.774,38.413 46.508,35.377 C45.24,32.34 44.608,28.985 44.608,25.316 C44.608,21.604 45.24,18.249 46.508,15.257 C47.774,12.265 49.533,9.719 51.783,7.622 C54.033,5.524 56.699,3.908 59.777,2.772 C62.858,1.636 66.211,1.069 69.839,1.069 C73.463,1.069 76.828,1.636 79.93,2.772 C83.032,3.908 85.709,5.524 87.959,7.622 C90.209,9.719 91.967,12.265 93.234,15.257 C94.5,18.249 95.134,21.604 95.134,25.316 L95.134,25.316 Z M83.142,25.316 C83.142,23.307 82.815,21.428 82.159,19.68 C81.503,17.934 80.596,16.435 79.44,15.191 C78.28,13.946 76.883,12.962 75.244,12.242 C73.606,11.521 71.804,11.16 69.839,11.16 C67.872,11.16 66.08,11.521 64.463,12.242 C62.849,12.962 61.45,13.946 60.27,15.191 C59.09,16.435 58.182,17.934 57.548,19.68 C56.915,21.428 56.598,23.307 56.598,25.316 C56.598,27.413 56.927,29.347 57.584,31.116 C58.238,32.885 59.144,34.405 60.303,35.67 C61.46,36.939 62.849,37.932 64.463,38.652 C66.08,39.375 67.872,39.734 69.839,39.734 C71.804,39.734 73.595,39.375 75.213,38.652 C76.828,37.932 78.227,36.939 79.407,35.67 C80.587,34.405 81.503,32.885 82.159,31.116 C82.815,29.347 83.142,27.413 83.142,25.316 L83.142,25.316 Z" id="Fill-2" fill="#FFFFFF" sketch:type="MSShapeGroup"></path>
        <path d="M142.976,48.713 L143.238,15.879 L143.041,15.879 L130.983,48.713 L123.12,48.713 L111.389,15.879 L111.192,15.879 L111.455,48.713 L100.901,48.713 L100.901,2.312 L116.847,2.312 L127.412,32.066 L127.675,32.066 L137.78,2.312 L153.987,2.312 L153.987,48.713 L142.976,48.713" id="Fill-3" fill="#FFFFFF" sketch:type="MSShapeGroup"></path>
        <path d="M197.042,16.599 C197.042,19.309 196.54,21.592 195.536,23.448 C194.529,25.306 193.178,26.801 191.472,27.937 C189.769,29.074 187.802,29.903 185.574,30.428 C183.347,30.952 181.029,31.214 178.626,31.214 L173.056,31.214 L173.056,48.713 L161.85,48.713 L161.85,2.312 L178.889,2.312 C181.423,2.312 183.793,2.565 186,3.066 C188.206,3.57 190.13,4.377 191.768,5.492 C193.405,6.606 194.694,8.07 195.634,9.882 C196.573,11.695 197.042,13.936 197.042,16.599 L197.042,16.599 Z M185.836,16.665 C185.836,15.574 185.618,14.678 185.182,13.978 C184.743,13.279 184.154,12.732 183.412,12.34 C182.667,11.946 181.829,11.684 180.888,11.554 C179.948,11.423 178.978,11.357 177.971,11.357 L173.056,11.357 L173.056,22.301 L177.776,22.301 C178.823,22.301 179.828,22.214 180.789,22.04 C181.751,21.864 182.613,21.559 183.377,21.123 C184.142,20.686 184.743,20.107 185.182,19.384 C185.618,18.664 185.836,17.758 185.836,16.665 L185.836,16.665 Z" id="Fill-4" fill="#FFFFFF" sketch:type="MSShapeGroup"></path>
        <path d="M250.522,25.316 C250.522,28.985 249.888,32.34 248.621,35.377 C247.353,38.413 245.595,41.013 243.345,43.176 C241.092,45.337 238.419,47.01 235.318,48.188 C232.214,49.368 228.851,49.957 225.224,49.957 C221.597,49.957 218.244,49.368 215.165,48.188 C212.083,47.01 209.417,45.337 207.169,43.176 C204.917,41.013 203.159,38.413 201.892,35.377 C200.625,32.34 199.992,28.985 199.992,25.316 C199.992,21.604 200.625,18.249 201.892,15.257 C203.159,12.265 204.917,9.719 207.169,7.622 C209.417,5.524 212.083,3.908 215.165,2.772 C218.244,1.636 221.597,1.069 225.224,1.069 C228.851,1.069 232.214,1.636 235.318,2.772 C238.419,3.908 241.092,5.524 243.345,7.622 C245.595,9.719 247.353,12.265 248.621,15.257 C249.888,18.249 250.522,21.604 250.522,25.316 L250.522,25.316 Z M238.528,25.316 C238.528,23.307 238.199,21.428 237.545,19.68 C236.89,17.934 235.982,16.435 234.825,15.191 C233.666,13.946 232.269,12.962 230.63,12.242 C228.992,11.521 227.19,11.16 225.224,11.16 C223.258,11.16 221.466,11.521 219.851,12.242 C218.232,12.962 216.833,13.946 215.655,15.191 C214.476,16.435 213.57,17.934 212.936,19.68 C212.303,21.428 211.986,23.307 211.986,25.316 C211.986,27.413 212.314,29.347 212.967,31.116 C213.623,32.885 214.53,34.405 215.689,35.67 C216.845,36.939 218.232,37.932 219.851,38.652 C221.466,39.375 223.258,39.734 225.224,39.734 C227.19,39.734 228.981,39.375 230.597,38.652 C232.214,37.932 233.612,36.939 234.792,35.67 C235.97,34.405 236.89,32.885 237.545,31.116 C238.199,29.347 238.528,27.413 238.528,25.316 L238.528,25.316 Z" id="Fill-5" fill="#FFFFFF" sketch:type="MSShapeGroup"></path>
        <path d="M280.799,14.372 C279.837,13.15 278.581,12.176 277.031,11.456 C275.48,10.734 273.983,10.374 272.54,10.374 C271.799,10.374 271.045,10.44 270.28,10.571 C269.516,10.701 268.828,10.954 268.216,11.325 C267.604,11.695 267.09,12.176 266.677,12.765 C266.259,13.356 266.054,14.11 266.054,15.027 C266.054,15.813 266.217,16.468 266.545,16.993 C266.873,17.517 267.352,17.976 267.986,18.368 C268.619,18.762 269.373,19.124 270.247,19.45 C271.121,19.778 272.104,20.116 273.197,20.466 C274.769,20.991 276.407,21.571 278.11,22.202 C279.816,22.838 281.367,23.678 282.765,24.727 C284.164,25.776 285.32,27.075 286.238,28.626 C287.155,30.177 287.615,32.111 287.615,34.426 C287.615,37.092 287.122,39.396 286.141,41.339 C285.156,43.284 283.835,44.891 282.174,46.156 C280.513,47.425 278.612,48.364 276.473,48.974 C274.333,49.586 272.127,49.893 269.856,49.893 C266.533,49.893 263.323,49.312 260.221,48.155 C257.118,46.998 254.539,45.349 252.488,43.209 L259.828,35.736 C260.963,37.136 262.458,38.303 264.316,39.243 C266.175,40.182 268.019,40.651 269.856,40.651 C270.684,40.651 271.493,40.564 272.28,40.389 C273.066,40.215 273.753,39.931 274.344,39.537 C274.933,39.145 275.402,38.62 275.752,37.965 C276.102,37.31 276.276,36.522 276.276,35.605 C276.276,34.732 276.057,33.99 275.623,33.378 C275.184,32.765 274.56,32.209 273.753,31.707 C272.946,31.205 271.942,30.745 270.74,30.33 C269.537,29.914 268.171,29.468 266.642,28.985 C265.158,28.506 263.704,27.937 262.284,27.282 C260.865,26.627 259.598,25.787 258.483,24.76 C257.37,23.734 256.475,22.488 255.796,21.024 C255.119,19.56 254.781,17.779 254.781,15.682 C254.781,13.105 255.304,10.898 256.355,9.063 C257.401,7.228 258.779,5.721 260.482,4.541 C262.187,3.361 264.107,2.5 266.25,1.953 C268.389,1.407 270.553,1.132 272.738,1.132 C275.36,1.132 278.035,1.615 280.766,2.575 C283.495,3.537 285.888,4.957 287.941,6.836 L280.799,14.372" id="Fill-6" fill="#FFFFFF" sketch:type="MSShapeGroup"></path>
        <path d="M293.38,2.312 L304.652,2.312 L304.652,48.713 L293.38,48.713 L293.38,2.312 Z" id="Fill-7" fill="#FFFFFF" sketch:type="MSShapeGroup"></path>
        <path d="M332.439,11.881 L332.439,48.713 L321.233,48.713 L321.233,11.881 L308.125,11.881 L308.125,2.312 L345.548,2.312 L345.548,11.881 L332.439,11.881" id="Fill-8" fill="#FFFFFF" sketch:type="MSShapeGroup"></path>
        <path d="M349.021,48.713 L349.021,2.312 L380.215,2.312 L380.215,11.749 L359.833,11.749 L359.833,20.532 L379.101,20.532 L379.101,29.511 L359.833,29.511 L359.833,39.145 L381.396,39.145 L381.396,48.713 L349.021,48.713" id="Fill-9" fill="#FFFFFF" sketch:type="MSShapeGroup"></path>
        <path d="M442.208,40.653 C441.42,41.833 440.47,42.948 439.356,43.998 C438.242,45.051 436.951,45.976 435.489,46.774 C434.025,47.574 432.409,48.205 430.639,48.673 C428.87,49.138 426.935,49.372 424.838,49.372 C421.342,49.372 418.109,48.76 415.138,47.535 C412.167,46.312 409.61,44.619 407.47,42.455 C405.328,40.294 403.658,37.727 402.456,34.755 C401.252,31.784 400.652,28.528 400.652,24.989 C400.652,21.449 401.264,18.195 402.487,15.222 C403.711,12.252 405.404,9.685 407.566,7.521 C409.73,5.358 412.287,3.666 415.237,2.442 C418.185,1.219 421.386,0.607 424.838,0.607 C426.543,0.607 428.213,0.785 429.851,1.138 C431.491,1.494 433.03,1.994 434.473,2.637 C435.916,3.282 437.226,4.055 438.406,4.957 C439.586,5.859 440.569,6.876 441.355,8.012 L437.423,10.898 C436.942,10.154 436.298,9.412 435.489,8.669 C434.68,7.925 433.73,7.27 432.638,6.703 C431.545,6.135 430.354,5.675 429.068,5.325 C427.777,4.976 426.39,4.802 424.903,4.802 C421.89,4.802 419.19,5.347 416.81,6.434 C414.427,7.523 412.407,8.993 410.745,10.844 C409.085,12.696 407.818,14.84 406.944,17.281 C406.072,19.72 405.635,22.289 405.635,24.989 C405.635,27.689 406.081,30.258 406.978,32.698 C407.872,35.137 409.15,37.283 410.812,39.133 C412.472,40.984 414.493,42.453 416.876,43.543 C419.256,44.632 421.933,45.177 424.903,45.177 C427.568,45.177 430.103,44.63 432.507,43.537 C434.91,42.446 436.92,40.698 438.537,38.295 L442.208,40.653" id="Fill-10" fill="#1CA070" sketch:type="MSShapeGroup"></path>
        <path d="M466,48.192 L461.28,48.192 L461.28,7.62 L452.889,14.764 L450.006,11.487 L461.805,1.787 L466,1.787 L466,48.192" id="Fill-11" fill="#1CA070" sketch:type="MSShapeGroup"></path>
      </g>
    </g>
  </g>
</svg>