<svg id="Layer_1" data-name="Layer 1" xmlns="http://www.w3.org/2000/svg" viewBox="0 0 858 229.73"><defs><style>.cls-1{fill:#e00600;}</style></defs><circle id="fullLogo" class="cls-1" cx="824.96" cy="124.89" r="16.4"/><path id="type_CompoundPathItem_" data-name="type &lt;CompoundPathItem&gt;" d="M235.64,161.72c4,0,7.07,3,7.07,7.64s-3.07,7.76-7.07,7.76a6.44,6.44,0,0,1-5.58-3V184h-2.48V162h2.48v2.75A6.3,6.3,0,0,1,235.64,161.72Zm-.52,2.15c-2.69,0-5.06,2.06-5.06,5.52s2.37,5.55,5.06,5.55,5.06-2.07,5.06-5.58S237.87,163.87,235.12,163.87Z"/><path id="type_CompoundPathItem_2" data-name="type &lt;CompoundPathItem&gt;" d="M251.39,177.12c-4.22,0-7.43-3-7.43-7.73a7.54,7.54,0,1,1,15.08,0A7.4,7.4,0,0,1,251.39,177.12Zm0-2.18c2.59,0,5.12-1.77,5.12-5.55s-2.48-5.52-5-5.52-5,1.76-5,5.52S248.81,174.94,251.39,174.94Z"/><path id="type_CompoundPathItem_3" data-name="type &lt;CompoundPathItem&gt;" d="M259.44,162H262l3.43,12.52L269.1,162h2.53l3.62,12.55L278.63,162h2.45l-4.66,14.91h-2.55L270.27,165l-3.59,11.83h-2.56Z"/><path id="type_CompoundPathItem_4" data-name="type &lt;CompoundPathItem&gt;" d="M288.88,177.12c-4.24,0-7.37-3-7.37-7.73s3-7.67,7.37-7.67a6.83,6.83,0,0,1,7.16,7.13,14.56,14.56,0,0,1-.08,1.49H284a4.68,4.68,0,0,0,4.84,4.68,4.08,4.08,0,0,0,4.19-2.75h2.67A6.7,6.7,0,0,1,288.88,177.12Zm-4.81-8.79h9.41c0-2.91-2.15-4.52-4.71-4.52A4.62,4.62,0,0,0,284.07,168.33Z"/><path id="type_CompoundPathItem_5" data-name="type &lt;CompoundPathItem&gt;" d="M300.69,176.87h-2.47V162h2.47v2.42a5,5,0,0,1,4.82-2.69v2.56h-.65c-2.37,0-4.17,1.06-4.17,4.51Z"/><path id="type_CompoundPathItem_6" data-name="type &lt;CompoundPathItem&gt;" d="M313.72,177.12c-4.24,0-7.37-3-7.37-7.73s3-7.67,7.37-7.67a6.83,6.83,0,0,1,7.16,7.13,14.56,14.56,0,0,1-.08,1.49H308.88a4.68,4.68,0,0,0,4.84,4.68,4.1,4.1,0,0,0,4.2-2.75h2.66A6.7,6.7,0,0,1,313.72,177.12Zm-4.81-8.79h9.41a4.38,4.38,0,0,0-4.7-4.52A4.62,4.62,0,0,0,308.91,168.33Z"/><path id="type_CompoundPathItem_7" data-name="type &lt;CompoundPathItem&gt;" d="M329.23,161.72a6.51,6.51,0,0,1,5.53,2.91v-7.89h2.5v20.13h-2.5v-2.8a6.13,6.13,0,0,1-5.55,3.05c-4,0-7.08-3.13-7.08-7.76S325.21,161.72,329.23,161.72Zm.47,2.15c-2.73,0-5,2-5,5.49s2.31,5.58,5,5.58,5.06-2,5.06-5.55S332.42,163.87,329.7,163.87Z"/><path id="type_CompoundPathItem_8" data-name="type &lt;CompoundPathItem&gt;" d="M354.59,161.72c4,0,7.08,3,7.08,7.64s-3.08,7.76-7.08,7.76a6.22,6.22,0,0,1-5.58-3v2.75h-2.47V156.74H349v8A6.33,6.33,0,0,1,354.59,161.72Zm-.51,2.15c-2.7,0-5.07,2.06-5.07,5.52s2.37,5.55,5.07,5.55,5.06-2.07,5.06-5.58S356.82,163.87,354.08,163.87Z"/><path id="type_CompoundPathItem_9" data-name="type &lt;CompoundPathItem&gt;" d="M374.13,162h2.56l-9,21.93h-2.56l2.94-7.18-6-14.75h2.75L369.5,174Z"/><path id="type_CompoundPathItem_10" data-name="type &lt;CompoundPathItem&gt;" d="M225.46,188.09c4,0,7.08,3,7.08,7.64s-3.08,7.76-7.08,7.76a6.47,6.47,0,0,1-5.58-3v9.82h-2.47v-22h2.47v2.75A6.3,6.3,0,0,1,225.46,188.09Zm-.52,2.15c-2.69,0-5.06,2.07-5.06,5.52s2.37,5.55,5.06,5.55,5.07-2.07,5.07-5.58S227.69,190.24,224.94,190.24Z"/><path id="type_CompoundPathItem_11" data-name="type &lt;CompoundPathItem&gt;" d="M237.19,203.24h-2.48V188.33h2.48v2.42a5,5,0,0,1,4.82-2.69v2.56h-.66c-2.37,0-4.16,1.06-4.16,4.51Z"/><path id="type_CompoundPathItem_12" data-name="type &lt;CompoundPathItem&gt;" d="M250.28,203.49c-4.22,0-7.43-3-7.43-7.73a7.54,7.54,0,1,1,15.07,0A7.39,7.39,0,0,1,250.28,203.49Zm0-2.18c2.58,0,5.11-1.77,5.11-5.55s-2.47-5.52-5-5.52-5,1.77-5,5.52S247.69,201.31,250.28,201.31Z"/><path id="type_CompoundPathItem_13" data-name="type &lt;CompoundPathItem&gt;" d="M268.15,188.09c4,0,7.08,3,7.08,7.64s-3.08,7.76-7.08,7.76a6.47,6.47,0,0,1-5.58-3v9.82H260.1v-22h2.47v2.75A6.3,6.3,0,0,1,268.15,188.09Zm-.52,2.15c-2.69,0-5.06,2.07-5.06,5.52s2.37,5.55,5.06,5.55,5.07-2.07,5.07-5.58S270.38,190.24,267.63,190.24Z"/><path id="type_CompoundPathItem_14" data-name="type &lt;CompoundPathItem&gt;" d="M290.63,203.24h-2.48V201a5.48,5.48,0,0,1-4.76,2.42c-3.43,0-6.12-2.12-6.12-6.39v-8.74h2.45v8.41c0,3,1.65,4.57,4.16,4.57s4.27-1.58,4.27-4.79v-8.19h2.48Z"/><path id="type_CompoundPathItem_15" data-name="type &lt;CompoundPathItem&gt;" d="M293.73,183.11h2.47v20.13h-2.47Z"/><path id="type_CompoundPathItem_16" data-name="type &lt;CompoundPathItem&gt;" d="M304.61,203.49c-3.48,0-5.93-1.91-6.09-4.63h2.55c.14,1.45,1.42,2.53,3.51,2.53s3.05-1,3.05-2.2c0-3.32-8.82-1.39-8.82-6.94,0-2.28,2.15-4.16,5.47-4.16s5.47,1.77,5.64,4.68h-2.48c-.11-1.5-1.25-2.59-3.24-2.59-1.82,0-2.91.87-2.91,2.07,0,3.54,8.65,1.61,8.76,6.94C310.05,201.64,307.9,203.49,304.61,203.49Z"/><path id="type_CompoundPathItem_17" data-name="type &lt;CompoundPathItem&gt;" d="M318.89,203.49c-4.24,0-7.37-3-7.37-7.73s3-7.67,7.37-7.67a6.84,6.84,0,0,1,7.16,7.13,14.41,14.41,0,0,1-.08,1.49H314.05a4.68,4.68,0,0,0,4.84,4.68,4.09,4.09,0,0,0,4.19-2.74h2.67A6.71,6.71,0,0,1,318.89,203.49Zm-4.81-8.79h9.41a4.38,4.38,0,0,0-4.7-4.52A4.62,4.62,0,0,0,314.08,194.7ZM321.45,182v2.15l-5.79,3.1v-1.85Z"/><path id="type_CompoundPathItem_18" data-name="type &lt;CompoundPathItem&gt;" d="M342.46,188.09c4,0,7.07,3,7.07,7.64s-3.07,7.76-7.07,7.76a6.45,6.45,0,0,1-5.58-3v9.82H334.4v-22h2.48v2.75A6.3,6.3,0,0,1,342.46,188.09Zm-.52,2.15c-2.69,0-5.06,2.07-5.06,5.52s2.37,5.55,5.06,5.55,5.06-2.07,5.06-5.58S344.69,190.24,341.94,190.24Z"/><path id="type_CompoundPathItem_19" data-name="type &lt;CompoundPathItem&gt;" d="M357.86,188.09a6.19,6.19,0,0,1,5.55,3v-2.72h2.5v14.91h-2.5v-2.77a6.24,6.24,0,0,1-5.58,3c-4,0-7.05-3.13-7.05-7.76S353.86,188.09,357.86,188.09Zm.49,2.15c-2.72,0-5,2-5,5.49s2.32,5.58,5,5.58,5.06-2,5.06-5.55S361.07,190.24,358.35,190.24Z"/><path id="type_CompoundPathItem_20" data-name="type &lt;CompoundPathItem&gt;" d="M371.49,203.24H369V188.33h2.48v2.42a5,5,0,0,1,4.82-2.69v2.56h-.66c-2.36,0-4.16,1.06-4.16,4.51Z"/><path id="type_CompoundPathItem_21" data-name="type &lt;CompoundPathItem&gt;" d="M442.71,184.74c0-5.34-3-8.13-7.46-8.13s-7.53,2.79-7.53,8.13v18.57h-8.5V184.74c0-5.34-3-8.13-7.46-8.13s-7.59,2.79-7.59,8.13v18.57h-8.5V169.69h8.5v4.06a12.25,12.25,0,0,1,9.89-4.55c5.22,0,9.53,2.25,11.84,6.44a13.32,13.32,0,0,1,11.53-6.44c8.07,0,13.78,5.1,13.78,14.39v19.72h-8.5Z"/><path id="type_CompoundPathItem_22" data-name="type &lt;CompoundPathItem&gt;" d="M470.09,169.14a13.77,13.77,0,0,1,11,5.22v-16h8.62v44.91h-8.62v-5c-2,3.09-5.76,5.52-11,5.52-8.56,0-15.36-7-15.36-17.48S461.47,169.14,470.09,169.14Zm2.12,7.47c-4.55,0-8.86,3.4-8.86,9.77s4.31,10,8.86,10,8.92-3.52,8.92-9.89S476.88,176.61,472.21,176.61Z"/><path id="type_CompoundPathItem_23" data-name="type &lt;CompoundPathItem&gt;" d="M496.49,176.67h-3.82v-7h3.82V168c0-8.26,4.67-12.08,14.14-11.84v7.17c-4.13-.13-5.52,1.21-5.52,5v1.4H511v7h-5.89v26.64h-8.62Z"/><path id="type_CompoundPathItem_24" data-name="type &lt;CompoundPathItem&gt;" d="M540.55,169.14c8.38,0,14,4.37,15.84,11.9h-9.16a6.61,6.61,0,0,0-6.74-4.68c-4.73,0-7.89,3.58-7.89,10.14s3.16,10.08,7.89,10.08c3.52,0,5.71-1.58,6.74-4.62h9.16c-1.82,7.16-7.46,11.9-15.84,11.9-9.71,0-16.63-6.8-16.63-17.36S530.84,169.14,540.55,169.14Z"/><path id="type_CompoundPathItem_25" data-name="type &lt;CompoundPathItem&gt;" d="M575.15,203.86c-9.71,0-17.06-6.8-17.06-17.36s7.59-17.36,17.3-17.36,17.3,6.74,17.3,17.36S584.92,203.86,575.15,203.86Zm0-7.41c4.49,0,8.8-3.27,8.8-9.95s-4.19-9.95-8.68-9.95-8.56,3.21-8.56,9.95S570.6,196.45,575.15,196.45Z"/><path id="type_CompoundPathItem_26" data-name="type &lt;CompoundPathItem&gt;" d="M643.55,184.74c0-5.34-3-8.13-7.46-8.13s-7.53,2.79-7.53,8.13v18.57h-8.5V184.74c0-5.34-3-8.13-7.46-8.13S605,179.4,605,184.74v18.57h-8.5V169.69H605v4.06a12.25,12.25,0,0,1,9.89-4.55c5.22,0,9.53,2.25,11.84,6.44a13.32,13.32,0,0,1,11.53-6.44c8.07,0,13.78,5.1,13.78,14.39v19.72h-8.5Z"/><path id="type_CompoundPathItem_27" data-name="type &lt;CompoundPathItem&gt;" d="M704.73,184.74c0-5.34-3-8.13-7.46-8.13s-7.53,2.79-7.53,8.13v18.57h-8.5V184.74c0-5.34-3-8.13-7.46-8.13s-7.59,2.79-7.59,8.13v18.57h-8.5V169.69h8.5v4.06a12.26,12.26,0,0,1,9.89-4.55c5.22,0,9.53,2.25,11.84,6.44a13.32,13.32,0,0,1,11.53-6.44c8.08,0,13.78,5.1,13.78,14.39v19.72h-8.5Z"/><path id="type_CompoundPathItem_28" data-name="type &lt;CompoundPathItem&gt;" d="M733.56,203.86c-9.77,0-16.87-6.8-16.87-17.36s6.92-17.36,16.87-17.36c9.72,0,16.57,6.62,16.57,16.63a20.12,20.12,0,0,1-.24,3.28H725.31c.42,5,3.82,7.77,8.07,7.77a6.93,6.93,0,0,0,6.74-4.07h9.17C747.46,198.94,741.88,203.86,733.56,203.86Zm-8.19-20.52h16c-.12-4.43-3.64-7.22-8-7.22C729.26,176.12,726,178.73,725.37,183.34Z"/><path id="type_CompoundPathItem_29" data-name="type &lt;CompoundPathItem&gt;" d="M762.39,203.31H753.9V169.69h8.49v5.22a11.68,11.68,0,0,1,10.32-5.71v8.92h-2.24c-5,0-8.08,1.95-8.08,8.44Z"/><path id="type_CompoundPathItem_30" data-name="type &lt;CompoundPathItem&gt;" d="M790.44,169.14c8.37,0,14,4.37,15.84,11.9h-9.17a6.6,6.6,0,0,0-6.73-4.68c-4.74,0-7.9,3.58-7.9,10.14s3.16,10.08,7.9,10.08c3.51,0,5.7-1.58,6.73-4.62h9.17c-1.82,7.16-7.47,11.9-15.84,11.9-9.72,0-16.63-6.8-16.63-17.36S780.72,169.14,790.44,169.14Z"/><path id="type_CompoundPathItem_31" data-name="type &lt;CompoundPathItem&gt;" d="M824.79,203.86c-9.77,0-16.87-6.8-16.87-17.36s6.91-17.36,16.87-17.36c9.71,0,16.57,6.62,16.57,16.63a20.12,20.12,0,0,1-.24,3.28H816.53c.43,5,3.83,7.77,8.08,7.77a6.91,6.91,0,0,0,6.73-4.07h9.17C838.69,198.94,833.1,203.86,824.79,203.86Zm-8.19-20.52h16c-.12-4.43-3.64-7.22-8-7.22C820.48,176.12,817.26,178.73,816.6,183.34Z"/><path d="M37.73,98.41C37.73,71.84,58.23,53,86.27,53s48.38,18.86,48.38,45.43-20.34,45.43-48.38,45.43S37.73,125,37.73,98.41Zm71,0C108.74,83.16,99.06,74,86.27,74S63.64,83.16,63.64,98.41s9.84,24.44,22.63,24.44S108.74,113.66,108.74,98.41Z"/><path d="M202.38,53V76.6c-2.13-.16-3.77-.33-5.74-.33-14.1,0-23.45,7.71-23.45,24.6v41.66H147.61V54.3H172V65.94C178.27,57.41,188.77,53,202.38,53Z"/><path d="M206.16,98.41c0-26.57,20.5-45.43,49.2-45.43,18.53,0,33.12,8,39.52,22.47L275,86.11C270.28,77.75,263.23,74,255.19,74c-12.95,0-23.12,9-23.12,24.43s10.17,24.44,23.12,24.44c8,0,15.09-3.61,19.85-12.14l19.84,10.83c-6.4,14.1-21,22.3-39.52,22.3C226.66,143.84,206.16,125,206.16,98.41Z"/><path d="M342.77,107.92l-12.3,12.14v22.47H304.88V20.84h25.59V89.72L367.86,54.3h30.5L361.63,91.69l40,50.84h-31Z"/><path d="M491.19,105.63H424.44c2.46,11,11.81,17.71,25.25,17.71,9.35,0,16.08-2.79,22.14-8.53l13.62,14.76c-8.2,9.35-20.5,14.27-36.41,14.27-30.51,0-50.35-19.19-50.35-45.43C398.69,72,418.86,53,445.76,53c25.91,0,45.92,17.39,45.92,45.76C491.68,100.71,491.35,103.5,491.19,105.63ZM424.11,90.7h43.46c-1.8-11.15-10.17-18.36-21.65-18.36C434.28,72.34,425.91,79.39,424.11,90.7Z"/><path d="M496.1,134.33,504.63,116c7.87,5.08,19.85,8.53,30.67,8.53,11.81,0,16.24-3.12,16.24-8,0-14.43-53.3.33-53.3-34.93,0-16.73,15.08-28.54,40.83-28.54,12.14,0,25.59,2.79,33.95,7.71L564.49,78.9a50.65,50.65,0,0,0-25.42-6.56c-11.48,0-16.4,3.6-16.4,8.2,0,15.08,53.3.49,53.3,35.26,0,16.4-15.25,28-41.65,28C519.39,143.84,504.3,139.74,496.1,134.33Z"/><path d="M644.52,138.26c-5.24,3.78-12.95,5.58-20.83,5.58-20.82,0-33-10.66-33-31.65V75.94H577.12V56.26h13.61V34.78h25.59V56.26h22V75.94h-22v35.92c0,7.54,4.09,11.64,11,11.64a17.17,17.17,0,0,0,10.33-3.28Z"/><path d="M709.63,53V76.6c-2.13-.16-3.77-.33-5.74-.33-14.1,0-23.45,7.71-23.45,24.6v41.66H654.85V54.3h24.44V65.94C685.52,57.41,696,53,709.63,53Z"/><path d="M798.36,92.18v50.35h-24v-11c-4.75,8-13.94,12.3-26.89,12.3-20.67,0-33-11.48-33-26.73,0-15.58,11-26.41,37.89-26.41h20.33c0-11-6.56-17.38-20.33-17.38-9.35,0-19,3.12-25.42,8.2l-9.19-17.88c9.68-6.88,23.95-10.66,38-10.66C782.78,53,798.36,65.45,798.36,92.18Zm-25.59,22.47v-9H755.22c-12,0-15.74,4.43-15.74,10.33,0,6.4,5.41,10.66,14.43,10.66C762.44,126.62,769.82,122.68,772.77,114.65Z"/></svg>