<svg viewBox="0 0 872 243" fill="none" xmlns="http://www.w3.org/2000/svg">
<g clip-path="url(#clip0_2_1158)">
<path d="M871.45 84.65H831.71C831.71 59.88 811.56 39.74 786.8 39.74V0C833.48 0 871.45 37.97 871.45 84.65Z" fill="#E00600"/>
<path d="M0 119.38C0 91.35 21.62 71.46 51.21 71.46C80.8 71.46 102.24 91.35 102.24 119.38C102.24 147.41 80.79 167.3 51.21 167.3C21.63 167.3 0 147.41 0 119.38ZM74.91 119.38C74.91 103.29 64.7 93.6 51.21 93.6C37.72 93.6 27.34 103.29 27.34 119.38C27.34 135.47 37.72 145.16 51.21 145.16C64.7 145.16 74.91 135.47 74.91 119.38Z" fill="black"/>
<path d="M173.69 71.46V96.37C171.44 96.2 169.71 96.02 167.64 96.02C152.76 96.02 142.9 104.15 142.9 121.97V165.91H115.91V72.85H141.69V85.13C148.26 76.13 159.34 71.46 173.69 71.46Z" fill="black"/>
<path d="M177.67 119.38C177.67 91.35 199.29 71.46 229.57 71.46C249.12 71.46 264.52 79.94 271.26 95.16L250.33 106.4C245.31 97.58 237.87 93.6 229.4 93.6C215.73 93.6 205.01 103.11 205.01 119.38C205.01 135.65 215.74 145.16 229.4 145.16C237.88 145.16 245.32 141.35 250.33 132.36L271.26 143.78C264.51 158.66 249.12 167.31 229.57 167.31C199.29 167.31 177.67 147.42 177.67 119.39V119.38Z" fill="black"/>
<path d="M321.77 129.42L308.79 142.22V165.92H281.8V37.55H308.79V110.21L348.23 72.84H380.41L341.66 112.28L383.87 165.91H351.17L321.76 129.41L321.77 129.42Z" fill="black"/>
<path d="M478.34 126.99H407.93C410.52 138.58 420.39 145.67 434.57 145.67C444.43 145.67 451.52 142.73 457.92 136.67L472.28 152.24C463.63 162.1 450.66 167.29 433.87 167.29C401.69 167.29 380.76 147.05 380.76 119.37C380.76 91.69 402.04 71.45 430.41 71.45C458.78 71.45 478.85 89.79 478.85 119.72C478.85 121.8 478.5 124.74 478.33 126.99H478.34ZM407.58 111.25H453.42C451.52 99.49 442.69 91.87 430.58 91.87C418.47 91.87 409.47 99.31 407.57 111.25H407.58Z" fill="black"/>
<path d="M483.52 157.27L492.52 137.89C500.82 143.25 513.45 146.89 524.87 146.89C537.33 146.89 542 143.6 542 138.41C542 123.19 485.78 138.76 485.78 101.56C485.78 83.91 501.7 71.46 528.86 71.46C541.66 71.46 555.85 74.4 564.67 79.59L555.67 98.79C546.5 93.6 537.33 91.87 528.86 91.87C516.75 91.87 511.56 95.68 511.56 100.52C511.56 116.44 567.78 101.04 567.78 137.71C567.78 155.01 551.69 167.29 523.84 167.29C508.1 167.29 492.18 162.96 483.53 157.26L483.52 157.27Z" fill="black"/>
<path d="M640.08 161.42C634.54 165.4 626.41 167.3 618.11 167.3C596.14 167.3 583.34 156.06 583.34 133.91V95.68H568.98V74.92H583.34V52.26H610.33V74.92H633.51V95.68H610.33V133.57C610.33 141.53 614.65 145.85 621.92 145.85C625.9 145.85 629.88 144.64 632.82 142.39L640.09 161.42H640.08Z" fill="black"/>
<path d="M708.76 71.46V96.37C706.51 96.2 704.78 96.02 702.7 96.02C687.82 96.02 677.96 104.15 677.96 121.97V165.91H650.97V72.85H676.75V85.13C683.32 76.13 694.4 71.46 708.76 71.46Z" fill="black"/>
<path d="M802.36 112.81V165.92H777.1V154.33C772.08 162.81 762.39 167.31 748.73 167.31C726.93 167.31 713.96 155.2 713.96 139.11C713.96 123.02 725.55 111.26 753.92 111.26H775.37C775.37 99.67 768.45 92.92 753.92 92.92C744.06 92.92 733.85 96.21 727.11 101.57L717.42 82.71C727.63 75.44 742.68 71.47 757.56 71.47C785.93 71.47 802.37 84.62 802.37 112.82L802.36 112.81ZM775.37 136.51V127H756.86C744.23 127 740.25 131.67 740.25 137.9C740.25 144.65 745.96 149.14 755.47 149.14C764.47 149.14 772.25 144.99 775.36 136.51H775.37Z" fill="black"/>
<path d="M26.58 193.27C35.51 193.27 42.37 199.95 42.37 210.33C42.37 220.71 35.51 227.64 26.58 227.64C21.55 227.74 16.83 225.21 14.13 220.96V242.88H8.59998V193.82H14.13V199.95C16.78 195.65 21.53 193.1 26.58 193.27V193.27ZM25.43 198.07C19.42 198.07 14.14 202.69 14.14 210.4C14.14 218.11 19.42 222.79 25.43 222.79C31.44 222.79 36.72 218.17 36.72 210.34C36.72 202.51 31.56 198.07 25.43 198.07Z" fill="black"/>
<path d="M61.7399 227.64C52.3299 227.64 45.1599 220.96 45.1599 210.39C45.1599 199.82 52.5699 193.27 61.9799 193.27C71.3899 193.27 78.7999 199.89 78.7999 210.39C78.7999 220.89 71.2099 227.64 61.7399 227.64V227.64ZM61.7399 222.78C67.5099 222.78 73.1599 218.83 73.1599 210.39C73.1599 201.95 67.6299 198.06 61.9299 198.06C56.2299 198.06 50.8199 202.01 50.8199 210.39C50.8199 218.83 55.9799 222.78 61.7499 222.78H61.7399Z" fill="black"/>
<path d="M79.72 193.81H85.37L93.02 221.74L101.28 193.81H106.93L115.01 221.8L122.54 193.81H128.01L117.63 227.09H111.92L103.9 200.68L95.88 227.09H90.17L79.73 193.81H79.72Z" fill="black"/>
<path d="M145.42 227.64C135.95 227.64 128.96 220.96 128.96 210.39C128.96 199.82 135.7 193.27 145.42 193.27C155.14 193.27 161.39 200.07 161.39 209.18C161.39 210.3 161.33 211.41 161.21 212.52H134.61C134.61 218.3 139.3 222.98 145.08 222.97C145.19 222.97 145.3 222.97 145.42 222.97C150.4 222.97 153.56 220.42 154.77 216.84H160.72C159.02 222.91 153.68 227.65 145.42 227.65V227.64ZM134.67 208.03H155.68C155.74 201.53 150.88 197.95 145.18 197.95C139.78 197.95 135.28 201.53 134.67 208.03Z" fill="black"/>
<path d="M171.78 227.09H166.25V193.81H171.78V199.21C173.66 195.51 177.25 193.2 182.53 193.2V198.91H181.07C175.79 198.91 171.78 201.28 171.78 208.99V227.09V227.09Z" fill="black"/>
<path d="M200.86 227.64C191.39 227.64 184.4 220.96 184.4 210.39C184.4 199.82 191.14 193.27 200.86 193.27C210.58 193.27 216.83 200.07 216.83 209.18C216.83 210.3 216.77 211.41 216.65 212.52H190.05C190.05 218.3 194.74 222.98 200.52 222.97C200.63 222.97 200.74 222.97 200.86 222.97C205.84 222.97 209 220.42 210.21 216.84H216.16C214.46 222.91 209.12 227.65 200.86 227.65V227.64ZM190.11 208.03H211.12C211.18 201.53 206.32 197.95 200.62 197.95C195.22 197.95 190.72 201.53 190.11 208.03Z" fill="black"/>
<path d="M235.48 193.27C240.43 193.19 245.07 195.64 247.81 199.77V182.16H253.4V227.1H247.81V220.85C245.26 225.24 240.49 227.86 235.42 227.65C226.49 227.65 219.63 220.67 219.63 210.34C219.63 200.01 226.49 193.28 235.48 193.28V193.27ZM236.51 198.07C230.44 198.07 225.28 202.5 225.28 210.34C225.28 218.18 230.44 222.79 236.51 222.79C242.58 222.79 247.8 218.24 247.8 210.4C247.8 202.69 242.58 198.07 236.51 198.07Z" fill="black"/>
<path d="M292.07 193.27C301.06 193.27 307.86 199.95 307.86 210.33C307.86 220.71 301 227.64 292.07 227.64C287.01 227.85 282.24 225.29 279.62 220.96V227.09H274.09V182.15H279.62V200C282.26 195.68 287.01 193.11 292.07 193.26V193.27ZM290.92 198.07C284.91 198.07 279.63 202.69 279.63 210.4C279.63 218.11 284.91 222.79 290.92 222.79C296.93 222.79 302.21 218.17 302.21 210.34C302.21 202.51 297.05 198.07 290.92 198.07Z" fill="black"/>
<path d="M335.67 193.81H341.38L321.34 242.75H315.63L322.19 226.72L308.77 193.81H314.9L325.34 220.77L335.66 193.81H335.67Z" fill="black"/>
<path d="M404.84 208.51C404.84 203.17 401.86 200.37 397.37 200.37C392.88 200.37 389.84 203.16 389.84 208.51V227.09H381.34V208.51C381.34 203.17 378.36 200.37 373.87 200.37C369.38 200.37 366.28 203.16 366.28 208.51V227.09H357.78V193.45H366.28V197.52C368.69 194.54 372.35 192.85 376.18 192.97C381.02 192.71 385.6 195.2 388.02 199.41C390.46 195.37 394.84 192.93 399.56 192.97C407.64 192.97 413.34 198.07 413.34 207.36V227.1H404.84V208.52V208.51Z" fill="black"/>
<path d="M432.23 192.9C436.5 192.84 440.56 194.77 443.22 198.12V182.15H451.84V227.09H443.22V222.11C440.74 225.74 436.56 227.83 432.17 227.64C423.61 227.64 416.81 220.66 416.81 210.15C416.81 199.64 423.61 192.9 432.23 192.9ZM434.36 200.37C429.81 200.37 425.49 203.77 425.49 210.15C425.49 216.53 429.8 220.17 434.36 220.17C438.92 220.17 443.29 216.65 443.29 210.27C443.29 203.89 439.04 200.37 434.36 200.37Z" fill="black"/>
<path d="M458.64 200.43H454.81V193.45H458.64V191.75C458.64 183.49 463.32 179.67 472.79 179.91V187.07C468.66 186.95 467.26 188.28 467.26 192.05V193.45H473.15V200.43H467.26V227.09H458.64V200.43Z" fill="black"/>
<path d="M502.73 192.9C511.11 192.9 516.76 197.27 518.58 204.8H509.41C508.52 201.87 505.73 199.93 502.67 200.12C497.93 200.12 494.78 203.7 494.78 210.26C494.78 216.82 497.94 220.34 502.67 220.34C505.73 220.62 508.56 218.68 509.41 215.73H518.58C516.76 222.9 511.11 227.63 502.73 227.63C493.01 227.63 486.09 220.83 486.09 210.26C486.09 199.69 493.01 192.89 502.73 192.89V192.9Z" fill="black"/>
<path d="M537.34 227.64C527.62 227.64 520.28 220.84 520.28 210.27C520.28 199.7 527.87 192.9 537.59 192.9C547.31 192.9 554.9 199.64 554.9 210.27C554.9 220.84 547.13 227.64 537.35 227.64H537.34ZM537.34 220.23C541.83 220.23 546.14 216.95 546.14 210.27C546.14 203.59 541.95 200.31 537.46 200.31C532.97 200.31 528.9 203.53 528.9 210.27C528.9 217.01 532.79 220.23 537.34 220.23V220.23Z" fill="black"/>
<path d="M605.77 208.51C605.77 203.17 602.79 200.37 598.3 200.37C593.81 200.37 590.77 203.16 590.77 208.51V227.09H582.27V208.51C582.27 203.17 579.29 200.37 574.8 200.37C570.31 200.37 567.21 203.16 567.21 208.51V227.09H558.71V193.45H567.21V197.52C569.62 194.54 573.28 192.85 577.11 192.97C581.95 192.71 586.53 195.2 588.95 199.41C591.39 195.37 595.77 192.93 600.49 192.97C608.57 192.97 614.27 198.07 614.27 207.36V227.1H605.77V208.52V208.51Z" fill="black"/>
<path d="M666.99 208.51C666.99 203.17 664.01 200.37 659.52 200.37C655.03 200.37 651.99 203.16 651.99 208.51V227.09H643.49V208.51C643.49 203.17 640.51 200.37 636.02 200.37C631.53 200.37 628.43 203.16 628.43 208.51V227.09H619.93V193.45H628.43V197.52C630.84 194.54 634.5 192.85 638.33 192.97C643.17 192.71 647.75 195.2 650.17 199.41C652.61 195.37 656.99 192.93 661.71 192.97C669.79 192.97 675.49 198.07 675.49 207.36V227.1H666.99V208.52V208.51Z" fill="black"/>
<path d="M695.83 227.64C686.05 227.64 678.95 220.84 678.95 210.27C678.95 199.7 685.87 192.9 695.83 192.9C705.79 192.9 712.41 199.52 712.41 209.54C712.41 210.64 712.34 211.73 712.17 212.82H687.58C687.63 217.17 691.2 220.65 695.55 220.59C695.59 220.59 695.62 220.59 695.66 220.59C698.53 220.77 701.22 219.15 702.4 216.52H711.57C709.75 222.71 704.16 227.63 695.84 227.63L695.83 227.64ZM687.63 207.12H703.6C703.48 202.69 699.96 199.89 695.58 199.89C691.43 199.8 687.94 202.98 687.63 207.12Z" fill="black"/>
<path d="M724.68 227.09H716.18V193.45H724.68V198.67C726.83 195.04 730.78 192.86 735 192.96V201.89H732.75C727.71 201.89 724.67 203.83 724.67 210.33V227.09H724.68Z" fill="black"/>
<path d="M752.73 192.9C761.11 192.9 766.76 197.27 768.58 204.8H759.41C758.52 201.87 755.73 199.93 752.67 200.12C747.93 200.12 744.78 203.7 744.78 210.26C744.78 216.82 747.94 220.34 752.67 220.34C755.73 220.62 758.56 218.68 759.41 215.73H768.58C766.76 222.9 761.11 227.63 752.73 227.63C743.01 227.63 736.09 220.83 736.09 210.26C736.09 199.69 743.01 192.89 752.73 192.89V192.9Z" fill="black"/>
<path d="M787.1 227.64C777.32 227.64 770.22 220.84 770.22 210.27C770.22 199.7 777.14 192.9 787.1 192.9C797.06 192.9 803.68 199.52 803.68 209.54C803.68 210.64 803.61 211.73 803.44 212.82H778.85C778.9 217.17 782.47 220.65 786.82 220.59C786.86 220.59 786.89 220.59 786.93 220.59C789.8 220.76 792.49 219.15 793.67 216.52H802.84C801.02 222.71 795.43 227.63 787.11 227.63L787.1 227.64ZM778.9 207.12H794.87C794.75 202.69 791.23 199.89 786.85 199.89C782.7 199.8 779.21 202.98 778.9 207.12Z" fill="black"/>
</g>
<defs>
<clipPath id="clip0_2_1158">
<rect width="871.45" height="242.88" fill="black"/>
</clipPath>
</defs>
</svg>
