<?xml version="1.0" encoding="utf-8"?>
<!-- Generator: Adobe Illustrator 18.0.0, SVG Export Plug-In . SVG Version: 6.00 Build 0)  -->
<!DOCTYPE svg PUBLIC "-//W3C//DTD SVG 1.1//EN" "http://www.w3.org/Graphics/SVG/1.1/DTD/svg11.dtd">
<svg fill="#333" version="1.1" id="Orckestra" xmlns="http://www.w3.org/2000/svg" xmlns:xlink="http://www.w3.org/1999/xlink" x="0px" y="0px"
	 viewBox="0 0 257.1 103.6" enable-background="new 0 0 257.1 103.6" xml:space="preserve">
<g>
	<path fill-rule="evenodd" clip-rule="evenodd" d="M54.3,82.4h6.1v-8.7c0-4,0.6-6.7,5.2-6.7c0.9,0,1.8,0.2,2.6,0.4v-5.6
		c-0.6-0.2-1.3-0.2-2-0.2c-2.7,0-4.4,1.3-5.7,3.7h-0.1v-3.2h-6.1V82.4z"/>
	<path fill-rule="evenodd" clip-rule="evenodd" d="M86.9,64.3c-1.9-2-4.7-2.7-7.1-2.7c-6.1,0-11,4.1-11,10.4s4.9,10.4,11,10.4
		c2.3,0,5.1-0.7,7.1-2.7l-4-4.3c-0.7,0.8-1.7,1.5-3,1.5c-3.1,0-4.9-2-4.9-5c0-3,1.8-5,4.9-5c1.3,0,2.4,0.7,3,1.5L86.9,64.3z"/>
	<polygon fill-rule="evenodd" clip-rule="evenodd" points="101.9,82.4 109.6,82.4 102,72.4 109.2,62.1 101.7,62.1 94.7,72.3 	"/>
	<path fill-rule="evenodd" clip-rule="evenodd" d="M121.6,75.4c-1,1.4-2.4,2.4-4.4,2.4c-2.4,0-4.1-1.5-4.6-3.8h14.2V72
		c0-6.3-3.6-10.4-9.3-10.4c-6.1,0-11,4.1-11,10.4s4.9,10.4,11,10.4c3.2,0,6.4-1.4,8.4-3.9L121.6,75.4z M112.6,69.8
		c0.2-1.9,1.6-3.8,4.3-3.8c2.2,0,3.8,1.7,3.8,3.8H112.6z"/>
	<path fill-rule="evenodd" clip-rule="evenodd" d="M143.3,64.2c-1.8-2-4.7-2.6-7.4-2.6c-4.2,0-8.3,2-8.3,6.7
		c0,7.6,10.3,4.9,10.3,8.1c0,1.1-1.4,1.4-2.8,1.4c-1.8,0-3.2-0.8-4.3-2.2l-3.7,4.1c2,2,5,2.7,7.8,2.7c4.3,0,9.2-1.5,9.2-6.5
		c0-7.6-10.3-5.1-10.3-8c0-1.2,1.2-1.6,2.2-1.6c1.5,0,2.7,0.6,3.6,1.7L143.3,64.2z"/>
	<path fill-rule="evenodd" clip-rule="evenodd" d="M145.2,51.3v25.2c0,4.3,3.1,6,7.2,6c1.4,0,2.9-0.1,4.3-0.6v-5.1
		c-0.5,0.5-1.8,0.6-2.5,0.6c-2.7,0-2.9-1.6-2.9-3.7v-6h5.4v-5.6h-5.4V51.3H145.2z"/>
	<path fill-rule="evenodd" clip-rule="evenodd" d="M158.1,82.4h6.1v-8.7c0-4,0.6-6.7,5.2-6.7c0.9,0,1.8,0.2,2.6,0.4v-5.6
		c-0.6-0.2-1.3-0.2-2-0.2c-2.7,0-4.4,1.3-5.7,3.7h-0.1v-3.2h-6.1V82.4z"/>
	<path fill-rule="evenodd" clip-rule="evenodd" d="M185,82.4h5.6V71.9c0-6.6-1.9-10.3-9.1-10.3c-3.2,0-6.5,1.1-8.7,3.2l3.3,3.3
		c1.3-1.5,3-2.4,5-2.4c2.1,0,3.9,1.4,3.9,3.6c-5.1,0-13.4,0.1-13.4,7c0,4,3.3,6.1,7.1,6.1c2.5,0,4.9-0.9,6.3-3h0.1V82.4z M185,73.3
		v1.3c0,2.5-2.2,3.7-4.7,3.7c-1.3,0-2.9-0.7-2.9-2.2c0-2.7,4.2-2.9,6-2.9H185z"/>
	<path fill-rule="evenodd" clip-rule="evenodd" d="M27.3,66.6c0-5.3,4.3-9.6,9.6-9.6s9.6,4.3,9.6,9.6c0,5.3-4.3,9.6-9.6,9.6
		S27.3,71.9,27.3,66.6z M20.8,66.6c0-8.9,7.2-16.1,16.1-16.1c8.9,0,16.1,7.2,16.1,16.1c0,8.9-7.2,16.1-16.1,16.1
		C28,82.7,20.8,75.5,20.8,66.6z"/>
	<rect x="88.5" y="51.3" fill-rule="evenodd" clip-rule="evenodd" width="6.1" height="31.1"/>
</g>
<g>
	<path d="M202,30.2c-4.4,0-8.7,1.7-11.9,4.8l-6.9-6.7c4.7-4.7,11.7-7.5,18.9-7.5c1.6,0,3.2,0.1,4.8,0.4l-2.2,9.1
		C203.7,30.3,202.8,30.2,202,30.2 M216.6,39.5c-3.5-3.4-8.1-5.2-13-5.2c-5.1,0-9.9,2-13.4,5.7c-2.9,3-4.7,6.9-5.1,11.1h-9
		c0.1-6.6,2.6-12.2,7.6-17.4c0.6-0.6,1.2-1.1,1.8-1.7l4.6,4.5l0.4-0.4c3-3.1,7.2-4.8,11.5-4.8c1,0,2,0.1,2.9,0.3l0.5,0.1l1.5-6.3
		c5.7,0.7,11,3,15.3,6.9l0.8,0.7c5,4.8,7.9,11.2,8.4,18.1h-9.1C221.8,46.6,219.8,42.6,216.6,39.5z M226.1,29
		c7.3,6.9,11,16.9,10,26.9c-0.7,7-3.7,13.5-8.6,18.8l-8.6-6.6c0.9-0.9,1.8-1.9,2.5-2.9c2.2-3.1,3.6-6.7,4-10.4
		c0.1-0.9,0.1-1.8,0.1-2.8h6.9l0-0.5c-0.3-7.3-3.5-14.2-8.7-19.3l-0.4-0.4L226.1,29z M217.7,67.8l-0.5,0.4l6.5,4.9
		c-5.8,6.5-14.3,10-23,9.5l0.1-9.9c0.5,0,1,0.1,1.4,0.1h0c6.6,0,12.7-3.5,16.1-9l1.8,1.3C219.5,66.1,218.7,67,217.7,67.8z"/>
</g>
</svg>
