<?xml version="1.0" encoding="utf-8"?>
<svg height="11px" version="1.1" id="Layer_1" xmlns="http://www.w3.org/2000/svg" xmlns:xlink="http://www.w3.org/1999/xlink" x="0px" y="0px"
	 viewBox="0 0 53.4 11" enable-background="new 0 0 53.4 11" xml:space="preserve">
<title>C1 CMS</title>
<g>
	<path fill="#999999" d="M9.4,9C9.3,9.3,9,9.5,8.8,9.7c-0.2,0.2-0.5,0.4-0.9,0.6c-0.3,0.2-0.7,0.3-1.1,0.4c-0.4,0.1-0.8,0.2-1.3,0.2
		c-0.8,0-1.5-0.1-2.2-0.4c-0.7-0.3-1.2-0.6-1.7-1.1C1.2,8.9,0.8,8.3,0.6,7.7C0.3,7,0.2,6.3,0.2,5.5c0-0.8,0.1-1.5,0.4-2.2
		c0.3-0.7,0.6-1.2,1.1-1.7c0.5-0.5,1.1-0.9,1.7-1.1c0.7-0.3,1.4-0.4,2.1-0.4c0.4,0,0.8,0,1.1,0.1c0.4,0.1,0.7,0.2,1,0.3
		C8,0.7,8.3,0.8,8.6,1c0.3,0.2,0.5,0.4,0.7,0.7L8.4,2.4C8.3,2.2,8.1,2,7.9,1.9C7.8,1.7,7.5,1.6,7.3,1.4C7.1,1.3,6.8,1.2,6.5,1.1
		C6.2,1,5.9,1,5.6,1C4.9,1,4.3,1.1,3.8,1.4c-0.5,0.2-1,0.6-1.4,1C2.1,2.8,1.8,3.2,1.6,3.8C1.4,4.3,1.3,4.9,1.3,5.5
		c0,0.6,0.1,1.2,0.3,1.7c0.2,0.5,0.5,1,0.9,1.4c0.4,0.4,0.8,0.7,1.4,1C4.3,9.9,4.9,10,5.6,10c0.6,0,1.2-0.1,1.7-0.4
		c0.5-0.2,1-0.6,1.3-1.2L9.4,9z"/>
	<path fill="#999999" d="M13.6,10.7V3.1l-1.9,1.5l-1.3-1.7l3.4-2.5H16v10.3H13.6z"/>
	<path fill="#999999" d="M30.2,10.5c-0.7,0.3-1.4,0.5-2.3,0.5c-0.8,0-1.5-0.1-2.2-0.4c-0.7-0.3-1.3-0.6-1.8-1.1
		c-0.5-0.5-0.9-1.1-1.2-1.7c-0.3-0.7-0.4-1.4-0.4-2.2c0-0.8,0.1-1.6,0.4-2.2C23.1,2.6,23.5,2,24,1.5c0.5-0.5,1.1-0.8,1.8-1.1
		c0.7-0.3,1.4-0.4,2.2-0.4c0.7,0,1.4,0.1,2.2,0.4c0.7,0.3,1.3,0.6,1.7,1.1l-1.7,1.7c-0.2-0.3-0.5-0.6-0.9-0.7
		c-0.4-0.2-0.8-0.2-1.2-0.2c-0.4,0-0.8,0.1-1.2,0.2c-0.4,0.2-0.7,0.4-0.9,0.7c-0.3,0.3-0.5,0.6-0.6,1c-0.1,0.4-0.2,0.8-0.2,1.3
		c0,0.5,0.1,0.9,0.2,1.3c0.1,0.4,0.3,0.7,0.6,1c0.3,0.3,0.6,0.5,0.9,0.6c0.4,0.2,0.8,0.2,1.2,0.2c0.5,0,0.9-0.1,1.3-0.3
		c0.4-0.2,0.7-0.4,0.9-0.8l1.7,1.6C31.5,9.8,30.9,10.2,30.2,10.5z"/>
	<path fill="#999999" d="M42,10.7L42,3.4h0l-2.7,7.3h-1.8l-2.6-7.3h0l0.1,7.3h-2.4V0.3h3.6L38.5,7h0.1l2.3-6.6h3.6v10.3H42z"/>
	<path fill="#999999" d="M51.6,3c-0.2-0.3-0.5-0.5-0.8-0.6c-0.3-0.2-0.7-0.2-1-0.2c-0.2,0-0.3,0-0.5,0c-0.2,0-0.3,0.1-0.5,0.2
		c-0.1,0.1-0.3,0.2-0.3,0.3c-0.1,0.1-0.1,0.3-0.1,0.5c0,0.2,0,0.3,0.1,0.4c0.1,0.1,0.2,0.2,0.3,0.3c0.1,0.1,0.3,0.2,0.5,0.2
		c0.2,0.1,0.4,0.1,0.7,0.2c0.4,0.1,0.7,0.2,1.1,0.4c0.4,0.1,0.7,0.3,1,0.6c0.3,0.2,0.6,0.5,0.8,0.9C53,6.5,53.1,7,53.1,7.5
		c0,0.6-0.1,1.1-0.3,1.5c-0.2,0.4-0.5,0.8-0.9,1.1c-0.4,0.3-0.8,0.5-1.3,0.6c-0.5,0.1-1,0.2-1.5,0.2c-0.7,0-1.5-0.1-2.1-0.4
		c-0.7-0.3-1.3-0.6-1.7-1.1l1.6-1.7c0.3,0.3,0.6,0.6,1,0.8c0.4,0.2,0.8,0.3,1.2,0.3c0.2,0,0.4,0,0.5-0.1c0.2,0,0.3-0.1,0.5-0.2
		s0.2-0.2,0.3-0.4c0.1-0.1,0.1-0.3,0.1-0.5c0-0.2,0-0.4-0.1-0.5C50.4,7.1,50.2,7,50,6.9c-0.2-0.1-0.4-0.2-0.7-0.3
		c-0.3-0.1-0.6-0.2-0.9-0.3c-0.3-0.1-0.7-0.2-1-0.4c-0.3-0.1-0.6-0.3-0.8-0.6c-0.2-0.2-0.4-0.5-0.6-0.8c-0.2-0.3-0.2-0.7-0.2-1.2
		c0-0.6,0.1-1.1,0.4-1.5c0.2-0.4,0.5-0.7,0.9-1s0.8-0.5,1.3-0.6c0.5-0.1,1-0.2,1.4-0.2c0.6,0,1.2,0.1,1.8,0.3
		c0.6,0.2,1.1,0.5,1.6,0.9L51.6,3z"/>
</g>
</svg>
