<?xml version="1.0" encoding="UTF-8" standalone="no"?>
<svg width="25px" height="25px" viewBox="0 0 25 25" version="1.1" xmlns="http://www.w3.org/2000/svg" xmlns:xlink="http://www.w3.org/1999/xlink" xmlns:sketch="http://www.bohemiancoding.com/sketch/ns">
  <g viewBox="0 0 25 25" stroke="none" stroke-width="1" fill="none" fill-rule="evenodd" >
    <g>
      <path d="M14.8362745,18.1514706 L1.05441176,18.1514706 C0.552941176,18.1514706 0.146568627,18.5578431 0.146568627,19.0588235 L0.146568627,23.9279412 C0.146568627,24.4294118 0.552941176,24.8357843 1.05441176,24.8357843 L14.8362745,24.8357843 C15.3372549,24.8357843 15.7436275,24.4294118 15.7436275,23.9279412 L15.7436275,19.0588235 C15.7436275,18.5578431 15.3372549,18.1514706 14.8362745,18.1514706"  fill="#1F9867" ></path>
      <path d="M14.8362745,9.23872549 L9.96715686,9.23872549 C9.46568627,9.23872549 9.05931373,9.64509804 9.05931373,10.1465686 L9.05931373,15.0151961 C9.05931373,15.5166667 9.46568627,15.9230392 9.96715686,15.9230392 L14.8362745,15.9230392 C15.3372549,15.9230392 15.7436275,15.5166667 15.7436275,15.0151961 L15.7436275,10.1465686 C15.7436275,9.64509804 15.3372549,9.23872549 14.8362745,9.23872549" id="Fill-2" fill="#1F9867" ></path>
      <path d="M12.6078431,0.325980392 L1.05441176,0.325980392 C0.552941176,0.325980392 0.146568627,0.732352941 0.146568627,1.23382353 L0.146568627,15.0151961 C0.146568627,15.5166667 0.552941176,15.9230392 1.05441176,15.9230392 L5.92352941,15.9230392 C6.4245098,15.9230392 6.83088235,15.5166667 6.83088235,15.0151961 L6.83088235,7.01029412 L12.6078431,7.01029412 C13.1093137,7.01029412 13.5156863,6.60392157 13.5156863,6.10294118 L13.5156863,1.23382353 C13.5156863,0.732352941 13.1093137,0.325980392 12.6078431,0.325980392"  fill="#1F9867" ></path>
      <path d="M23.7485294,0.325980392 L16.6514706,0.325980392 C16.15,0.325980392 15.7436275,0.732352941 15.7436275,1.23382353 L15.7436275,6.10294118 C15.7436275,6.60392157 16.15,7.01029412 16.6514706,7.01029412 L17.9720588,7.01029412 L17.9720588,23.9279412 C17.9720588,24.4294118 18.3784314,24.8357843 18.879902,24.8357843 L23.7485294,24.8357843 C24.25,24.8357843 24.6563725,24.4294118 24.6563725,23.9279412 L24.6563725,1.23382353 C24.6563725,0.732352941 24.25,0.325980392 23.7485294,0.325980392" fill="#369B6D" ></path>
    </g>
  </g>
</svg>