<?xml version="1.0" encoding="UTF-8" standalone="no"?>
<svg width="118px" height="11px" viewBox="0 0 118 11" version="1.1" xmlns="http://www.w3.org/2000/svg" xmlns:xlink="http://www.w3.org/1999/xlink">
  <title>ORCKESTRA CMS</title>
  <defs></defs>
  <g id="General-design" stroke="none" stroke-width="1" fill="none" fill-rule="evenodd">
    <path d="M0,5.208 C0,4.45199622 0.12599874,3.75666984 0.378,3.122 C0.63000126,2.48733016 0.97999776,1.93900231 1.428,1.477 C1.87600224,1.01499769 2.41499685,0.65333464 3.045,0.392 C3.67500315,0.13066536 4.36799622,0 5.124,0 C5.88000378,0 6.57299685,0.13066536 7.203,0.392 C7.83300315,0.65333464 8.37199776,1.01499769 8.82,1.477 C9.26800224,1.93900231 9.61799874,2.48733016 9.87,3.122 C10.1220013,3.75666984 10.248,4.45199622 10.248,5.208 C10.248,5.96400378 10.1220013,6.66166347 9.87,7.301 C9.61799874,7.94033653 9.26800224,8.49099769 8.82,8.953 C8.37199776,9.41500231 7.83300315,9.77433205 7.203,10.031 C6.57299685,10.2876679 5.88000378,10.416 5.124,10.416 C4.36799622,10.416 3.67500315,10.2876679 3.045,10.031 C2.41499685,9.77433205 1.87600224,9.41500231 1.428,8.953 C0.97999776,8.49099769 0.63000126,7.94033653 0.378,7.301 C0.12599874,6.66166347 0,5.96400378 0,5.208 L0,5.208 Z M0.924,5.208 C0.924,5.82400308 1.02199902,6.39799734 1.218,6.93 C1.41400098,7.46200266 1.69399818,7.92399804 2.058,8.316 C2.42200182,8.70800196 2.86299741,9.01599888 3.381,9.24 C3.89900259,9.46400112 4.47999678,9.576 5.124,9.576 C5.76800322,9.576 6.34899741,9.46400112 6.867,9.24 C7.38500259,9.01599888 7.82599818,8.70800196 8.19,8.316 C8.55400182,7.92399804 8.83399902,7.46200266 9.03,6.93 C9.22600098,6.39799734 9.324,5.82400308 9.324,5.208 C9.324,4.59199692 9.22600098,4.01800266 9.03,3.486 C8.83399902,2.95399734 8.55400182,2.49200196 8.19,2.1 C7.82599818,1.70799804 7.38500259,1.40000112 6.867,1.176 C6.34899741,0.95199888 5.76800322,0.84 5.124,0.84 C4.47999678,0.84 3.89900259,0.95199888 3.381,1.176 C2.86299741,1.40000112 2.42200182,1.70799804 2.058,2.1 C1.69399818,2.49200196 1.41400098,2.95399734 1.218,3.486 C1.02199902,4.01800266 0.924,4.59199692 0.924,5.208 L0.924,5.208 Z M11.97,0.252 L15.806,0.252 C16.3100025,0.252 16.7883311,0.30099951 17.241,0.399 C17.6936689,0.49700049 18.0903316,0.66033219 18.431,0.889 C18.7716684,1.11766781 19.0423323,1.42566473 19.243,1.813 C19.4436677,2.20033527 19.544,2.68333044 19.544,3.262 C19.544,3.9620035 19.3620018,4.55699755 18.998,5.047 C18.6339982,5.53700245 18.1020035,5.84733268 17.402,5.978 L19.922,10.164 L17.304,10.164 L15.232,6.202 L14.154,6.202 L14.154,10.164 L11.97,10.164 L11.97,0.252 Z M14.154,4.354 L15.442,4.354 C15.638001,4.354 15.8456656,4.34700007 16.065,4.333 C16.2843344,4.31899993 16.4826658,4.27700035 16.66,4.207 C16.8373342,4.13699965 16.9843327,4.02733408 17.101,3.878 C17.2176673,3.72866592 17.276,3.51866802 17.276,3.248 C17.276,2.99599874 17.2246672,2.79533408 17.122,2.646 C17.0193328,2.49666592 16.8886675,2.38233373 16.73,2.303 C16.5713325,2.22366627 16.3893344,2.17000014 16.184,2.142 C15.9786656,2.11399986 15.778001,2.1 15.582,2.1 L14.154,2.1 L14.154,4.354 Z M27.524,2.828 C27.3093323,2.56666536 27.0456682,2.3660007 26.733,2.226 C26.4203318,2.0859993 26.0586687,2.016 25.648,2.016 C25.2373313,2.016 24.8570017,2.09533254 24.507,2.254 C24.1569982,2.41266746 23.8536679,2.63433191 23.597,2.919 C23.340332,3.20366809 23.1396674,3.54199804 22.995,3.934 C22.8503326,4.32600196 22.778,4.75066438 22.778,5.208 C22.778,5.674669 22.8503326,6.10166473 22.995,6.489 C23.1396674,6.87633527 23.3379987,7.21233191 23.59,7.497 C23.8420013,7.78166809 24.1383316,8.00333254 24.479,8.162 C24.8196684,8.32066746 25.185998,8.4 25.578,8.4 C26.0260022,8.4 26.4226649,8.3066676 26.768,8.12 C27.1133351,7.9333324 27.3979989,7.67200168 27.622,7.336 L29.442,8.694 C29.0219979,9.28200294 28.4900032,9.7159986 27.846,9.996 C27.2019968,10.2760014 26.5393367,10.416 25.858,10.416 C25.0833295,10.416 24.3693366,10.2946679 23.716,10.052 C23.0626634,9.80933212 22.4980024,9.46166893 22.022,9.009 C21.5459976,8.55633107 21.1750013,8.00800322 20.909,7.364 C20.6429987,6.71999678 20.51,6.0013373 20.51,5.208 C20.51,4.4146627 20.6429987,3.69600322 20.909,3.052 C21.1750013,2.40799678 21.5459976,1.85966893 22.022,1.407 C22.4980024,0.95433107 23.0626634,0.60666788 23.716,0.364 C24.3693366,0.12133212 25.0833295,0 25.858,0 C26.1380014,0 26.4296651,0.02566641 26.733,0.077 C27.0363348,0.12833359 27.3349985,0.20999944 27.629,0.322 C27.9230015,0.43400056 28.205332,0.5833324 28.476,0.77 C28.746668,0.9566676 28.9893323,1.18533198 29.204,1.456 L27.524,2.828 Z M30.716,0.252 L32.9,0.252 L32.9,4.368 L36.75,0.252 L39.606,0.252 L35.196,4.858 L39.984,10.164 L36.932,10.164 L32.9,5.46 L32.9,10.164 L30.716,10.164 L30.716,0.252 Z M40.824,0.252 L47.558,0.252 L47.558,2.268 L43.008,2.268 L43.008,4.116 L47.306,4.116 L47.306,6.132 L43.008,6.132 L43.008,8.148 L47.81,8.148 L47.81,10.164 L40.824,10.164 L40.824,0.252 Z M54.46,2.674 C54.2826658,2.44999888 54.0423348,2.28433387 53.739,2.177 C53.4356651,2.06966613 53.148668,2.016 52.878,2.016 C52.7193325,2.016 52.5560008,2.03466648 52.388,2.072 C52.2199992,2.10933352 52.0613341,2.16766627 51.912,2.247 C51.7626659,2.32633373 51.6413338,2.43133268 51.548,2.562 C51.4546662,2.69266732 51.408,2.8513324 51.408,3.038 C51.408,3.33666816 51.5199989,3.56533254 51.744,3.724 C51.9680011,3.88266746 52.2503316,4.01799944 52.591,4.13 C52.9316684,4.24200056 53.297998,4.35399944 53.69,4.466 C54.082002,4.57800056 54.4483316,4.73666564 54.789,4.942 C55.1296684,5.14733436 55.4119989,5.42266494 55.636,5.768 C55.8600011,6.11333506 55.972,6.57533044 55.972,7.154 C55.972,7.70466942 55.8693344,8.18533128 55.664,8.596 C55.4586656,9.00666872 55.1810017,9.34733198 54.831,9.618 C54.4809982,9.88866802 54.0750023,10.0893327 53.613,10.22 C53.1509977,10.3506673 52.6633359,10.416 52.15,10.416 C51.5059968,10.416 50.9086694,10.318001 50.358,10.122 C49.8073306,9.92599902 49.2940024,9.60866886 48.818,9.17 L50.372,7.462 C50.5960011,7.76066816 50.8783316,7.99166585 51.219,8.155 C51.5596684,8.31833415 51.9119982,8.4 52.276,8.4 C52.4533342,8.4 52.6329991,8.37900021 52.815,8.337 C52.9970009,8.29499979 53.1603326,8.23200042 53.305,8.148 C53.4496674,8.06399958 53.5663329,7.95666732 53.655,7.826 C53.7436671,7.69533268 53.788,7.54133422 53.788,7.364 C53.788,7.06533184 53.6736678,6.82966753 53.445,6.657 C53.2163322,6.48433247 52.9293351,6.33733394 52.584,6.216 C52.2386649,6.09466606 51.8653353,5.97333394 51.464,5.852 C51.0626647,5.73066606 50.6893351,5.56733436 50.344,5.362 C49.9986649,5.15666564 49.7116678,4.88600168 49.483,4.55 C49.2543322,4.21399832 49.14,3.77066942 49.14,3.22 C49.14,2.68799734 49.2449989,2.22133534 49.455,1.82 C49.665001,1.41866466 49.9449982,1.08266802 50.295,0.812 C50.6450017,0.54133198 51.0486644,0.33833401 51.506,0.203 C51.9633356,0.06766599 52.4346642,0 52.92,0 C53.4800028,0 54.0213307,0.07933254 54.544,0.238 C55.0666693,0.39666746 55.5379979,0.6626648 55.958,1.036 L54.46,2.674 Z M59.514,2.184 L56.686,2.184 L56.686,0.252 L64.526,0.252 L64.526,2.184 L61.698,2.184 L61.698,10.164 L59.514,10.164 L59.514,2.184 Z M65.632,0.252 L69.468,0.252 C69.9720025,0.252 70.4503311,0.30099951 70.903,0.399 C71.3556689,0.49700049 71.7523316,0.66033219 72.093,0.889 C72.4336684,1.11766781 72.7043323,1.42566473 72.905,1.813 C73.1056677,2.20033527 73.206,2.68333044 73.206,3.262 C73.206,3.9620035 73.0240018,4.55699755 72.66,5.047 C72.2959982,5.53700245 71.7640035,5.84733268 71.064,5.978 L73.584,10.164 L70.966,10.164 L68.894,6.202 L67.816,6.202 L67.816,10.164 L65.632,10.164 L65.632,0.252 Z M67.816,4.354 L69.104,4.354 C69.300001,4.354 69.5076656,4.34700007 69.727,4.333 C69.9463344,4.31899993 70.1446658,4.27700035 70.322,4.207 C70.4993342,4.13699965 70.6463328,4.02733408 70.763,3.878 C70.8796673,3.72866592 70.938,3.51866802 70.938,3.248 C70.938,2.99599874 70.8866672,2.79533408 70.784,2.646 C70.6813328,2.49666592 70.5506675,2.38233373 70.392,2.303 C70.2333325,2.22366627 70.0513344,2.17000014 69.846,2.142 C69.6406656,2.11399986 69.440001,2.1 69.244,2.1 L67.816,2.1 L67.816,4.354 Z M77.966,0.252 L79.772,0.252 L84.084,10.164 L81.62,10.164 L80.766,8.064 L76.916,8.064 L76.09,10.164 L73.682,10.164 L77.966,0.252 Z M78.806,3.136 L77.602,6.216 L80.024,6.216 L78.806,3.136 Z M97.734,8.61 C97.2579976,9.25400322 96.7073365,9.7159986 96.082,9.996 C95.4566635,10.2760014 94.7800036,10.416 94.052,10.416 C93.2959962,10.416 92.6030031,10.2876679 91.973,10.031 C91.3429968,9.77433205 90.8040022,9.41500231 90.356,8.953 C89.9079978,8.49099769 89.5580013,7.94033653 89.306,7.301 C89.0539987,6.66166347 88.928,5.96400378 88.928,5.208 C88.928,4.45199622 89.0539987,3.75666984 89.306,3.122 C89.5580013,2.48733016 89.9079978,1.93900231 90.356,1.477 C90.8040022,1.01499769 91.3429968,0.65333464 91.973,0.392 C92.6030031,0.13066536 93.2959962,0 94.052,0 C94.7240034,0 95.3516637,0.11899881 95.935,0.357 C96.5183362,0.59500119 97.0293311,0.9939972 97.468,1.554 L96.712,2.184 C96.4039985,1.717331 96.0096691,1.37666774 95.529,1.162 C95.0483309,0.94733226 94.5560025,0.84 94.052,0.84 C93.4079968,0.84 92.8270026,0.95199888 92.309,1.176 C91.7909974,1.40000112 91.3500018,1.70799804 90.986,2.1 C90.6219982,2.49200196 90.342001,2.95399734 90.146,3.486 C89.949999,4.01800266 89.852,4.59199692 89.852,5.208 C89.852,5.82400308 89.949999,6.39799734 90.146,6.93 C90.342001,7.46200266 90.6219982,7.92399804 90.986,8.316 C91.3500018,8.70800196 91.7909974,9.01599888 92.309,9.24 C92.8270026,9.46400112 93.4079968,9.576 94.052,9.576 C94.3040013,9.576 94.565332,9.54566697 94.836,9.485 C95.106668,9.42433303 95.370332,9.33100063 95.627,9.205 C95.8836679,9.07899937 96.1286655,8.92033429 96.362,8.729 C96.5953345,8.53766571 96.8006658,8.30666802 96.978,8.036 L97.734,8.61 Z M99.33,0.252 L100.716,0.252 L104.328,8.568 L107.94,0.252 L109.256,0.252 L109.256,10.164 L108.332,10.164 L108.332,1.428 L108.304,1.428 L104.524,10.164 L104.118,10.164 L100.282,1.428 L100.254,1.428 L100.254,10.164 L99.33,10.164 L99.33,0.252 Z M112.14,8.33 C112.382668,8.7500021 112.697665,9.06266564 113.085,9.268 C113.472335,9.47333436 113.913331,9.576 114.408,9.576 C114.716002,9.576 115.005332,9.5293338 115.276,9.436 C115.546668,9.3426662 115.782332,9.21200084 115.983,9.044 C116.183668,8.87599916 116.342333,8.67300119 116.459,8.435 C116.575667,8.19699881 116.634,7.92866816 116.634,7.63 C116.634,7.28466494 116.561667,7.00000112 116.417,6.776 C116.272333,6.55199888 116.078668,6.36766739 115.836,6.223 C115.593332,6.07833261 115.320335,5.95466718 115.017,5.852 C114.713665,5.74933282 114.401002,5.64666718 114.079,5.544 C113.756998,5.44133282 113.444335,5.32466732 113.141,5.194 C112.837665,5.06333268 112.564668,4.89300105 112.322,4.683 C112.079332,4.47299895 111.885667,4.20933492 111.741,3.892 C111.596333,3.57466508 111.524,3.182669 111.524,2.716 C111.524,2.27733114 111.610332,1.88766837 111.783,1.547 C111.955668,1.20633163 112.188999,0.92166781 112.483,0.693 C112.777001,0.46433219 113.115331,0.29166725 113.498,0.175 C113.880669,0.05833275 114.281998,0 114.702,0 C115.243336,0 115.744998,0.09566571 116.207,0.287 C116.669002,0.47833429 117.067998,0.79799776 117.404,1.246 L116.606,1.82 C116.372666,1.4933317 116.099668,1.24833415 115.787,1.085 C115.474332,0.92166585 115.103335,0.84 114.674,0.84 C114.375332,0.84 114.090668,0.87966627 113.82,0.959 C113.549332,1.03833373 113.313668,1.15499923 113.113,1.309 C112.912332,1.46300077 112.751334,1.6566655 112.63,1.89 C112.508666,2.1233345 112.448,2.39866508 112.448,2.716 C112.448,3.21066914 112.573999,3.59099867 112.826,3.857 C113.078001,4.12300133 113.392998,4.33299923 113.771,4.487 C114.149002,4.64100077 114.559664,4.77633275 115.003,4.893 C115.446336,5.00966725 115.856998,5.16599902 116.235,5.362 C116.613002,5.55800098 116.927999,5.83099825 117.18,6.181 C117.432001,6.53100175 117.558,7.01399692 117.558,7.63 C117.558,8.07800224 117.474001,8.47466494 117.306,8.82 C117.137999,9.16533506 116.911668,9.45699881 116.627,9.695 C116.342332,9.93300119 116.013335,10.1126661 115.64,10.234 C115.266665,10.3553339 114.879335,10.416 114.478,10.416 C113.824663,10.416 113.222669,10.3016678 112.672,10.073 C112.121331,9.84433219 111.650002,9.45933604 111.258,8.918 L112.14,8.33 Z" id="ORCKESTRA-CMS-Copy" fill="#999999"></path>
  </g>
</svg>
