<svg width="18" height="18" xmlns="http://www.w3.org/2000/svg" viewBox="0 0 18 18">
    <g fill="#666" stroke="#666" >
      <g id="advanced" stroke-linejoin="round" fill="none">
        <g>
          <g>
            <path d="m13.5112,5c0,0.82901 -0.671997,1.5 -1.5,1.5c-0.828003,0 -1.5,-0.67099 -1.5,-1.5c0,-0.828003 0.671997,-1.5 1.5,-1.5c0.828003,0 1.5,0.671997 1.5,1.5l0,0z" />
            <path d="m15.5112,5c0,-0.278992 -0.036011,-0.549988 -0.097992,-0.809998l0.994995,-0.574005l-1,-1.731995l-0.959991,0.574997c-0.393005,-0.371994 -0.865997,-0.653 -1.365997,-0.811996l0,-1.147003l-2,0l0,1.147003c-0.5,0.158997 -1.044006,0.440002 -1.437012,0.811996l-1.014008,-0.574997l-1.009003,1.731995l0.990997,0.574005c-0.061981,0.26001 -0.099976,0.531006 -0.099976,0.809998c0,0.278992 0.034973,0.549011 0.096985,0.809998l-0.996002,0.574005l0.998993,1.731995l1.031006,-0.575012c0.393005,0.372009 0.938019,0.654022 1.438019,0.812012l0,1.147003l2,0l0,-1.147003c0.5,-0.15799 0.972992,-0.440002 1.366974,-0.812012l0.97702,0.575012l0.990997,-1.731995l-0.998993,-0.574005c0.061981,-0.26001 0.092987,-0.531006 0.092987,-0.809998l0,0z"/>
          </g>
        </g>
        <g >
          <g>
            <path d="m7.5112,13c0,0.82901 -0.671997,1.5 -1.5,1.5c-0.828003,0 -1.5,-0.67099 -1.5,-1.5c0,-0.828003 0.671997,-1.5 1.5,-1.5c0.828003,0 1.5,0.671997 1.5,1.5l0,0z" />
            <path d="m9.5112,13c0,-0.278992 -0.036011,-0.549988 -0.097992,-0.809998l0.994995,-0.574005l-1,-1.731995l-0.959991,0.574982c-0.393005,-0.371979 -0.865997,-0.652985 -1.365997,-0.811981l0,-1.147003l-2,0l0,1.147003c-0.5,0.158997 -1.044006,0.440002 -1.437012,0.811981l-1.014008,-0.574982l-1.009003,1.731995l0.990997,0.574005c-0.061981,0.26001 -0.099976,0.531006 -0.099976,0.809998c0,0.278992 0.034973,0.549011 0.096985,0.809998l-0.996002,0.574005l0.998993,1.731995l1.031006,-0.575012c0.393005,0.372009 0.938019,0.654022 1.438019,0.812012l0,1.147003l2,0l0,-1.147003c0.5,-0.15799 0.972992,-0.440002 1.366974,-0.812012l0.97702,0.575012l0.990997,-1.731995l-0.998993,-0.574005c0.061981,-0.26001 0.092987,-0.531006 0.092987,-0.809998l0,0z"/>
          </g>
        </g>
      </g>
    </g>

</svg>
