<?xml version="1.0" encoding="iso-8859-1"?>
<!-- Generator: Adobe Illustrator 18.1.1, SVG Export Plug-In . SVG Version: 6.00 Build 0)  -->
<svg version="1.1" id="Capa_1" xmlns="http://www.w3.org/2000/svg" xmlns:xlink="http://www.w3.org/1999/xlink" x="0px" y="0px"
	 viewBox="0 0 46.729 46.729" style="enable-background:new 0 0 46.729 46.729;" xml:space="preserve">
<g fill="#999" stroke="#999">
   <g id="blocks"  viewBox="0 0 46.729 46.729" stroke="none">
	<path   d="M13.729,28.602c-4.243,0-8.486,0-12.729,0c-0.545,0-1,0.455-1,1c0,2.508,0,5.017,0,7.525
		c0,0.545,0.455,1,1,1c4.243,0,8.486,0,12.729,0c0.276,0,0.48-0.104,0.638-0.247c0.022-0.017,0.044-0.03,0.065-0.049
		c0.021-0.021,0.035-0.047,0.053-0.071c0.142-0.157,0.244-0.359,0.244-0.633c0-2.509,0-5.018,0-7.525
		C14.729,29.057,14.274,28.602,13.729,28.602z M2,36.128c0-1.842,0-3.684,0-5.525c3.577,0,7.152,0,10.729,0c0,1.842,0,3.684,0,5.525
		C9.152,36.128,5.577,36.128,2,36.128z"/>
	<path   d="M8,28.128c4.243,0,8.486,0,12.729,0c0.276,0,0.48-0.104,0.638-0.247
		c0.022-0.017,0.044-0.03,0.065-0.049c0.021-0.021,0.035-0.047,0.053-0.071c0.142-0.157,0.244-0.359,0.244-0.633
		c0-2.509,0-5.018,0-7.526c0-0.545-0.455-1-1-1c-4.243,0-8.486,0-12.729,0c-0.545,0-1,0.455-1,1c0,2.508,0,5.017,0,7.526
		C7,27.673,7.455,28.128,8,28.128z M9,26.128c0-1.842,0-3.684,0-5.526c3.577,0,7.152,0,10.729,0c0,1.842,0,3.684,0,5.526
		C16.152,26.128,12.577,26.128,9,26.128z"/>
	<path   d="M23,19.602c0,2.508,0,5.017,0,7.526c0,0.545,0.455,1,1,1c4.244,0,8.486,0,12.729,0
		c0.276,0,0.48-0.104,0.639-0.247c0.021-0.017,0.044-0.03,0.064-0.049c0.021-0.021,0.035-0.047,0.054-0.071
		c0.142-0.157,0.243-0.359,0.243-0.633c0-2.509,0-5.018,0-7.526c0-0.545-0.455-1-1-1c-4.243,0-8.485,0-12.729,0
		C23.455,18.602,23,19.057,23,19.602z M25,26.128c0-1.842,0-3.684,0-5.526c3.577,0,7.153,0,10.729,0c0,1.842,0,3.684,0,5.526
		C32.153,26.128,28.577,26.128,25,26.128z"/>
	<path   d="M16,18.127c4.243,0,8.486,0,12.729,0c0.274,0,0.478-0.103,0.636-0.245
		c0.022-0.018,0.047-0.032,0.068-0.052c0.02-0.021,0.034-0.045,0.051-0.068c0.143-0.158,0.245-0.361,0.245-0.635
		c0-2.508,0-5.017,0-7.525c0-0.545-0.455-1-1-1c-4.243,0-8.486,0-12.729,0c-0.545,0-1,0.455-1,1c0,2.508,0,5.017,0,7.525
		C15,17.672,15.455,18.127,16,18.127z M17,16.127c0-1.842,0-3.684,0-5.525c3.577,0,7.153,0,10.729,0c0,1.842,0,3.684,0,5.525
		C24.153,16.127,20.577,16.127,17,16.127z"/>
	<path   d="M29.729,28.602c-4.243,0-8.486,0-12.729,0c-0.545,0-1,0.455-1,1c0,2.508,0,5.017,0,7.525
		c0,0.545,0.455,1,1,1c4.243,0,8.486,0,12.729,0c0.276,0,0.48-0.104,0.639-0.247c0.021-0.017,0.044-0.03,0.064-0.049
		c0.021-0.021,0.035-0.047,0.054-0.071c0.142-0.157,0.243-0.359,0.243-0.633c0-2.509,0-5.018,0-7.525
		C30.729,29.057,30.274,28.602,29.729,28.602z M18,36.128c0-1.842,0-3.684,0-5.525c3.577,0,7.153,0,10.729,0
		c0,1.842,0,3.684,0,5.525C25.153,36.128,21.577,36.128,18,36.128z"/>
	<path   d="M46.729,29.602c0-0.545-0.455-1-1-1c-4.243,0-8.485,0-12.729,0c-0.545,0-1,0.455-1,1
		c0,2.508,0,5.017,0,7.525c0,0.545,0.455,1,1,1c4.244,0,8.486,0,12.729,0c0.276,0,0.48-0.104,0.639-0.247
		c0.021-0.017,0.044-0.03,0.064-0.049c0.021-0.021,0.035-0.047,0.054-0.071c0.142-0.157,0.243-0.359,0.243-0.633
		C46.729,34.619,46.729,32.11,46.729,29.602z M34,36.128c0-1.842,0-3.684,0-5.525c3.577,0,7.153,0,10.729,0c0,1.842,0,3.684,0,5.525
		C41.153,36.128,37.577,36.128,34,36.128z"/>
</g>
</g>
 </svg>
