<?xml version="1.0" encoding="iso-8859-1"?>
<!-- Generator: Adobe Illustrator 16.0.0, SVG Export Plug-In . SVG Version: 6.00 Build 0)  -->
<!DOCTYPE svg PUBLIC "-//W3C//DTD SVG 1.1//EN" "http://www.w3.org/Graphics/SVG/1.1/DTD/svg11.dtd">
<svg version="1.1" id="Capa_1" xmlns="http://www.w3.org/2000/svg" xmlns:xlink="http://www.w3.org/1999/xlink" x="0px" y="0px"
	 width="31.466px" height="31.466px" viewBox="0 0 31.466 31.466" style="enable-background:new 0 0 31.466 31.466;"
	 xml:space="preserve">
<g fill="#999" stroke="#999">
	<g id="book-open" viewBox="0 0 31.466 31.466" stroke="none">
		<path d="M30.221,7.011V5.029l-0.285-0.112c-0.1-0.039-2.429-0.943-5.535-0.943c-3.328,0-6.194,1.014-8.527,3.014
			c-2.332-2-5.199-3.014-8.527-3.014c-3.107,0-5.436,0.904-5.533,0.943L1.526,5.029v1.836C0.586,7.041,0,7.356,0,7.87
			c0,2.676,0,18.918,0,18.918h13.934c0.482,0.431,1.187,0.703,1.975,0.703c0.789,0,1.493-0.272,1.975-0.703h13.582
			c0,0,0-17.979,0-18.918C31.465,7.452,30.99,7.179,30.221,7.011z M15.723,25.296c-1.156-0.479-5.14-1.992-9.13-1.992
			c-1.577,0-2.974,0.242-4.163,0.72V5.655c0.694-0.232,2.586-0.779,4.916-0.779c3.064,0,5.697,0.927,7.847,2.733v10.965l0.53-0.584
			V25.296z M29.316,24.029c-1.277-0.514-2.744-0.772-4.369-0.772c-3.988,0-7.783,1.528-8.926,2.03v-7.299l0.533,0.586V7.609
			c2.149-1.807,4.782-2.733,7.846-2.733c2.322,0,4.221,0.548,4.916,0.779V24.029z"/>
		<path d="M4.217,8.071l0.187,0.707c4.705-1.248,8.938,1.062,8.981,1.085l0.355-0.639C13.559,9.123,9.212,6.747,4.217,8.071z"/>
		<path d="M4.217,10.141l0.187,0.707c4.705-1.249,8.938,1.061,8.981,1.084l0.355-0.638C13.559,11.192,9.212,8.817,4.217,10.141z"/>
		<path d="M4.217,12.086l0.187,0.707c4.705-1.247,8.938,1.062,8.981,1.085l0.355-0.639C13.559,13.138,9.212,10.763,4.217,12.086z"/>
		<path d="M4.217,14.218l0.187,0.707c4.705-1.248,8.938,1.062,8.981,1.085l0.355-0.638C13.559,15.269,9.212,12.893,4.217,14.218z"/>
		<path d="M4.217,16.193L4.404,16.9c4.705-1.247,8.938,1.062,8.981,1.086l0.355-0.64C13.559,17.246,9.212,14.87,4.217,16.193z"/>
		<path d="M4.217,18.222l0.187,0.707c4.705-1.248,8.938,1.061,8.981,1.084l0.355-0.639C13.559,19.273,9.212,16.899,4.217,18.222z"/>
		<path d="M4.217,20.257l0.187,0.706c4.705-1.248,8.938,1.062,8.981,1.085l0.355-0.637C13.559,21.308,9.212,18.932,4.217,20.257z"/>
		<path d="M18.578,9.917c0.043-0.023,4.275-2.332,8.98-1.085l0.188-0.707c-4.996-1.323-9.342,1.053-9.523,1.154L18.578,9.917z"/>
		<path d="M18.223,11.349l0.355,0.638c0.043-0.023,4.275-2.333,8.98-1.084l0.188-0.708C22.75,8.871,18.404,11.246,18.223,11.349z"/>
		<path d="M18.223,13.293l0.355,0.639c0.043-0.024,4.275-2.333,8.98-1.086l0.188-0.707C22.75,10.817,18.404,13.192,18.223,13.293z"
			/>
		<path d="M18.223,15.426l0.355,0.638c0.043-0.023,4.275-2.332,8.98-1.084l0.188-0.707C22.75,12.947,18.404,15.323,18.223,15.426z"
			/>
		<path d="M18.223,17.401l0.355,0.64c0.043-0.023,4.275-2.333,8.98-1.086l0.188-0.707C22.75,14.925,18.404,17.299,18.223,17.401z"/>
		<path d="M18.223,19.43l0.355,0.638c0.043-0.023,4.275-2.332,8.98-1.084l0.188-0.707C22.75,16.953,18.404,19.328,18.223,19.43z"/>
		<path d="M18.223,21.464l0.355,0.637c0.043-0.021,4.275-2.333,8.98-1.084l0.188-0.707C22.75,18.986,18.404,21.363,18.223,21.464z"
			/>
	</g>
</g>

</svg>
