<?xml version="1.0" encoding="iso-8859-1"?>
<!-- Generator: Adobe Illustrator 16.0.0, SVG Export Plug-In . SVG Version: 6.00 Build 0)  -->
<!DOCTYPE svg PUBLIC "-//W3C//DTD SVG 1.1//EN" "http://www.w3.org/Graphics/SVG/1.1/DTD/svg11.dtd">
<svg version="1.1" id="Capa_1" xmlns="http://www.w3.org/2000/svg" xmlns:xlink="http://www.w3.org/1999/xlink" x="0px" y="0px"
	 width="795.035px" height="795.035px" viewBox="0 0 795.035 795.035" style="enable-background:new 0 0 795.035 795.035;"
	 xml:space="preserve">
<g id="books" viewBox="0 0 795.035 795.035" stroke="none">
	<path d="M0,647.589c0,49.892,40.588,90.479,90.479,90.479h20.108h552.079h40.211h41.895v-40.212h-41.895V597.322h41.895v-17.594
		h20.104h30.16v-40.212h-30.16V438.989h30.16v-40.211h-30.16h-2.513v-13.395v-20.107v-0.863l-49.647-92.992h52.161v-54.073
		L633.665,56.968H170.738L51.356,245.075c-20.417,16.612-33.76,41.625-33.76,69.935c0,49.581,40.114,89.89,89.593,90.383
		c-33.291,13.372-56.922,45.847-56.922,83.864c0,27.604,12.688,52.046,32.242,68.656C36.395,562.022,0,600.426,0,647.589z
		 M57.806,315.01c0-18.75,10.429-34.946,25.686-43.586h599.278v93.854H108.074C80.359,365.276,57.806,342.72,57.806,315.01z
		 M140.747,438.991h20.106h563.809v100.526H160.853h-20.106c-27.715,0-50.268-22.541-50.268-50.26
		C90.48,461.53,113.032,438.991,140.747,438.991z M90.48,597.322h20.108h552.079v100.533h-552.08H90.479
		c-27.713,0-50.265-22.541-50.265-50.267C40.214,619.862,62.767,597.322,90.48,597.322z"/>
</g>

</svg>
