<?xml version="1.0" encoding="UTF-8" standalone="no"?>
<svg width="34px" height="34px" viewBox="0 0 34 34" version="1.1" xmlns="http://www.w3.org/2000/svg" xmlns:xlink="http://www.w3.org/1999/xlink" xmlns:sketch="http://www.bohemiancoding.com/sketch/ns">
  <g id="company-composite" viewBox="0 0 34 34" stroke="none">
    <g stroke="none" stroke-width="1" fill="none" fill-rule="evenodd">
      <circle cx="16.981908" cy="16.981908" r="16.981908" fill="#22B980"></circle>
      <g  transform="translate(8.000000, 8.000000)" fill="#FFFFFF">
        <path d="M9.44775,0.0549642857 L0.810892857,0.0549642857 C0.436321429,0.0549642857 0.132321429,0.358285714 0.132321429,0.732857143 L0.132321429,5.05128571 L9.44775,5.05128571 C9.82232143,5.05128571 10.1263214,4.74728571 10.1263214,4.37271429 L10.1263214,0.732857143 C10.1263214,0.358285714 9.82232143,0.0549642857 9.44775,0.0549642857" opacity="0.75"></path>
        <path d="M11.1129643,13.3793929 L0.810892857,13.3793929 C0.436321429,13.3793929 0.132321429,13.6833929 0.132321429,14.0579643 L0.132321429,17.6978214 C0.132321429,18.0723929 0.436321429,18.3757143 0.810892857,18.3757143 L11.1129643,18.3757143 C11.4875357,18.3757143 11.7915357,18.0723929 11.7915357,17.6978214 L11.7915357,14.0579643 C11.7915357,13.6833929 11.4875357,13.3793929 11.1129643,13.3793929"  opacity="0.75"></path>
        <path d="M11.1129643,6.71717857 L7.47310714,6.71717857 C7.09853571,6.71717857 6.79453571,7.0205 6.79453571,7.39575 L6.79453571,11.0349286 C6.79453571,11.4101786 7.09853571,11.7135 7.47310714,11.7135 L11.1129643,11.7135 C11.4875357,11.7135 11.7915357,11.4101786 11.7915357,11.0349286 L11.7915357,7.39575 C11.7915357,7.0205 11.4875357,6.71717857 11.1129643,6.71717857"  opacity="0.35"></path>
        <path d="M5.12932143,5.05128571 L0.132321429,5.05128571 L0.132321429,11.0349286 C0.132321429,11.4101786 0.436321429,11.7135 0.810892857,11.7135 L4.45075,11.7135 C4.82532143,11.7135 5.12932143,11.4101786 5.12932143,11.0349286 L5.12932143,5.05128571"  opacity="0.75"></path>
        <path d="M18.45375,5.05128571 L13.4574286,5.05128571 L13.4574286,17.6978214 C13.4574286,18.0723929 13.76075,18.3757143 14.136,18.3757143 L17.7751786,18.3757143 C18.1504286,18.3757143 18.45375,18.0723929 18.45375,17.6978214 L18.45375,5.05128571"  opacity="0.95"></path>
        <path d="M17.7751786,0.0549642857 L12.4701071,0.0549642857 C12.0955357,0.0549642857 11.7915357,0.358285714 11.7915357,0.732857143 L11.7915357,4.37271429 C11.7915357,4.74728571 12.0955357,5.05128571 12.4701071,5.05128571 L18.45375,5.05128571 L18.45375,0.732857143 C18.45375,0.358285714 18.1504286,0.0549642857 17.7751786,0.0549642857"  opacity="0.95"></path>
      </g>

    </g>
  </g>
</svg>