<?xml version="1.0" encoding="iso-8859-1"?>
<!-- Generator: Adobe Illustrator 18.0.0, SVG Export Plug-In . SVG Version: 6.00 Build 0)  -->
<!DOCTYPE svg PUBLIC "-//W3C//DTD SVG 1.1//EN" "http://www.w3.org/Graphics/SVG/1.1/DTD/svg11.dtd">
<svg version="1.1" id="Capa_1" xmlns="http://www.w3.org/2000/svg" xmlns:xlink="http://www.w3.org/1999/xlink" x="0px" y="0px"
	 viewBox="0 0 270.002 270.002" style="enable-background:new 0 0 270.002 270.002;" xml:space="preserve">
<g id="company-apple" viewBox="0 0 270.002 270.002"  stroke="none">
	<path d="M236.505,194.317c-0.073-0.035-0.225-0.101-0.299-0.132c-3-1.254-29.315-13.191-29.608-45.657
		c-0.245-25.589,18.186-39.334,23.841-42.938c0.155-0.099,0.266-0.17,0.328-0.213c2.285-1.544,2.888-4.646,1.349-6.934
		c-15.406-22.9-38.891-26.375-48.444-26.793c-1.395-0.14-2.832-0.211-4.272-0.211c-11.193,0-21.656,4.206-30.063,7.585
		c-5.126,2.061-9.969,4.007-12.748,4.007c-3.202,0-8.084-1.975-13.252-4.065c-7.843-3.173-16.733-6.77-26.421-6.77
		c-0.235,0-0.471,0.002-0.694,0.007c-22.237,0.353-43.225,13.264-54.772,33.689c-21.553,38.059-8.004,95.63,15.685,130.475
		c9.098,13.394,22.846,33.634,41.808,33.634c0.348,0,0.697-0.007,1.055-0.021c8.12-0.326,13.836-2.804,19.364-5.2
		c5.893-2.555,11.46-4.968,20.432-4.968c8.523,0,13.818,2.332,19.424,4.801c5.669,2.497,11.53,5.079,20.179,5.079
		c0.263,0,0.526-0.003,0.8-0.008c19.671-0.383,31.715-18.323,41.391-32.736c10.436-15.522,15.687-30.609,17.46-36.375l0.052-0.17
		C239.892,198.012,238.78,195.402,236.505,194.317z"/>
	<path d="M134.252,67.249c0.943,0.075,1.906,0.112,2.863,0.112c0.001,0,0,0,0.001,0c13.404,0,27.821-7.482,37.629-19.532
		c10.209-12.603,15.364-28.813,13.79-43.365c-0.284-2.616-2.536-4.587-5.177-4.458c-13.6,0.56-29.877,9.028-39.57,20.577
		c-8.207,9.693-16.221,25.901-14.1,42.322C129.991,65.25,131.895,67.063,134.252,67.249z"/>
</g>

</svg>
