<?xml version="1.0" encoding="iso-8859-1"?>
<!-- Generator: Adobe Illustrator 18.0.0, SVG Export Plug-In . SVG Version: 6.00 Build 0)  -->
<!DOCTYPE svg PUBLIC "-//W3C//DTD SVG 1.1//EN" "http://www.w3.org/Graphics/SVG/1.1/DTD/svg11.dtd">
<svg version="1.1" id="Capa_1" xmlns="http://www.w3.org/2000/svg" xmlns:xlink="http://www.w3.org/1999/xlink" x="0px" y="0px"
	 viewBox="0 0 372.465 372.465" style="enable-background:new 0 0 372.465 372.465;" xml:space="preserve">
<g fill="#999" stroke="#999">
	<g id="confirmaction-defaulticon" viewBox="0 0 372.465 372.465" stroke="none" >
		<g>
			<g>
				<path d="M186.234,272.57c-13.736,0-24.91-11.176-24.91-24.912c0-13.899,11.174-25.207,24.91-25.207
					c14.137,0,25.211,11.072,25.211,25.207C211.445,261.395,200.135,272.57,186.234,272.57z M186.234,237.451
					c-5.557,0-9.91,4.483-9.91,10.207c0,5.466,4.445,9.912,9.91,9.912c5.725,0,10.211-4.354,10.211-9.912
					C196.445,241.935,191.959,237.451,186.234,237.451z M186.234,214.039c-13.736,0-24.91-11.173-24.91-24.906
					c0-6.984,1.516-42.593,31.43-57.722c9.893-4.943,12.395-7.67,12.395-21.224c0-10.263-8.484-18.611-18.914-18.611
					c-10.264,0-18.613,8.349-18.613,18.611c0,13.901-11.309,25.211-25.209,25.211c-13.736,0-24.912-11.31-24.912-25.211
					c0-37.898,30.834-68.73,68.734-68.73c37.898,0,68.732,30.832,68.732,68.73c0,31.958-12.295,52.357-39.865,66.142
					c-2.629,1.426-3.656,8.201-3.656,12.804C211.445,202.866,200.135,214.039,186.234,214.039z M186.234,76.576
					c18.699,0,33.914,15.078,33.914,33.611c0,20.545-6.957,27.779-20.658,34.625c-22.516,11.388-23.166,40.983-23.166,44.32
					c0,5.462,4.445,9.906,9.91,9.906c5.725,0,10.211-4.352,10.211-9.906c0-0.202,0.324-20.407,11.947-26.22
					c22.426-11.213,31.574-26.488,31.574-52.726c0-29.627-24.105-53.73-53.732-53.73c-29.629,0-53.734,24.104-53.734,53.73
					c0,5.535,4.539,10.211,9.912,10.211c5.629,0,10.209-4.581,10.209-10.211C152.621,91.654,167.699,76.576,186.234,76.576z"/>
			</g>
		</g>
		<path d="M307.77,0H64.693C45.832,0,30.486,15.346,30.486,34.209v242.787c0,18.863,15.346,34.209,34.207,34.209h11.355
			L55.09,362.109c-1.188,2.885-0.465,6.204,1.814,8.335c1.422,1.327,3.262,2.021,5.123,2.021c1.127,0,2.262-0.254,3.316-0.773
			l122.637-60.486H307.77c18.863,0,34.209-15.346,34.209-34.209V34.209C341.978,15.346,326.633,0,307.77,0z M326.978,276.996
			c0,10.592-8.617,19.209-19.209,19.209H186.23c-2.025,0-3.267,0.749-3.316,0.773L76.523,349.451l17.625-42.805
			c0.008-0.019,0.598-1.557,0.6-2.941c0.006-4.143-3.357-7.5-7.5-7.5H64.693c-10.59,0-19.207-8.617-19.207-19.209V34.209
			C45.486,23.617,54.104,15,64.693,15H307.77c10.592,0,19.209,8.617,19.209,19.209V276.996z"/>
	</g>
</g>
</svg>
