<?xml version="1.0" encoding="UTF-8" standalone="no"?>
<svg width="18px" height="18px" viewBox="0 0 18 18" version="1.1"
     xmlns="http://www.w3.org/2000/svg" xmlns:xlink="http://www.w3.org/1999/xlink"
     xmlns:sketch="http://www.bohemiancoding.com/sketch/ns"
     style="border: solid 1px #ccc"
     >
  <!-- Generator: Sketch 3.3.2 (12043) - http://www.bohemiancoding.com/sketch -->
  <title>crop</title>
  <desc>Created with Sketch.</desc>
  <defs></defs>
  <g fill="#666" stroke="#666">

    <g id="crop"  viewBox="0 0 18 18">
      <g  fill="none" stroke-linecap="round" stroke-linejoin="round">
          <path d="M14.5018921,11.5259399 L14.5018921,2.54028316 L5.49621582,2.5402832 L5.49621582,0.553100583 L2.46588135,0.553100583 L2.46588135,2.54028322 L0.529418947,2.5402832 L0.529418947,5.5090332 L2.46588135,5.50903322 L2.46588135,14.5290527 L11.5026855,14.5290527 L11.5026855,16.4923096 L14.5018921,16.4923096 L14.5018921,14.5290527 L16.5195313,14.5290527 L16.5195313,11.5259399 L14.5018921,11.5259399 Z" id="Stroke-668"  ></path>
          <path d="M5.67407226,11.3238526 L11.3812255,5.64611818" id="Stroke-669"  ></path>
          <path d="M14.4614258,2.52807612 L16.5009155,0.515869138" id="Stroke-670"  ></path>
          <path d="M2.35510255,2.53076171 L6.6013794,2.53076171" id="Stroke-671"  ></path>
          <path d="M2.68701172,5.50732417 L5.37817383,5.50732417" id="Stroke-672"  ></path>
          <path d="M11.6188355,11.5219726 L14.3928833,11.5219726" id="Stroke-673"  ></path>
          <path d="M11.538269,14.5297852 L14.3482056,14.5297852" id="Stroke-674"  ></path>
          <path d="M5.53967285,5.49438478 L11.4885254,5.49438478 L11.4885254,11.5124512 L5.53967285,11.5124512 L5.53967285,5.49438478 Z" id="Path"  ></path>
      </g>
    </g>
  </g>
</svg>