<?xml version="1.0" encoding="utf-8"?>
<!-- Generated by IcoMoon.io -->
<!DOCTYPE svg PUBLIC "-//W3C//DTD SVG 1.1//EN" "http://www.w3.org/Graphics/SVG/1.1/DTD/svg11.dtd"[]>
<svg xmlns="http://www.w3.org/2000/svg">
  <g fill="#000">
    <g id="crop" viewBox="0 0 20 20">
      <path d="M19.5 15h-3c-0.276 0-0.5-0.224-0.5-0.5s0.224-0.5 0.5-0.5h3c0.276 0 0.5 0.224 0.5 0.5s-0.224 0.5-0.5 0.5z" stroke="none"></path>
      <path d="M12.5 15h-7c-0.276 0-0.5-0.224-0.5-0.5v-7c0-0.276 0.224-0.5 0.5-0.5s0.5 0.224 0.5 0.5v6.5h6.5c0.276 0 0.5 0.224 0.5 0.5s-0.224 0.5-0.5 0.5z" stroke="none"></path>
      <path d="M5.5 4c-0.276 0-0.5-0.224-0.5-0.5v-3c0-0.276 0.224-0.5 0.5-0.5s0.5 0.224 0.5 0.5v3c0 0.276-0.224 0.5-0.5 0.5z" stroke="none"></path>
      <path d="M14.5 20c-0.276 0-0.5-0.224-0.5-0.5v-13.5h-13.5c-0.276 0-0.5-0.224-0.5-0.5s0.224-0.5 0.5-0.5h14c0.276 0 0.5 0.224 0.5 0.5v14c0 0.276-0.224 0.5-0.5 0.5z" stroke="none"></path>
    </g>
  </g>
</svg>