<?xml version="1.0" encoding="iso-8859-1"?>
<!-- Generator: Adobe Illustrator 16.0.0, SVG Export Plug-In . SVG Version: 6.00 Build 0)  -->
<!DOCTYPE svg PUBLIC "-//W3C//DTD SVG 1.1//EN" "http://www.w3.org/Graphics/SVG/1.1/DTD/svg11.dtd">
<svg version="1.1" id="Capa_1" xmlns="http://www.w3.org/2000/svg" xmlns:xlink="http://www.w3.org/1999/xlink" x="0px" y="0px"
	 width="380.621px" height="380.62px" viewBox="0 0 380.621 380.62" style="enable-background:new 0 0 380.621 380.62;"
	 xml:space="preserve">
<g>
	<g id="cut" viewBox="0 0 380.621 380.62">
		<path d="M380.621,106.955l-9.716-0.607c0,0-77.068,24.417-134.193,42.832c-4.285,12.792-8.186,24.347-11.303,33.432
			L380.621,106.955z"/>
		<path d="M176.604,169.089c-47.83,15.245-95.35-5.838-98.742-7.392c-14.159-8.863-33.519-9.365-50.142-0.525
			c-11.537,6.119-20.3,15.869-24.714,27.43c-4.531,11.899-3.924,24.3,1.71,34.891c1.816,3.422,4.11,6.551,6.825,9.318
			c14.147,14.363,37.88,17.049,57.697,6.516c0.07-0.034,0.14-0.093,0.228-0.14c-0.099,0.187-0.146,0.28-0.146,0.28l123.246-60.207
			l0.07,0.029l-4.671-14.217C181.625,167.197,177.538,168.634,176.604,169.089z M62.519,226.669
			c-14.252,7.59-31.032,5.979-40.765-3.924c-1.733-1.763-3.217-3.771-4.373-5.979c-3.672-6.89-4.005-15.087-0.969-23.074
			c3.17-8.32,9.563-15.373,18.029-19.869c14.27-7.573,31.021-5.967,40.753,3.917c1.746,1.775,3.217,3.784,4.385,5.979
			c3.661,6.901,4.011,15.086,0.981,23.074C77.395,215.108,70.984,222.162,62.519,226.669z"/>
		<path d="M215.424,353.342c9.54-16.803,9.342-36.631,0.257-51.134c-2.148-5.22-20.242-51.577-4.052-97.913
			c3.608-7.006,65.182-194.301,65.182-194.301l-0.748-9.23l-82.265,162.668l8.081,24.633l-62.046,119.34
			c-0.467,0.76-0.969,1.494-1.407,2.254c-11.204,19.746-9.044,43.684,5.261,58.21l0,0c2.592,2.64,5.547,4.905,8.764,6.726
			c10.439,5.933,22.8,6.879,34.833,2.687C198.989,373.217,208.979,364.716,215.424,353.342z M204.763,171.214
			c-2.931-2.978-2.884-7.748,0.082-10.69c2.978-2.925,7.765-2.89,10.696,0.087c2.931,2.978,2.896,7.76-0.082,10.69
			C212.482,174.227,207.694,174.192,204.763,171.214z M182.583,363.758c-8.069,2.803-16.249,2.242-23.045-1.611
			c-2.055-1.18-3.953-2.639-5.616-4.32c-9.833-9.996-11.076-26.881-3.013-41.092c4.734-8.326,11.957-14.538,20.376-17.469
			c8.058-2.814,16.237-2.254,23.027,1.623c2.067,1.18,3.971,2.615,5.634,4.309c9.827,9.984,11.076,26.881,3.013,41.092
			C198.212,354.615,190.978,360.815,182.583,363.758z"/>
	</g>
</g>
</svg>
