<?xml version="1.0" encoding="UTF-8" standalone="no"?>
<svg width="17px" height="17px" viewBox="0 0 17 17" version="1.1" xmlns="http://www.w3.org/2000/svg" xmlns:xlink="http://www.w3.org/1999/xlink" xmlns:sketch="http://www.bohemiancoding.com/sketch/ns">
  <g stroke="#999" fill="#999">
    <g id="data-awaiting-approval" viewBox="0 0 17 17" stroke-width="1" fill-rule="evenodd" stroke="#FCAC5E" fill="#FCAC5E">
      <circle id="Oval-1"  fill="#FFFFFF" cx="8.5" cy="8.5" r="8.5"></circle>
      <circle id="Oval-1-Copy" fill="#FFFFFF" cx="8.5" cy="8.5" r="2.5"></circle>
      <circle id="Oval-1-Copy-2" cx="8.5" cy="8.5" r="0.5"></circle>
      <path d="M14.438525,7.54955833 C14.04115,5.051975 12.1074,3.05801667 9.62681667,2.58839167 L9.75785833,1.89280833 C12.5316917,2.41768333 14.693525,4.6461 15.13765,7.43905833 L14.438525,7.54955833 Z" id="Fill-2541-Copy"  stroke="none"></path>
      <path d="M13.0408417,7.77296667 C12.737675,5.86400833 11.258675,4.33896667 9.36105,3.97984167 L9.49350833,3.28355 C11.6829667,3.69863333 13.39005,5.457425 13.7399667,7.66246667 L13.0408417,7.77296667 Z" id="Fill-2542-Copy-2"  stroke="none"></path>
      <path d="M11.6435833,7.99708333 C11.4332083,6.674625 10.4096667,5.61920833 9.09641667,5.37058333 L9.22816667,4.675 C10.8339583,4.97816667 12.0855833,6.26875 12.3427083,7.88516667 L11.6435833,7.99708333 Z" id="Fill-2543-Copy-2"  stroke="none"></path>
      <path d="M7.24171667,15.1074042 C4.46788333,14.5825292 2.30605,12.3534042 1.861925,9.56115417 L2.56175833,9.45065417 C2.95913333,11.9482375 4.89288333,13.9414875 7.37346667,14.4118208 L7.24171667,15.1074042 Z" id="Fill-2544-Copy"  stroke="none"></path>
      <path d="M7.50635,13.7163792 C5.31618333,13.3012958 3.60980833,11.5425042 3.25918333,9.3374625 L3.95901667,9.2269625 C4.26218333,11.1359208 5.74118333,12.6609625 7.6381,13.0207958 L7.50635,13.7163792 Z" id="Fill-2545-Copy-2"  stroke="none"></path>
      <path d="M7.771975,12.3252833 C6.165475,12.0214083 4.91385,10.730825 4.65743333,9.11440833 L5.35655833,9.00390833 C5.56693333,10.3256583 6.590475,11.381075 7.903725,11.6297 L7.771975,12.3252833 Z" id="Fill-2546-Copy-2"  stroke="none"></path>
    </g>
  </g>
</svg>