<?xml version="1.0" ?>
<!DOCTYPE svg  PUBLIC '-//W3C//DTD SVG 1.1//EN'  'http://www.w3.org/Graphics/SVG/1.1/DTD/svg11.dtd'>
<svg enable-background="new 0 0 32 32" height="32px" id="Layer_1" version="1.1" viewBox="0 0 32 32" width="32px" xml:space="preserve" xmlns="http://www.w3.org/2000/svg" xmlns:xlink="http://www.w3.org/1999/xlink">
  <g fill="#666" stroke="#666">
  <g id="data-draft" viewBox="0 0 32 32" stroke="none" fill="#E84C4B">
    <path clip-rule="evenodd" d="M21.951,1.15c-8.202-3.284-17.515,0.702-20.8,8.905   c-3.286,8.204,0.702,17.518,8.905,20.802c8.203,3.285,17.516-0.702,20.801-8.905C34.143,13.748,30.154,4.436,21.951,1.15z    M10.8,29.001C3.634,26.131,0.138,17.967,3.007,10.8c2.87-7.166,11.035-10.663,18.202-7.792c7.166,2.869,10.662,11.034,7.793,18.2   C26.131,28.375,17.967,31.87,10.8,29.001z"   fill-rule="evenodd"/>
    <path clip-rule="evenodd" d="M16.749,14.147c-1.025-0.411-2.19,0.088-2.601,1.113   s0.088,2.189,1.112,2.6c1.025,0.411,2.191-0.088,2.601-1.112C18.271,15.723,17.773,14.559,16.749,14.147z M15.632,16.933   c-0.512-0.206-0.761-0.788-0.557-1.301c0.206-0.512,0.789-0.761,1.301-0.557c0.511,0.205,0.76,0.788,0.556,1.301   C16.727,16.888,16.144,17.137,15.632,16.933z"   fill-rule="evenodd"/><path clip-rule="evenodd" d="M18.234,10.435c-3.076-1.232-6.568,0.264-7.8,3.339   c-1.232,3.076,0.264,6.568,3.339,7.8c3.076,1.232,6.568-0.263,7.8-3.339S21.311,11.666,18.234,10.435z M14.518,19.717   c-2.048-0.819-3.046-3.153-2.227-5.2c0.82-2.047,3.152-3.046,5.199-2.227c2.049,0.82,3.047,3.154,2.229,5.201   C18.898,19.538,16.565,20.538,14.518,19.717z"   fill-rule="evenodd"/>
    <path clip-rule="evenodd" d="M23.432,18.978c0.102-0.256-0.023-0.547-0.279-0.649   c-0.256-0.104-0.547,0.021-0.65,0.278v-0.001c-0.719,1.796-2.098,3.129-3.744,3.834c-0.252,0.108-0.371,0.402-0.262,0.655   c0.109,0.255,0.402,0.372,0.656,0.264c0.01-0.004,0.014-0.012,0.021-0.015c1.873-0.81,3.439-2.327,4.256-4.366H23.432z"   fill-rule="evenodd"/><path clip-rule="evenodd" d="M26.865,19.814c-0.256-0.103-0.547,0.022-0.65,0.278   c-1.129,2.82-3.295,4.915-5.883,6.023c-0.252,0.108-0.371,0.402-0.262,0.656c0.109,0.255,0.402,0.371,0.656,0.263   c0.012-0.006,0.021-0.017,0.033-0.022c2.809-1.213,5.16-3.49,6.385-6.548C27.246,20.208,27.121,19.917,26.865,19.814z"   fill-rule="evenodd"/>
    <path clip-rule="evenodd" d="M25.008,19.071c-0.256-0.103-0.547,0.021-0.65,0.278   c-0.922,2.308-2.693,4.021-4.812,4.928h0.002c-0.254,0.109-0.373,0.403-0.264,0.657s0.402,0.371,0.656,0.263   c0.01-0.005,0.016-0.014,0.027-0.02c2.34-1.011,4.299-2.907,5.32-5.456C25.389,19.465,25.264,19.174,25.008,19.071z"   fill-rule="evenodd"/><path clip-rule="evenodd" d="M13.513,8.912c-0.109-0.255-0.403-0.371-0.657-0.262   c-0.009,0.003-0.014,0.011-0.021,0.014c-1.873,0.81-3.44,2.328-4.256,4.366H8.578C8.475,13.287,8.6,13.577,8.856,13.68   c0.257,0.103,0.548-0.022,0.65-0.278h0.001c0.718-1.794,2.097-3.128,3.743-3.832C13.504,9.46,13.622,9.167,13.513,8.912z"   fill-rule="evenodd"/>
    <path clip-rule="evenodd" d="M11.938,5.235c-0.109-0.254-0.403-0.371-0.657-0.263   c-0.012,0.005-0.021,0.016-0.031,0.021c-2.81,1.214-5.16,3.49-6.385,6.548c-0.104,0.258,0.021,0.549,0.278,0.651   c0.256,0.103,0.547-0.021,0.65-0.278C6.923,9.095,9.088,7,11.676,5.892C11.929,5.782,12.047,5.489,11.938,5.235z"   fill-rule="evenodd"/>
    <path clip-rule="evenodd" d="M12.463,7.729c0.253-0.108,0.372-0.401,0.263-0.656   c-0.109-0.253-0.403-0.371-0.657-0.262c-0.01,0.004-0.016,0.014-0.026,0.018c-2.341,1.012-4.3,2.91-5.32,5.458   C6.619,12.544,6.745,12.834,7,12.938c0.256,0.102,0.547-0.021,0.65-0.278c0.923-2.308,2.695-4.022,4.812-4.928V7.729z"   fill-rule="evenodd"/>
  </g>
  </g>
</svg>