<?xml version="1.0" encoding="utf-8"?>
<!-- Generated by IcoMoon.io -->
<!DOCTYPE svg PUBLIC "-//W3C//DTD SVG 1.1//EN" "http://www.w3.org/Graphics/SVG/1.1/DTD/svg11.dtd"[]>
<svg xmlns="http://www.w3.org/2000/svg">
  <g fill="#000">
    <g id="dice" viewBox="0 0 20 20">
      <path d="M5.5 16c-0.827 0-1.5-0.673-1.5-1.5s0.673-1.5 1.5-1.5 1.5 0.673 1.5 1.5-0.673 1.5-1.5 1.5zM5.5 14c-0.276 0-0.5 0.224-0.5 0.5s0.224 0.5 0.5 0.5 0.5-0.224 0.5-0.5-0.224-0.5-0.5-0.5z" stroke="none"></path>
      <path d="M5.5 12c-0.827 0-1.5-0.673-1.5-1.5s0.673-1.5 1.5-1.5 1.5 0.673 1.5 1.5-0.673 1.5-1.5 1.5zM5.5 10c-0.276 0-0.5 0.224-0.5 0.5s0.224 0.5 0.5 0.5 0.5-0.224 0.5-0.5-0.224-0.5-0.5-0.5z" stroke="none"></path>
      <path d="M5.5 8c-0.827 0-1.5-0.673-1.5-1.5s0.673-1.5 1.5-1.5 1.5 0.673 1.5 1.5-0.673 1.5-1.5 1.5zM5.5 6c-0.276 0-0.5 0.224-0.5 0.5s0.224 0.5 0.5 0.5 0.5-0.224 0.5-0.5-0.224-0.5-0.5-0.5z" stroke="none"></path>
      <path d="M13.5 8c-0.827 0-1.5-0.673-1.5-1.5s0.673-1.5 1.5-1.5 1.5 0.673 1.5 1.5-0.673 1.5-1.5 1.5zM13.5 6c-0.276 0-0.5 0.224-0.5 0.5s0.224 0.5 0.5 0.5 0.5-0.224 0.5-0.5-0.224-0.5-0.5-0.5z" stroke="none"></path>
      <path d="M13.5 12c-0.827 0-1.5-0.673-1.5-1.5s0.673-1.5 1.5-1.5 1.5 0.673 1.5 1.5-0.673 1.5-1.5 1.5zM13.5 10c-0.276 0-0.5 0.224-0.5 0.5s0.224 0.5 0.5 0.5 0.5-0.224 0.5-0.5-0.224-0.5-0.5-0.5z" stroke="none"></path>
      <path d="M13.5 16c-0.827 0-1.5-0.673-1.5-1.5s0.673-1.5 1.5-1.5 1.5 0.673 1.5 1.5-0.673 1.5-1.5 1.5zM13.5 14c-0.276 0-0.5 0.224-0.5 0.5s0.224 0.5 0.5 0.5 0.5-0.224 0.5-0.5-0.224-0.5-0.5-0.5z" stroke="none"></path>
      <path d="M15.5 19h-12c-1.378 0-2.5-1.122-2.5-2.5v-12c0-1.378 1.122-2.5 2.5-2.5h12c1.378 0 2.5 1.122 2.5 2.5v12c0 1.378-1.122 2.5-2.5 2.5zM3.5 3c-0.827 0-1.5 0.673-1.5 1.5v12c0 0.827 0.673 1.5 1.5 1.5h12c0.827 0 1.5-0.673 1.5-1.5v-12c0-0.827-0.673-1.5-1.5-1.5h-12z" stroke="none"></path>
    </g>
  </g>
</svg>