<?xml version="1.0" encoding="utf-8"?>
<!-- Generator: Adobe Illustrator 16.0.0, SVG Export Plug-In . SVG Version: 6.00 Build 0)  -->
<!DOCTYPE svg PUBLIC "-//W3C//DTD SVG 1.1 Tiny//EN" "http://www.w3.org/Graphics/SVG/1.1/DTD/svg11-tiny.dtd">
<svg version="1.1" baseProfile="tiny" id="Layer_1" xmlns="http://www.w3.org/2000/svg" xmlns:xlink="http://www.w3.org/1999/xlink"
	 x="0px" y="0px" width="20px" height="20px" viewBox="0 0 482.563 482.563"  xml:space="preserve">
  <g fill="#666" stroke="#666">
    <g id="disk"  viewBox="0 0 482.563 482.563" >
	<path d="M481.317,69.392L413.172,1.245C412.375,0.447,411.294,0,410.167,0h-37.201H109.597H4.25C1.902,0,0,1.902,0,4.25v474.063
		c0,2.348,1.902,4.25,4.25,4.25h474.063c2.348,0,4.25-1.902,4.25-4.25V72.396C482.563,71.27,482.115,70.188,481.317,69.392z
		 M368.716,8.5v202.194H113.847v-34.73h80.366c2.348,0,4.25-1.902,4.25-4.25s-1.902-4.25-4.25-4.25h-80.366V8.5H368.716z
		 M411.022,474.063H71.54V263.636c0-3.171,2.579-5.75,5.75-5.75h327.982c3.171,0,5.75,2.579,5.75,5.75V474.063z M474.063,474.063
		h-54.54V263.636c0-7.857-6.393-14.25-14.25-14.25H77.29c-7.857,0-14.25,6.393-14.25,14.25v210.427H8.5V75.221h43.487
		c2.348,0,4.25-1.902,4.25-4.25c0-2.348-1.902-4.25-4.25-4.25H8.5V8.5h96.847v206.444c0,2.348,1.902,4.25,4.25,4.25h263.369
		c2.348,0,4.25-1.902,4.25-4.25V8.5h31.19l65.656,65.657V474.063z"/>
	<path d="M391.113,315.164H91.449c-2.348,0-4.25,1.902-4.25,4.25c0,2.348,1.902,4.25,4.25,4.25h299.664
		c2.348,0,4.25-1.902,4.25-4.25C395.363,317.066,393.461,315.164,391.113,315.164z"/>
	<path d="M391.113,366.521H91.449c-2.348,0-4.25,1.902-4.25,4.25c0,2.348,1.902,4.25,4.25,4.25h299.664
		c2.348,0,4.25-1.902,4.25-4.25C395.363,368.423,393.461,366.521,391.113,366.521z"/>
	<path d="M314.477,189.347c2.348,0,4.25-1.902,4.25-4.25V32.343c0-2.348-1.902-4.25-4.25-4.25c-2.348,0-4.25,1.902-4.25,4.25
		v152.754C310.227,187.444,312.129,189.347,314.477,189.347z"/>
</g>
  </g>
</svg>
