<?xml version="1.0" encoding="iso-8859-1"?>
<!-- Generator: Adobe Illustrator 16.0.0, SVG Export Plug-In . SVG Version: 6.00 Build 0)  -->
<!DOCTYPE svg PUBLIC "-//W3C//DTD SVG 1.1//EN" "http://www.w3.org/Graphics/SVG/1.1/DTD/svg11.dtd">
<svg version="1.1" id="Capa_1" xmlns="http://www.w3.org/2000/svg" xmlns:xlink="http://www.w3.org/1999/xlink" x="0px" y="0px"
	 width="425.833px" height="425.833px" viewBox="0 0 425.833 425.833" style="enable-background:new 0 0 425.833 425.833;"
	 xml:space="preserve">
  <g fill="#666" stroke="#666">
<g id="dollar-invoice" viewBox="0 0 425.833 425.833" stroke="none">
	<path d="M381.136,415.238V90.92c0-2.936-1.224-5.748-3.371-7.751l-86.238-80.33C289.57,1.009,286.987,0,284.317,0H55.293
		c-5.845,0-10.597,4.742-10.597,10.59v404.647c0,5.843,4.752,10.595,10.597,10.595h315.249
		C376.397,425.833,381.136,421.081,381.136,415.238z M65.876,21.177h197.63v79.47c0,5.844,4.743,10.586,10.586,10.586h85.878
		v293.417H65.876V21.177z M354.093,90.063h-69.412V25.396L354.093,90.063z M218.804,273.371
		c-9.483-10.408-26.383-18.146-51.573-23.612v-71.287c14.399,3.267,22.103,12.769,23.493,28.95c0.152,1.828,1.686,3.228,3.525,3.228
		h30.368c0.02,0,0.06,0,0.069,0c1.767-0.115,3.618-1.554,3.618-3.524c0-0.481-0.106-0.936-0.28-1.348
		c-3.982-35.027-24.425-54.68-60.793-58.439v-20.772c0-1.947-1.576-3.523-3.528-3.523h-16.678c-1.952,0-3.527,1.576-3.527,3.523
		v20.824c-18.59,2.246-33.707,9.015-44.978,20.137c-12.023,11.857-18.109,27.642-18.109,46.909c0,33.631,21.221,55.3,63.093,64.416
		v79.891c-18.613-4.574-28.661-17.932-30.655-40.689c-0.163-1.828-1.688-3.217-3.523-3.217h-30.22c-0.988,0-1.917,0.398-2.596,1.116
		c-0.654,0.724-0.995,1.686-0.927,2.658c2.963,41.653,25.803,65.609,67.916,71.259v20.717c0,1.952,1.576,3.535,3.527,3.535h16.678
		c1.952,0,3.528-1.583,3.528-3.535v-20.861c20.115-1.783,36.213-9.46,47.903-22.861c12.261-14.047,18.472-30.786,18.472-49.752
		C233.6,298.847,228.628,284.128,218.804,273.371z M196.164,318.985c0,23.009-9.474,36.12-28.932,39.945v-74.562
		c11.02,3.316,18.562,7.333,22.435,11.946C193.976,301.458,196.164,309.085,196.164,318.985z M117.685,212.094
		c0-18.394,8.462-29.494,25.813-33.814v66.213c-7.198-2.313-13.207-5.553-17.902-9.657
		C120.346,230.272,117.685,222.623,117.685,212.094z"/>
</g>
</g>
</svg>
