<?xml version="1.0" encoding="iso-8859-1"?>
<!-- Generator: Adobe Illustrator 18.1.1, SVG Export Plug-In . SVG Version: 6.00 Build 0)  -->
<svg version="1.1" id="Capa_1" xmlns="http://www.w3.org/2000/svg" xmlns:xlink="http://www.w3.org/1999/xlink" x="0px" y="0px"
	 width="482.632px" height="482.632px" viewBox="0 0 482.632 482.632" style="enable-background:new 0 0 482.632 482.632;"
	 xml:space="preserve">
  <g fill="#999" stroke="#999">
    <g id="editor-formatselector" stroke="none" viewBox="0 0 482.632 482.632" >

	<path d="M244.245,313.247h204.078c5.97,0,10.828-4.858,10.828-10.829v-123.78c0-5.967-4.858-10.823-10.828-10.823H244.245
		c-5.97,0-10.822,4.855-10.822,10.823v57.349h-92.539v-90.559h97.501c5.97,0,10.822-4.856,10.822-10.823V10.822
		C249.207,4.855,244.354,0,238.385,0H34.304c-5.967,0-10.823,4.855-10.823,10.822v123.784c0,5.967,4.856,10.823,10.823,10.823
		h97.501v269.022h101.618v57.357c0,5.971,4.853,10.823,10.822,10.823h204.078c5.97,0,10.828-4.853,10.828-10.823V348.025
		c0-5.97-4.858-10.816-10.828-10.816H244.245c-5.97,0-10.822,4.847-10.822,10.816v57.347h-92.539V245.066h92.539v57.352
		C233.423,308.383,238.275,313.247,244.245,313.247z M34.304,136.148c-0.854,0-1.543-0.694-1.543-1.542V10.822
		c0-0.851,0.689-1.542,1.543-1.542h204.081c0.854,0,1.546,0.692,1.546,1.542v123.784c0,0.854-0.692,1.542-1.546,1.542H34.304z
		 M242.703,348.025c0-0.851,0.688-1.542,1.542-1.542h204.078c0.857,0,1.549,0.691,1.549,1.542v123.783
		c0,0.852-0.691,1.543-1.549,1.543H244.245c-0.854,0-1.542-0.691-1.542-1.543v-57.357v-9.079V348.025z M242.703,178.638
		c0-0.854,0.688-1.542,1.542-1.542h204.078c0.857,0,1.549,0.688,1.549,1.542v123.78c0,0.857-0.691,1.549-1.549,1.549H244.245
		c-0.854,0-1.542-0.697-1.542-1.549v-57.352v-9.079V178.638z"/>
</g>
  </g>
</svg>
