<?xml version="1.0" encoding="utf-8" standalone="no"?>
<svg width="18px" height="18px" viewBox="0 0 18 18"
     version="1.1" xmlns="http://www.w3.org/2000/svg" xmlns:xlink="http://www.w3.org/1999/xlink" xmlns:sketch="http://www.bohemiancoding.com/sketch/ns">
  <!-- Generator: Sketch 3.3.2 (12043) - http://www.bohemiancoding.com/sketch -->
  <title>add_folder</title>
  <desc>Created with Sketch.</desc>
  <defs></defs>
  <g stroke="#666" fill="#666">
    <g id="folder-add" viewBox="0 0 18 18" stroke-width="1" fill="none" fill-rule="evenodd">
      <g transform="translate(-384.000000, -255.000000)">
        <g transform="translate(385.000000, 257.000000)">
          <g stroke-linecap="round" stroke-linejoin="round">
            <path d="M11.5216236,3.4828403 L11.5216236,1.53724885 L4.46177459,1.53724885 L4.46177459,0.5 L0.5,0.5 L0.5,10.0229492 C0.5,10.8509492 1.21938614,11.4868164 2.04938614,11.4868164 C2.87738614,11.4868164 3.5,10.8509492 3.5,10.0229492 L3.5,3.4828403 L13.5040455,3.4828403 L13.5040455,5.48039341"></path>
            <path d="M2,11.4868164 L7.47190523,11.4868164"></path>
            <path d="M11.5,10.4868164 L13.5,10.4868164"></path>
            <path d="M11.5,10.4868164 L13.5,10.4868164"></path>
            <path d="M12.5,11.4868164 L12.5,9.48681641"></path>
          </g>
          <path d="M12.5,14 C10.5668333,14 9,12.4331667 9,10.5 C9,8.68452703 10.3818592,7.19213953 12.1512633,7.01715165 C12.2659704,7.00580752 12.3823063,7 12.5,7 C14.4325833,7 16,8.56683333 16,10.5 C16,12.4331667 14.4325833,14 12.5,14 Z" ></path>
        </g>
      </g>
    </g>
  </g>
</svg>