<?xml version="1.0" ?>
<!DOCTYPE svg  PUBLIC '-//W3C//DTD SVG 1.1//EN'  'http://www.w3.org/Graphics/SVG/1.1/DTD/svg11.dtd'>
<svg enable-background="new 0 0 50 50" height="24px" id="Layer_1" version="1.1" viewBox="0 0 50 50" width="24px" xml:space="preserve" xmlns="http://www.w3.org/2000/svg" xmlns:xlink="http://www.w3.org/1999/xlink">
  <g stroke="#999" fill="#999">
      <g id="folder-open-2" viewBox="0 0 50 50" >
          <rect fill="none" height="50" width="50" stroke="none"/>
  <path d="M46,15v-4  c0-1.104-0.896-2-2-2c0,0-24.648,0-26,0c-1.469,0-2.484-4-4-4H3C1.896,5,1,5.896,1,7v4v29v4c0,1.104,0.896,2,2,2h39  c1.104,0,2-0.896,2-2" fill="none" stroke-linecap="round" stroke-miterlimit="10" stroke-width="2"/>
  <path d="M1,44l5-27  c0-1.104,0.896-2,2-2h39c1.104,0,2,0.896,2,2l-5,27" fill="none"  stroke-linecap="round" stroke-miterlimit="10" stroke-width="2"/>
      </g>
  </g>
</svg>