<?xml version="1.0" encoding="utf-8" standalone="no"?>
<svg width="18px" height="18px" viewBox="0 0 18 18" version="1.1" xmlns="http://www.w3.org/2000/svg" xmlns:xlink="http://www.w3.org/1999/xlink" xmlns:sketch="http://www.bohemiancoding.com/sketch/ns">
  <!-- Generator: Sketch 3.3.2 (12043) - http://www.bohemiancoding.com/sketch -->
  <title>delete_folder</title>
  <desc>Created with Sketch.</desc>
  <defs></defs>
  <g fill="#666" stroke="#666">
    <g id="folder-delete" viewBox="0 0 18 18" stroke-width="1" fill="none" fill-rule="evenodd">
      <g  transform="translate(-415.000000, -255.000000)">
        <g  transform="translate(416.000000, 257.000000)">
          <g >
            <path d="M11.5216236,3.4828403 L11.5216236,1.53724885 L4.46177459,1.53724885 L4.46177459,0.5 L0.5,0.5 L0.5,10.0229492 C0.5,10.8509492 1.21938614,11.4868164 2.04938614,11.4868164 C2.87738614,11.4868164 3.5,10.8509492 3.5,10.0229492 L3.5,3.4828403 L13.5040455,3.4828403 L13.5040455,5.48039341" stroke-linecap="round" stroke-linejoin="round"></path>
            <path d="M2,11.4868164 L7.47190523,11.4868164" stroke-linecap="round" stroke-linejoin="round"></path>
            <g transform="translate(9.000000, 7.000000)">
              <path d="M2.52130127,2.53173828 L4.4977417,4.50354004"  stroke-width="0.8" stroke-linecap="round" stroke-linejoin="round"></path>
              <path d="M2.53533936,4.51098633 L4.49542236,2.53570557"  stroke-width="0.8" stroke-linecap="round" stroke-linejoin="round"></path>
              <path d="M3.5,7 C1.56683333,7 0,5.43316667 0,3.5 C0,1.68452703 1.38185915,0.192139527 3.15126328,0.0171516538 C3.26597043,0.00580751896 3.3823063,0 3.5,0 C5.43258333,0 7,1.56683333 7,3.5 C7,5.43316667 5.43258333,7 3.5,7 Z" ></path>
            </g>
          </g>
        </g>
      </g>
    </g>
  </g>
</svg>