<?xml version="1.0" encoding="iso-8859-1"?>
<!-- Generator: Adobe Illustrator 16.0.0, SVG Export Plug-In . SVG Version: 6.00 Build 0)  -->
<!DOCTYPE svg PUBLIC "-//W3C//DTD SVG 1.1//EN" "http://www.w3.org/Graphics/SVG/1.1/DTD/svg11.dtd">
<svg version="1.1" id="Capa_1" xmlns="http://www.w3.org/2000/svg" xmlns:xlink="http://www.w3.org/1999/xlink" x="0px" y="0px"
	 width="24px" height="24px" viewBox="0 0 612 612" style="enable-background:new 0 0 612 612;" xml:space="preserve">
<g fill="#999" stroke="#999">
	<g id="folder-lock" viewBox="0 0 612 612">
		<path d="M592.875,401.625L592.875,401.625v-28.688c0-26.775-15.3-49.725-38.25-61.2V191.25c0-21.038-17.213-38.25-38.25-38.25
		h-229.5l-38.25-76.5H38.25C17.212,76.5,0,93.712,0,114.75V459c0,21.037,17.212,38.25,38.25,38.25h401.625v19.125
		c0,11.475,7.65,19.125,19.125,19.125h133.875c11.475,0,19.125-7.65,19.125-19.125V420.75
		C612,409.275,604.35,401.625,592.875,401.625z M573.75,372.938v28.688h-95.625v-28.688c0-26.775,21.037-47.812,47.812-47.812
		S573.75,346.162,573.75,372.938z M19.125,114.75c0-9.562,7.65-19.125,19.125-19.125h198.9l38.25,76.5h240.975
		c9.562,0,19.125,7.65,19.125,19.125v38.25H19.125V114.75z M439.875,420.75v57.375H38.25c-9.562,0-19.125-7.65-19.125-19.125
		V248.625H535.5V306c-3.825,0-5.737,0-9.562,0C489.6,306,459,336.6,459,372.938v28.688l0,0
		C447.525,401.625,439.875,409.275,439.875,420.75z M592.875,506.812c0,5.737-3.825,9.562-9.562,9.562h-114.75
		c-5.737,0-9.562-3.825-9.562-9.562v-76.5c0-5.737,3.825-9.562,9.562-9.562h114.75c5.737,0,9.562,3.825,9.562,9.562V506.812z"/>
	</g>
</g>
</svg>
