<?xml version="1.0" encoding="iso-8859-1"?>
<!-- Generator: Adobe Illustrator 16.0.0, SVG Export Plug-In . SVG Version: 6.00 Build 0)  -->
<!DOCTYPE svg PUBLIC "-//W3C//DTD SVG 1.1//EN" "http://www.w3.org/Graphics/SVG/1.1/DTD/svg11.dtd">
<svg version="1.1" id="Capa_1" xmlns="http://www.w3.org/2000/svg" xmlns:xlink="http://www.w3.org/1999/xlink" x="0px" y="0px"
	 width="24px" height="24px" viewBox="0 0 612 612" style="enable-background:new 0 0 612 612;" xml:space="preserve">
<g>
	<g id="folder-delete" viewBox="0 0 612 612">
		<polygon points="546.975,376.763 506.812,416.925 466.65,376.763 453.263,390.15 493.425,430.312 453.263,470.475 466.65,483.862 
			506.812,443.7 546.975,483.862 560.362,470.475 520.2,430.312 560.362,390.15 		"/>
		<path d="M554.625,336.6V191.25c0-21.038-17.213-38.25-38.25-38.25h-229.5l-38.25-76.5H38.25C17.212,76.5,0,93.712,0,114.75V459
			c0,21.037,17.212,38.25,38.25,38.25h388.237c19.125,22.95,47.812,38.25,80.325,38.25C564.188,535.5,612,487.688,612,430.312
			C612,390.15,589.05,353.812,554.625,336.6z M19.125,114.75c0-9.562,7.65-19.125,19.125-19.125h198.9l38.25,76.5h240.975
			c9.562,0,19.125,7.65,19.125,19.125v38.25H19.125V114.75z M38.25,478.125c-9.562,0-19.125-7.65-19.125-19.125V248.625H535.5
			v80.325c-9.562-1.913-19.125-3.825-28.688-3.825c-57.375,0-105.188,47.812-105.188,105.188c0,17.213,3.825,32.513,11.475,47.812
			H38.25z M506.812,516.375c-47.812,0-86.062-38.25-86.062-86.062S459,344.25,506.812,344.25s86.062,38.25,86.062,86.062
			S554.625,516.375,506.812,516.375z"/>
	</g>
</g>
</svg>
