<?xml version="1.0" encoding="utf-8"?>
<!DOCTYPE svg PUBLIC "-//W3C//DTD SVG 1.1//EN" "http://www.w3.org/Graphics/SVG/1.1/DTD/svg11.dtd"[]>
<svg version="1.1" id="Capa_1" xmlns="http://www.w3.org/2000/svg" xmlns:xlink="http://www.w3.org/1999/xlink" x="0px" y="0px"
	 width="18px" height="18px" viewBox="0 0 439.875 439.875" style="enable-background:new 0 0 439.875 439.875;"
	 xml:space="preserve">
  <g fill="#666" stroke="#666" >
    <g id="generated-type-to-xml"   viewBox="0 0 439.875 439.875"  stroke="none">
      <g>
        <polygon points="306,153 286.875,153 286.875,286.875 382.5,286.875 382.5,267.75 306,267.75 		"/>
        <polygon points="133.875,153 105.188,202.725 76.5,153 57.375,153 95.625,219.938 57.375,286.875 76.5,286.875 105.188,237.15 
			133.875,286.875 153,286.875 114.75,219.938 153,153 		"/>
        <polygon points="248.625,153 219.938,210.375 191.25,153 181.688,153 172.125,153 172.125,286.875 191.25,286.875 191.25,191.25 
			210.375,229.5 219.938,229.5 229.5,229.5 248.625,191.25 248.625,286.875 267.75,286.875 267.75,153 258.188,153 		"/>
        <path d="M382.5,95.625H57.375C24.862,95.625,0,120.487,0,153v133.875c0,32.513,24.862,57.375,57.375,57.375H382.5
			c32.513,0,57.375-24.862,57.375-57.375V153C439.875,120.487,415.013,95.625,382.5,95.625z M420.75,286.875
			c0,21.037-17.213,38.25-38.25,38.25H57.375c-21.038,0-38.25-17.213-38.25-38.25V153c0-21.038,17.212-38.25,38.25-38.25H382.5
			c21.037,0,38.25,17.212,38.25,38.25V286.875z"/>
      </g>
    </g>
  </g>
</svg>