<?xml version="1.0" encoding="iso-8859-1"?>
<!-- Generator: Adobe Illustrator 16.0.0, SVG Export Plug-In . SVG Version: 6.00 Build 0)  -->
<!DOCTYPE svg PUBLIC "-//W3C//DTD SVG 1.1//EN" "http://www.w3.org/Graphics/SVG/1.1/DTD/svg11.dtd">
<svg version="1.1" id="Capa_1" xmlns="http://www.w3.org/2000/svg" xmlns:xlink="http://www.w3.org/1999/xlink" x="0px" y="0px"
	 width="400px" height="400px" viewBox="0 0 400 400" style="enable-background:new 0 0 400 400;" xml:space="preserve">
<g fill="#999" stroke="#999">
	<g id="information-circle" viewBox="0 0 400 400" stroke="none">
		<path d="M199.992,0C89.719,0,0,89.72,0,200s89.719,200,199.992,200C310.273,400,400,310.28,400,200S310.273,0,199.992,0z
			 M199.992,373.77C104.18,373.77,26.23,295.816,26.23,200c0-95.817,77.949-173.769,173.762-173.769
			c95.824,0,173.776,77.953,173.776,173.769C373.769,295.816,295.816,373.77,199.992,373.77z"/>
		<path d="M196.293,125.97c9.656,0,17.488-7.832,17.488-17.489c0-9.657-7.832-17.489-17.488-17.489
			c-9.664,0-17.488,7.832-17.488,17.489C178.805,118.138,186.629,125.97,196.293,125.97z"/>
		<path d="M224.09,279.586h-10.969V154.564c0-7.243-5.871-13.116-13.113-13.116h-24.094c-7.242,0-13.113,5.873-13.113,13.116
			s5.871,13.115,13.113,13.115h10.977v111.907h-10.977c-7.242,0-13.113,5.872-13.113,13.115c0,7.242,5.871,13.115,13.113,13.115
			h48.176c7.246,0,13.117-5.873,13.117-13.115C237.207,285.458,231.336,279.586,224.09,279.586z"/>
	</g>
</g>
</svg>
