<?xml version="1.0" encoding="iso-8859-1"?>
<!-- Generator: Adobe Illustrator 16.0.0, SVG Export Plug-In . SVG Version: 6.00 Build 0)  -->
<!DOCTYPE svg PUBLIC "-//W3C//DTD SVG 1.1//EN" "http://www.w3.org/Graphics/SVG/1.1/DTD/svg11.dtd">
<svg version="1.1" id="Capa_1" xmlns="http://www.w3.org/2000/svg" xmlns:xlink="http://www.w3.org/1999/xlink" x="0px" y="0px"
	 width="497.301px" height="497.301px" viewBox="0 0 497.301 497.301" style="enable-background:new 0 0 497.301 497.301;"
	 xml:space="preserve">
<g id="item-unpublish" viewBox="0 0 497.301 497.301">
	<path d="M97.5,342.351C30.6,302.15,0,248.65,0,248.65s76.5-133.9,248.6-133.9c24.9,0,47.8,1.9,68.8,7.6l-15.301,15.3
		c-17.199-1.9-34.4-3.8-53.5-3.8c-153,0-225.7,114.8-225.7,114.8s28.7,45.9,88,80.3L97.5,342.351z M172.1,248.65
		c0,5.7,0,11.5,1.9,17.2l17.2-17.2c0-15.3,5.7-28.7,17.2-40.2s26.8-17.2,40.2-17.2l17.201-17.2c-5.701-1.9-11.5-1.9-17.201-1.9
		C206.5,172.15,172.1,206.55,172.1,248.65z M399.699,154.95l-13.398,13.4c59.299,34.4,88,80.3,88,80.3S401.6,363.45,248.6,363.45
		c-19.1,0-36.3-1.899-53.5-3.8l-15.3,15.3c21,5.7,44,7.601,68.9,7.601c172.101,0,248.601-133.9,248.601-133.9
		S466.6,195.15,399.699,154.95z M401.4,76.95L76.9,401.45l18.9,18.9l324.6-324.6L401.4,76.95z M288.801,288.851
		c-11.5,11.5-24.9,17.2-40.201,17.2l-17.2,17.199c5.7,1.9,11.5,1.9,17.2,1.9c42.099,0,76.5-34.4,76.5-76.5c0-5.7,0-11.5-1.9-17.2
		L306,248.65C306,263.95,300.199,277.351,288.801,288.851z"/>
</g>

</svg>
