<?xml version="1.0" encoding="UTF-8" standalone="no"?>
<svg  width="18px" height="17px" xmlns="http://www.w3.org/2000/svg">
  <g stroke="#666" fill="white">
    <g id="key" viewBox="0 0 18 17" stroke-width="1" fill="none"  stroke-linecap="round">
      <path d="M7.14266667,6.85733333 C6.50066667,6.52466667 5.77266651,6.49902328 4.99999984,6.49902328 C2.42266651,6.49902328 0.492675786,8.51055761 0.492675786,11.0878909 C0.492675786,13.6652243 2.42266667,15.4974979 5,15.4974979 C7.57733334,15.4974979 9.50805665,13.5231344 9.50805665,10.9458011 C9.50805665,10.1724678 9.47533333,9.49933333 9.14266667,8.85733333 L11.3333333,6.66666667 L12.3333333,6.66666667 L12.3333333,5.66666667 L12.6666667,5.33333333 L13.6666667,5.33333333 L13.6666667,4.33333333 L14,4 L15,4 L15,3 L15.6666667,2.33333333 L15.6666667,0.333333333 L13.6666667,0.333333333 L7.14266667,6.85733333 Z" id="Stroke-254"></path>
      <path d="M3.51141357,13.49292 C2.95941357,13.49292 2.51428223,13.0527277 2.51428223,12.500061 C2.51428223,11.9473943 2.95941357,11.4902344 3.51141357,11.4902344 C4.06341357,11.4902344 4.47821045,11.9473944 4.47821045,12.500061 C4.47821045,13.0527277 4.06341357,13.49292 3.51141357,13.49292 Z" id="Stroke-255" stroke-linejoin="round"></path>
    </g>
  </g>
</svg>