<?xml version="1.0" encoding="iso-8859-1"?>
<!-- Generator: Adobe Illustrator 18.1.1, SVG Export Plug-In . SVG Version: 6.00 Build 0)  -->
<svg version="1.1" id="Capa_1" xmlns="http://www.w3.org/2000/svg" xmlns:xlink="http://www.w3.org/1999/xlink" x="0px" y="0px"
	 viewBox="0 0 45.919 45.919" style="enable-background:new 0 0 45.919 45.919;" xml:space="preserve">
<g fill="#999" stroke="#999">
	<g id="log" viewBox="0 0 45.919 45.919" stroke="none">
		<path d="M45.168,9.366c-1.169,0-2.339,0-3.509,0c0.211,0.225,0.406,0.462,0.577,0.712
			c-0.171-0.25-0.366-0.487-0.577-0.711c-0.531-0.566-1.159-1.053-1.762-1.461c-1.683-1.139-3.655-1.883-5.629-2.322
			c-3.858-0.858-8.545-0.481-11.033,2.964c-0.024,0.035-0.054,0.065-0.079,0.101l0,0c0.025-0.036,0.054-0.067,0.08-0.102
			c-1.073-1.533-2.724-2.529-4.522-3.002C14.782,4.51,10.134,5.629,6.76,7.782C6.073,8.22,5.389,8.747,4.821,9.366
			c-0.414,0.45-0.761,0.949-1.003,1.501c-0.064,0.145-0.126,0.291-0.174,0.443c-0.198,0.629-0.115,1.34-0.115,1.989
			c0,7.048,0,14.096,0,21.145c0,0.674,0,1.349,0,2.021c0,0.299,0.325,0.604,0.633,0.482c2.302-0.903,4.793-1.489,7.241-1.795
			c3.713-0.465,8.195-0.228,10.8,2.763c-5.107,0-10.213,0-15.32,0c-1.794,0-3.588,0-5.383,0c0-5.134,0-10.267,0-15.399
			c0-3.883,0-7.766,0-11.649c0.772,0,1.545,0,2.318,0c0.242-0.552,0.589-1.051,1.001-1.5c-1.356,0-2.712,0-4.069,0
			C0.341,9.367,0,9.708,0,10.117c0,5.833,0,11.666,0,17.499c0,4.135,0,8.268,0,12.399c0,0.409,0.341,0.75,0.75,0.75
			c4.689,0,9.379,0,14.068,0c7.811,0,15.622,0,23.432,0c2.307,0,4.611,0,6.917,0c0.204,0,0.356-0.075,0.476-0.183
			c0.018-0.014,0.037-0.024,0.053-0.04c0.015-0.017,0.023-0.032,0.037-0.048c0.107-0.119,0.186-0.272,0.186-0.479
			c0-5.833,0-11.666,0-17.499c0-4.133,0-8.266,0-12.399C45.918,9.707,45.577,9.366,45.168,9.366z M42.672,10.866
			c0.582,0,1.164,0,1.746,0c0,5.583,0,11.166,0,16.749c0,3.439,0,6.879,0,10.316c-0.03-0.003-0.052-0.017-0.084-0.017
			c-4.763,0-9.526,0-14.29,0c-1.951,0-3.901,0-5.853,0c2.896-2.41,7.142-2.608,10.749-2.333c2.474,0.188,4.996,0.626,7.369,1.365
			c0.312,0.099,0.633-0.164,0.633-0.48c0-6.191,0-12.383,0-18.575c0-1.488,0-2.976,0-4.464c0-0.645,0.074-1.335-0.074-1.969
			C42.819,11.254,42.753,11.058,42.672,10.866c-0.085-0.202-0.204-0.391-0.32-0.58C42.468,10.475,42.586,10.663,42.672,10.866z
			 M23.53,9.896c0.001,0.232,0.033,0.033,0.104-0.103c0.134-0.257,0.291-0.501,0.456-0.739c1.147-1.648,3.08-2.464,5.005-2.758
			c2.086-0.318,4.271,0.007,6.273,0.608c1.828,0.548,3.658,1.406,5.089,2.69c0.522,0.469,1.026,1.033,1.303,1.689
			c0.06,0.143,0.104,0.291,0.144,0.44c0.016,0.053,0.039,0.301,0.039,0.169c0,0.067,0,0.134,0,0.202c0,0.977,0,1.954,0,2.932
			c0,6.925,0,13.85,0,20.774c0,0.003,0,0.007,0,0.01c-2.317-0.662-4.746-1.056-7.14-1.238c-3.778-0.287-8.175,0.045-11.208,2.539
			c-0.01-4.379-0.021-8.758-0.032-13.137c1.1,1.176,2.2,2.35,3.299,3.524c0.443,0.473,0.887,0.946,1.33,1.42
			c0.179,0.19,0.529,0.198,0.707,0c0.894-0.996,1.787-1.993,2.681-2.989c0.187-0.208,0.194-0.5,0-0.707
			c-2.679-2.861-5.356-5.723-8.034-8.584c-0.005-1.874-0.009-3.748-0.014-5.622c-0.001-0.317-0.002-0.633-0.002-0.95
			C23.53,10.009,23.53,9.953,23.53,9.896z M16.218,14.664c-0.325-0.348-0.651-0.695-0.976-1.043c0.73-0.684,1.461-1.367,2.191-2.051
			c4.114,4.394,8.227,8.789,12.339,13.183c0.258,0.277,0.518,0.554,0.775,0.83c-0.67,0.747-1.34,1.495-2.011,2.242
			C24.431,23.437,20.324,19.05,16.218,14.664z M11.925,34.092C9.433,34.341,6.899,34.9,4.529,35.76c0-5.957,0-11.914,0-17.872
			c0-1.488,0-2.976,0-4.464c0-0.406,0-0.812,0-1.218c0-0.349-0.012-0.316,0.079-0.632c0.429-1.487,1.977-2.553,3.239-3.284
			c1.8-1.042,3.839-1.677,5.892-1.972c1.997-0.288,4.176-0.186,6.038,0.647c0.892,0.399,1.672,0.978,2.313,1.714
			c0.218,0.25,0.399,0.526,0.568,0.811c0.112-0.268,0.278-0.519,0.437-0.748c-0.157,0.229-0.324,0.481-0.437,0.749
			c-0.073,0.174-0.129,0.352-0.128,0.532c0.001,0.296,0.001,0.592,0.002,0.889c0.003,1.253,0.006,2.506,0.009,3.76
			c0.001,0.298,0.001,0.597,0.002,0.895c-1.21-1.293-2.421-2.587-3.632-3.88c-0.367-0.393-0.734-0.785-1.1-1.177
			c-0.191-0.204-0.513-0.181-0.707,0c-0.973,0.911-1.947,1.822-2.92,2.733c-0.164,0.153-0.179,0.335-0.119,0.493
			c0.02,0.074,0.054,0.147,0.118,0.215c2.793,2.984,5.585,5.968,8.378,8.952c0.011,4.522,0.022,9.045,0.033,13.568
			c0,0.142,0,0.283,0.001,0.425c0.001,0.449,0.003,0.896,0.003,1.348c0-0.45-0.002-0.898-0.003-1.348
			C19.867,34.165,15.689,33.716,11.925,34.092z M44.334,39.414c0.468,0,0.708-0.348,0.721-0.707
			C45.042,39.067,44.803,39.414,44.334,39.414z"/>
		<path  d="M29.022,28.907c-0.285,0.275-0.125,0.718,0.222,0.836c1.208,0.416,2.417,0.832,3.625,1.25
			c0.368,0.129,0.707-0.266,0.614-0.614c-0.334-1.267-0.668-2.531-1-3.797c-0.062-0.239-0.242-0.347-0.431-0.354
			c-0.135-0.021-0.278,0.01-0.405,0.133C30.772,27.21,29.897,28.058,29.022,28.907z M32.278,29.734
			c-0.656-0.228-1.313-0.453-1.971-0.681c0.476-0.461,0.951-0.923,1.428-1.384C31.917,28.357,32.097,29.045,32.278,29.734z"/>
		<path d="M16.085,9.348c-1,0.879-2,1.759-3,2.638c-0.485,0.426,0.225,1.131,0.707,0.707
			c1-0.879,2-1.759,3-2.638C17.277,9.628,16.567,8.924,16.085,9.348z"/>
	</g>
</g>

</svg>
