<?xml version="1.0" encoding="UTF-8" standalone="no"?>
<svg width="18px" height="18px" viewBox="0 0 18 18" version="1.1" xmlns="http://www.w3.org/2000/svg" xmlns:xlink="http://www.w3.org/1999/xlink" xmlns:sketch="http://www.bohemiancoding.com/sketch/ns">
  <!-- Generator: Sketch 3.3.2 (12043) - http://www.bohemiancoding.com/sketch -->
  <title>delete_media</title>
  <desc>Created with Sketch.</desc>
  <defs></defs>
  <g stroke="#666" fill="#666">
    <g id="media-delete-media-file" viewBox="0 0 18 18" stroke-width="1" fill-rule="evenodd" >
      <g id="Content-edit-Copy"  transform="translate(-449.000000, -208.000000)">
        <g id="delete_file"  transform="translate(448.000000, 210.000000)">
          <g>
            <g id="Group-Copy-5">
              <path d="M13,5 L12,5 L12,6 L13,6 L13,5 Z" stroke="none"></path>
              <path d="M13,7 L12,7 L12,8 L13,8 L13,7 Z"  stroke="none"></path>
              <path d="M4,5 L3,5 L3,6 L4,6 L4,5 Z"  stroke="none"></path>
              <path d="M13,3 L12,3 L12,4 L13,4 L13,3 Z" stroke="none"></path>
              <path d="M13,1 L12,1 L12,2 L13,2 L13,1 Z" stroke="none"></path>
              <path d="M4,3 L3,3 L3,4 L4,4 L4,3 Z"  stroke="none"></path>
              <path d="M4,1 L3,1 L3,2 L4,2 L4,1 Z"  stroke="none"></path>
              <path d="M4,7 L3,7 L3,8 L4,8 L4,7 Z"  stroke="none"></path>
              <path d="M4,9 L3,9 L3,10 L4,10 L4,9 Z"  stroke="none"></path>
              <path d="M14.5,0.5 L14.5,6.50842285"  fill="none" stroke-linecap="round" stroke-linejoin="round"></path>
              <path d="M10.5,0.5 L10.5,10.4366217"  fill="none" stroke-linecap="round" stroke-linejoin="round"></path>
              <path d="M5.5,0.5 L5.5,10.4366217"  fill="none" stroke-linecap="round" stroke-linejoin="round"></path>
              <path d="M1.5,0.5 L1.5,10.4366217"  fill="none" stroke-linecap="round" stroke-linejoin="round"></path>
              <path d="M5.51973367,5.5 L10.5,5.5" fill="none" stroke-linecap="square" stroke-linejoin="round"></path>
              <path d="M5.60965294,9.5 L10.5,9.5"  fill="none" stroke-linecap="square" stroke-linejoin="round"></path>
              <path d="M5.51122785,1.5 L10.5,1.5" fill="none" stroke-linecap="square" stroke-linejoin="round"></path>
            </g>
          </g>
          <g transform="translate(12.000000, 8.000000)">
            <path d="M2.52130127,2.53173828 L4.4977417,4.50354004"  fill="none" stroke-width="0.8" stroke-linecap="round" stroke-linejoin="round"></path>
            <path d="M2.53533936,4.51098633 L4.49542236,2.53570557" fill="none" stroke-width="0.8" stroke-linecap="round" stroke-linejoin="round"></path>
            <path d="M3.5,7 C1.56683333,7 0,5.43316667 0,3.5 C0,1.68452703 1.38185915,0.192139527 3.15126328,0.0171516538 C3.26597043,0.00580751896 3.3823063,0 3.5,0 C5.43258333,0 7,1.56683333 7,3.5 C7,5.43316667 5.43258333,7 3.5,7 Z" fill="none"></path>
          </g>
        </g>
      </g>
    </g>
  </g>
 
</svg>