<?xml version="1.0" encoding="UTF-8" standalone="no"?>
<svg width="18px" height="18px" viewBox="0 0 18 18"
      version="1.1" xmlns="http://www.w3.org/2000/svg" xmlns:xlink="http://www.w3.org/1999/xlink" xmlns:sketch="http://www.bohemiancoding.com/sketch/ns">
    <!-- Generator: Sketch 3.3.2 (12043) - http://www.bohemiancoding.com/sketch -->
    <title>replace_file</title>
    <desc>Created with Sketch.</desc>
    <defs></defs>
  <g fill="#666" stroke="#666">
    <g id="media-replace-media-file" viewBox="0 0 18 18"  stroke-width="1"  fill-rule="evenodd">
      <g id="Content-edit-Copy" transform="translate(-419.000000, -208.000000)">
        <g id="replace_file" transform="translate(418.000000, 210.000000)">
          <g id="Group-Copy-5-+-Stroke-2562-+-Stroke-2563-Copy" >
            <g id="Group-Copy-5">
              <path d="M13,5 L12,5 L12,6 L13,6 L13,5 Z" id="Fill-1028" stroke="none"></path>
              <path d="M13,7 L12,7 L12,8 L13,8 L13,7 Z" id="Fill-1029" stroke="none"></path>
              <path d="M4,5 L3,5 L3,6 L4,6 L4,5 Z" id="Fill-1031" stroke="none"></path>
              <path d="M13,3 L12,3 L12,4 L13,4 L13,3 Z" id="Fill-1032" stroke="none"></path>
              <path d="M13,1 L12,1 L12,2 L13,2 L13,1 Z" id="Fill-1033" stroke="none"></path>
              <path d="M4,3 L3,3 L3,4 L4,4 L4,3 Z" id="Fill-1034" stroke="none"></path>
              <path d="M4,1 L3,1 L3,2 L4,2 L4,1 Z" id="Fill-1035" stroke="none"></path>
              <path d="M4,7 L3,7 L3,8 L4,8 L4,7 Z" id="Fill-1036" stroke="none"></path>
              <path d="M4,9 L3,9 L3,10 L4,10 L4,9 Z" id="Fill-1037" stroke="none"></path>
              <path d="M14.5,0.5 L14.5,6.50842285" id="Stroke-1043" fill="none" stroke-linecap="round" stroke-linejoin="round"></path>
              <path d="M10.5,0.5 L10.5,10.4366217" id="Stroke-1043-Copy" fill="none" stroke-linecap="round" stroke-linejoin="round"></path>
              <path d="M5.5,0.5 L5.5,10.4366217" id="Stroke-1043-Copy-3" fill="none" stroke-linecap="round" stroke-linejoin="round"></path>
              <path d="M1.5,0.5 L1.5,10.4366217" id="Stroke-1043-Copy-2" fill="none" stroke-linecap="round" stroke-linejoin="round"></path>
              <path d="M5.51973367,5.5 L10.5,5.5" id="Stroke-1044" fill="none" stroke-linecap="square" stroke-linejoin="round"></path>
              <path d="M5.60965294,9.5 L10.5,9.5" id="Stroke-1045" fill="none" stroke-linecap="square" stroke-linejoin="round"></path>
              <path d="M5.51122785,1.5 L10.5,1.5" id="Stroke-1046" fill="none" stroke-linecap="square" stroke-linejoin="round"></path>
            </g>
            <g id="Stroke-2562-+-Stroke-2563-Copy" transform="translate(15.500000, 11.000000) rotate(-180.000000) translate(-15.500000, -11.000000) translate(12.000000, 7.000000)" stroke-linecap="round" fill="none" stroke-linejoin="round">
              <g id="Stroke-2562-+-Stroke-2563" transform="translate(0.000000, 0.000000)">
                <path d="M3.51746324,6.26452619 L3.51746324,0.492991742" id="Stroke-2562"></path>
                <path d="M6.00665269,3.96417234 L3.47491465,6.47668454 L0.98486326,3.96417234" id="Stroke-2563"></path>
              </g>
            </g>
          </g>
        </g>
      </g>
    </g>
  </g>
 
</svg>