<?xml version="1.0" encoding="iso-8859-1"?>
<!-- Generator: Adobe Illustrator 18.0.0, SVG Export Plug-In . SVG Version: 6.00 Build 0)  -->
<!DOCTYPE svg PUBLIC "-//W3C//DTD SVG 1.1//EN" "http://www.w3.org/Graphics/SVG/1.1/DTD/svg11.dtd">
<svg version="1.1" id="Capa_1" xmlns="http://www.w3.org/2000/svg" xmlns:xlink="http://www.w3.org/1999/xlink" x="0px" y="0px"
	 viewBox="0 0 370.516 370.516" style="enable-background:new 0 0 370.516 370.516;" xml:space="preserve">
<g fill="#666" stroke="#666">
  <g id="merge" viewBox="0 0 370.516 370.516" stroke="none">
	<path  d="M363.016,167.758h-70.041l15.125-15.126c2.93-2.929,2.93-7.678,0-10.606l-14.143-14.143
		c-2.93-2.929-7.678-2.929-10.607,0l-31.842,31.842V72.258c0-4.142-3.357-7.5-7.5-7.5h-20c-4.143,0-7.5,3.358-7.5,7.5v226
		c0,4.142,3.357,7.5,7.5,7.5h20c4.143,0,7.5-3.358,7.5-7.5V210.79l31.842,31.842c1.465,1.464,3.385,2.197,5.305,2.197
		c1.918,0,3.838-0.732,5.303-2.197L308.1,228.49c2.93-2.929,2.93-7.678,0-10.606l-15.125-15.126h70.041c4.143,0,7.5-3.358,7.5-7.5
		v-20C370.516,171.116,367.158,167.758,363.016,167.758z"/>
	<path d="M146.508,64.758h-20c-4.143,0-7.5,3.358-7.5,7.5v87.468l-31.842-31.842
		c-2.93-2.929-7.678-2.929-10.607,0l-14.143,14.143c-1.406,1.406-2.197,3.314-2.197,5.303c0,1.989,0.791,3.897,2.197,5.303
		l15.125,15.126H7.5c-4.144,0-7.5,3.358-7.5,7.5v20c0,4.142,3.355,7.5,7.5,7.5h70.041l-15.125,15.126
		c-1.406,1.406-2.197,3.314-2.197,5.303c0,1.989,0.791,3.897,2.197,5.303l14.143,14.143c1.465,1.465,3.383,2.197,5.303,2.197
		s3.84-0.732,5.305-2.197l31.842-31.842v87.468c0,4.142,3.357,7.5,7.5,7.5h20c4.143,0,7.5-3.358,7.5-7.5v-226
		C154.008,68.116,150.65,64.758,146.508,64.758z"/>
</g>
</g>
</svg>
