<?xml version="1.0" encoding="iso-8859-1"?>
<!-- Generator: Adobe Illustrator 16.0.0, SVG Export Plug-In . SVG Version: 6.00 Build 0)  -->
<!DOCTYPE svg PUBLIC "-//W3C//DTD SVG 1.1//EN" "http://www.w3.org/Graphics/SVG/1.1/DTD/svg11.dtd">
<svg version="1.1" id="Capa_1" xmlns="http://www.w3.org/2000/svg" xmlns:xlink="http://www.w3.org/1999/xlink" x="0px" y="0px"
	 width="442.833px" height="442.833px" viewBox="0 0 442.833 442.833" style="enable-background:new 0 0 442.833 442.833;"
	 xml:space="preserve">
<g fill="#999" stroke="#999">
	<g id="message" viewBox="0 0 442.833 442.833">
		<path d="M361.062,18.189H81.772C36.683,18.189,0,54.869,0,99.96v170.042c0,45.092,36.683,81.773,81.772,81.773h192.803
			l69.686,69.676c2.084,2.088,4.873,3.193,7.711,3.193c1.402,0,2.822-0.268,4.168-0.828c4.076-1.684,6.732-5.666,6.732-10.072
			v-61.99c44.256-0.969,79.961-37.269,79.961-81.752V99.961C442.833,54.869,406.151,18.189,361.062,18.189z M421.028,270.001
			c0,33.061-26.9,59.967-59.968,59.967h-9.094c-6.021,0-10.901,4.877-10.901,10.902v46.553l-54.267-54.262
			c-2.043-2.043-4.817-3.193-7.707-3.193H81.772c-33.065,0-59.967-26.906-59.967-59.967V99.961c0-33.07,26.902-59.967,59.967-59.967
			h279.289c33.066,0,59.968,26.896,59.968,59.967V270.001z"/>
		<path d="M119.199,161.248c-13.549,0-24.531,10.988-24.531,24.532c0,13.554,10.982,24.532,24.531,24.532
			c13.543,0,24.532-10.979,24.532-24.532C143.731,172.236,132.742,161.248,119.199,161.248z"/>
		<path d="M221.415,161.248c-13.549,0-24.532,10.988-24.532,24.532c0,13.554,10.983,24.532,24.532,24.532
			c13.543,0,24.532-10.979,24.532-24.532C245.946,172.236,234.958,161.248,221.415,161.248z"/>
		<path d="M323.632,161.248c-13.549,0-24.533,10.988-24.533,24.532c0,13.554,10.984,24.532,24.533,24.532
			c13.543,0,24.529-10.979,24.529-24.532C348.161,172.236,337.175,161.248,323.632,161.248z"/>
	</g>
</g>
</svg>
