<?xml version="1.0" ?>
<!DOCTYPE svg  PUBLIC '-//W3C//DTD SVG 1.1//EN'  'http://www.w3.org/Graphics/SVG/1.1/DTD/svg11.dtd'>
<svg enable-background="new 0 0 512 512" height="18px" id="Layer_1" version="1.1" viewBox="0 0 512 512" width="18px"
     xml:space="preserve" xmlns="http://www.w3.org/2000/svg" xmlns:xlink="http://www.w3.org/1999/xlink">
  <g fill="#999" stroke="#999">
    <g id="mimetype-doc" viewBox="0 0 512 512">
       <rect height="20" width="260" x="150" y="342"/><rect height="20" width="260" x="150" y="392"/>
  <rect height="20" width="140" x="270" y="192"/><rect height="20" width="140" x="270" y="242"/>
  <rect height="20" width="140" x="270" y="292"/><polygon fill="none" points="360.402,136.812 436.289,136.812 360.402,60.923 "/>
  <polygon fill="none" points="230,312 100.637,312 100.637,479.363 463.577,479.363 463.577,454.481 463.577,432.844   463.577,160.214 337,160.214 337,33.637 287.838,33.637 266.201,33.637 100.637,33.637 100.637,102 230,102 "/>
  <path d="M463.577,131.004l-97.366-97.366L344.573,12H337h-49.162h-21.637H79v90h21.637V33.637h165.564h21.637H337v126.576h126.577  v272.63v21.638v24.882h-362.94V312H79v189h406.215v-46.52v-21.638V160.214v-7.572L463.577,131.004z M360.402,136.812v-75.89  l75.888,75.89H360.402z"/>
  <path d="M230,312V102H100.637H79H20v210h59h21.637H230z M40,292V122h170v170H40z"/>
  <polygon points="73.333,267.805 88.947,267.809 119.32,196.761 130.217,267.824 145.956,267.805 192.447,158.373 201.103,158.373   202.629,146.175 171.408,146.175 169.881,158.373 176.764,158.34 147.647,231.662 135.774,146.175 124.586,146.175 90.682,231.625   80.686,158.364 89.459,158.373 90.978,146.175 48.898,146.175 47.371,158.373 57.89,158.373 "/>
  </g>
  </g>
 </svg>