<?xml version="1.0" encoding="iso-8859-1"?>
<!-- Generator: Adobe Illustrator 16.0.0, SVG Export Plug-In . SVG Version: 6.00 Build 0)  -->
<svg version="1.1" id="Capa_1" xmlns="http://www.w3.org/2000/svg" xmlns:xlink="http://www.w3.org/1999/xlink" x="0px" y="0px"
	 viewBox="0 0 22 22" style="enable-background:new 0 0 22 22;" xml:space="preserve">
<g id="mimetype-htm" viewBox="0 0 22 22" stroke="none">
	<path   d="M0,0.094v21.813h22V0.094H0z M20.187,1.907c0,1.574,0,16.612,0,18.188c-1.576,0-16.798,0-18.374,0
		c0-1.576,0-16.614,0-18.188C3.388,1.906,18.611,1.906,20.187,1.907z"/>
	<path   d="M8.632,14.144L2.85,11.628v-1.392l5.782-2.503v1.64l-4.029,1.543l4.029,1.602V14.144z"/>
	<path   d="M9.168,15.248l2.093-8.718h1.212l-2.116,8.718H9.168z"/>
	<path   d="M13.001,14.144v-1.625l4.037-1.593l-4.037-1.574V7.734l5.788,2.505v1.38
		C18.789,11.62,13.001,14.144,13.001,14.144z"/>
</g>
</svg>