<?xml version="1.0" encoding="utf-8"?>
<!-- Generator: Adobe Illustrator 16.0.0, SVG Export Plug-In . SVG Version: 6.00 Build 0)  -->
<!DOCTYPE svg PUBLIC "-//W3C//DTD SVG 1.1//EN" "http://www.w3.org/Graphics/SVG/1.1/DTD/svg11.dtd">
<svg version="1.1" id="Capa_1" xmlns="http://www.w3.org/2000/svg" xmlns:xlink="http://www.w3.org/1999/xlink" x="0px" y="0px"
	 width="18px" height="18px" viewBox="0 0 533.333 533.333" style="enable-background:new 0 0 533.333 533.333;"
	 xml:space="preserve">
  <g fill="#999" stroke="#999">
    <g id="mimetype-css" viewBox="0 0 533.333 533.333" stroke="none">
	<path d="M200,318.461v-59.492c0-7.879,3.487-15.331,9.819-20.982c6.333-5.65,14.684-8.763,23.514-8.763v-29.745
		c-36.667,0-66.667,26.771-66.667,59.491v44.618c0,8.214-7.462,14.874-16.667,14.874h-16.667v29.744H150
		c9.205,0,16.667,6.661,16.667,14.875v44.623c0,32.713,30,59.484,66.667,59.484v-29.745c-8.83,0-17.181-3.113-23.514-8.764
		c-6.332-5.652-9.819-13.102-9.819-20.98v-59.497c0-8.213-7.463-14.87-16.667-14.87C192.539,333.333,200,326.672,200,318.461z
		 M333.334,348.205v59.498c0,7.876-3.487,15.325-9.82,20.978c-6.332,5.65-14.682,8.764-23.514,8.764v29.745
		c36.668,0,66.667-26.771,66.667-59.486V363.08c0-8.215,7.463-14.875,16.667-14.875H400v-29.744h-16.666
		c-9.204,0-16.667-6.661-16.667-14.874v-44.618c0-32.721-29.999-59.491-66.667-59.491v29.745c8.832,0,17.182,3.114,23.514,8.766
		c6.334,5.65,9.82,13.102,9.82,20.981v59.493c0,8.212,7.462,14.871,16.666,14.871C340.796,333.333,333.334,339.994,333.334,348.205z
		 M470.538,103.87L396.13,29.463C379.925,13.258,347.917,0,325,0H75C52.083,0,33.333,18.75,33.333,41.667v450
		c0,22.916,18.75,41.666,41.667,41.666h383.333c22.916,0,41.666-18.75,41.666-41.666V175
		C500,152.083,486.742,120.074,470.538,103.87z M446.968,127.44c1.631,1.631,3.255,3.633,4.833,5.893h-85.134V48.2
		c2.261,1.578,4.263,3.203,5.893,4.833L446.968,127.44z M466.667,491.667c0,4.517-3.816,8.333-8.333,8.333H75
		c-4.517,0-8.333-3.816-8.333-8.333v-450c0-4.517,3.817-8.333,8.333-8.333h250c2.517,0,5.341,0.318,8.334,0.887v132.446H465.78
		c0.569,2.993,0.887,5.816,0.887,8.333V491.667z"/>
</g>
  </g>
</svg>
