<?xml version="1.0" encoding="iso-8859-1"?>
<!-- Generator: Adobe Illustrator 16.0.0, SVG Export Plug-In . SVG Version: 6.00 Build 0)  -->
<!DOCTYPE svg PUBLIC "-//W3C//DTD SVG 1.1//EN" "http://www.w3.org/Graphics/SVG/1.1/DTD/svg11.dtd"[]>
<svg version="1.1" id="Capa_1" xmlns="http://www.w3.org/2000/svg" xmlns:xlink="http://www.w3.org/1999/xlink" x="0px" y="0px"
	 viewBox="0 0 32 32" style="enable-background:new 0 0 32 32;" xml:space="preserve">
  <g fill="#999" stroke="#999">
    <g id="mimetype-js" viewBox="0 0 32 32" stroke="none">
	<path d="M27.928,15.63C26.921,13.14,25.984,10.679,26,9c-0.002-1.833,0.468-3.747,0.946-5.185
		c0.48-1.436,0.951-2.365,0.947-2.369L28.616,0H4.382L4.106,0.552c-0.022,0.07-2.09,4.128-2.105,8.447
		c0.017,2.323,1.08,4.861,2.07,7.372C5.08,18.859,6.018,21.32,6.001,23c0.002,1.834-0.468,3.747-0.95,5.184
		c-0.477,1.437-0.949,2.365-0.945,2.371l-0.723,1.444V32h24.235l0.275-0.555c0.024-0.067,2.09-4.125,2.106-8.444
		C29.983,20.678,28.921,18.139,27.928,15.63z M27.05,28.184c-0.257,0.774-0.513,1.401-0.693,1.815H6.522
		C7.139,28.427,7.99,25.768,8.001,23c-0.019-2.323-1.079-4.861-2.072-7.371c-1.007-2.49-1.947-4.951-1.928-6.63
		C3.999,7.166,4.469,5.252,4.948,3.814C5.207,3.041,5.463,2.414,5.643,2h19.836c-0.617,1.573-1.469,4.232-1.48,6.999
		c0.016,2.324,1.08,4.861,2.072,7.372c1.007,2.488,1.945,4.949,1.928,6.629C28.001,24.834,27.53,26.747,27.05,28.184z"/>
</g>
  </g>

</svg>