<?xml version="1.0" encoding="iso-8859-1"?>
<!-- Generator: Adobe Illustrator 16.0.0, SVG Export Plug-In . SVG Version: 6.00 Build 0)  -->
<!DOCTYPE svg PUBLIC "-//W3C//DTD SVG 1.1//EN" "http://www.w3.org/Graphics/SVG/1.1/DTD/svg11.dtd"[]>
<svg version="1.1" id="Capa_1" xmlns="http://www.w3.org/2000/svg" xmlns:xlink="http://www.w3.org/1999/xlink" x="0px" y="0px"
	 width="18px" height="18px" viewBox="0 0 533.333 533.333" style="enable-background:new 0 0 533.333 533.333;"
	 xml:space="preserve">
<g id="mimetype-zip" viewBox="0 0 533.333 533.333" stroke="none">
	<path d="M216.667,66.667h50V100h-50V66.667z M166.667,100h50v33.333h-50V100z M216.667,133.333h50v33.333h-50V133.333z
		 M166.667,166.667h50V200h-50V166.667z M216.667,200h50v33.333h-50V200z M166.667,233.333h50v33.333h-50V233.333z M216.667,266.667
		V300h-50v116.667c0,9.205,7.461,16.666,16.667,16.666H250c9.205,0,16.667-7.461,16.667-16.666v-150H216.667z M250,400h-66.667
		v-33.333H250V400z M470.538,103.87L396.13,29.463C379.925,13.258,347.917,0,325,0H75C52.083,0,33.333,18.75,33.333,41.667v450
		c0,22.916,18.75,41.666,41.667,41.666h383.333c22.916,0,41.666-18.75,41.666-41.666V175
		C500,152.083,486.742,120.074,470.538,103.87z M446.968,127.44c1.631,1.631,3.255,3.633,4.833,5.893h-85.134V48.2
		c2.261,1.578,4.263,3.203,5.893,4.833L446.968,127.44z M466.667,491.667c0,4.517-3.816,8.333-8.333,8.333H75
		c-4.517,0-8.333-3.816-8.333-8.333v-450c0-4.517,3.817-8.333,8.333-8.333h250c2.517,0,5.341,0.318,8.334,0.887v132.446H465.78
		c0.569,2.993,0.887,5.816,0.887,8.333V491.667z"/>
</g>
</svg>