<?xml version="1.0" encoding="UTF-8" standalone="no"?>
<svg width="18px" height="18px" viewBox="0 0 18 18" version="1.1" xmlns="http://www.w3.org/2000/svg" xmlns:xlink="http://www.w3.org/1999/xlink" xmlns:sketch="http://www.bohemiancoding.com/sketch/ns">
  <!-- Generator: Sketch 3.3.2 (12043) - http://www.bohemiancoding.com/sketch -->
  <title>Tree_view</title>
  <desc>Created with Sketch.</desc>
  <defs></defs>
  <g stroke="#666" fill="#666">
  <g id="nodes" viewBox="0 0 18 18"  stroke-width="1" fill="none"  >
    <g id="Homeg-page" transform="translate(-311.000000, -563.000000)"  stroke-linejoin="round">
      <g id="Browser" transform="translate(311.000000, 556.000000)">
        <g id="Tree_view" transform="translate(0.000000, 7.000000)">
          <path d="M8.5002375,3.56289583 L8.5002375,13.4273072" stroke-linecap="square"></path>
          <path d="M13.4988403,3.49053963 L3.49884033,3.49053955 L3.49884033,0.512268064 L13.4988403,0.512268064 L13.4988403,3.49053963 Z" id="Stroke-6234"  fill="#FFFFFF"></path>
          <path d="M4.52099593,17.5054526 L0.545328771,17.5054526 L0.545328771,13.5428874 L4.52099593,13.5428874 L4.52099593,17.5054526 Z" id="Stroke-6236"  fill="#FFFFFF"></path>
          <path d="M10.5209959,17.5054526 L6.54532877,17.5054526 L6.54532877,13.5428874 L10.5209959,13.5428874 L10.5209959,17.5054526 Z" id="Stroke-6236-Copy" fill="#FFFFFF"></path>
          <path d="M16.5209959,17.5054526 L12.5453288,17.5054526 L12.5453288,13.5428874 L16.5209959,13.5428874 L16.5209959,17.5054526 Z" id="Stroke-6236-Copy-2" fill="#FFFFFF"></path>
          <path d="M14.5167847,13.4320474 L14.5167847,9.51863606 L2.50488281,9.51863606 L2.50488281,13.4320474" stroke-linecap="square"></path>
        </g>
      </g>
    </g>
  </g></g>
  </svg>