<?xml version="1.0" encoding="iso-8859-1"?>
<svg version="1.1" xmlns="http://www.w3.org/2000/svg" viewBox="0 0 24 24"
     xmlns:xlink="http://www.w3.org/1999/xlink"
    xml:space="preserve">
   <g fill="#000">
      <g id="optimizely">
         <g stroke="none" stroke-width="1" fill-rule="evenodd">
              <g transform="translate(-13.000000, -479.000000)" >
                  <g transform="translate(13.000000, 479.000000)">
                      <path d="M21.3278442,10.4495017 C20.839735,15.3309625 16.3811411,19.2874812 11.3693186,19.2874812 C6.35753705,19.2874812 2.69036981,15.3309625 3.17847903,10.4495017 C3.66658824,5.5683686 8.12501828,1.61152218 13.136636,1.61152218 C15.9879261,1.61152218 18.4042265,2.89191809 19.8673664,4.89497611 L22.2657691,3.44260751 L20.2734005,5.51037543 L18.8324586,7.01127645 L10.7958988,15.3481638 C11.4301787,15.5949625 12.1329364,15.7305666 12.8815234,15.7305666 C16.1494551,15.7305666 19.0561992,13.1505666 19.3742196,9.96831399 C19.4416326,9.29283276 19.3871616,8.64475085 19.2283357,8.04249829 L20.5873254,6.09575427 C21.207148,7.38086007 21.4861377,8.86660751 21.3278442,10.4495017 L21.3278442,10.4495017 Z M20.3757077,3.40886007 C18.5198852,1.30300341 15.7918306,0 12.6337009,0 C6.32935957,0 0.699967083,5.19235495 0.0596257863,11.5976928 C-0.580756466,18.0026621 4.01020599,23.195058 10.3143425,23.195058 C16.61852,23.195058 22.2479125,18.0026621 22.8882538,11.5976928 C23.1064654,9.41627304 22.7177964,7.37512628 21.8611275,5.63209556 L23.9992162,2.09979522 L20.3757077,3.40886007 Z"></path>
                      <path d="M14.0334415,4.20536519 C10.7657145,4.20536519 7.8589705,6.78536519 7.54082715,9.96831399 C7.4612094,10.7644505 7.55122988,11.5231536 7.78242442,12.2130922 L18.1089773,5.95953584 C17.1415234,4.87810239 15.7018101,4.20536519 14.0334415,4.20536519"></path>
                  </g>
              </g>
          </g>
       </g>
    </g>
</svg>
