<?xml version="1.0" encoding="iso-8859-1"?>
<!-- Generator: Adobe Illustrator 16.0.0, SVG Export Plug-In . SVG Version: 6.00 Build 0)  -->
<!DOCTYPE svg PUBLIC "-//W3C//DTD SVG 1.1//EN" "http://www.w3.org/Graphics/SVG/1.1/DTD/svg11.dtd">
<svg version="1.1" id="Capa_1" xmlns="http://www.w3.org/2000/svg" xmlns:xlink="http://www.w3.org/1999/xlink" x="0px" y="0px"
	 width="24px" height="24px" viewBox="0 0 520.2 520.2" style="enable-background:new 0 0 520.2 520.2;" xml:space="preserve"
	>
  <g fill="#999" stroke="#999">
    <g id="page-edit-page" viewBox="0 0 520.2 520.2" stroke="none">
	<path d="M508.725,89.888l-22.949-22.95c-15.301-15.3-38.25-15.3-53.551,0l-68.85,68.85L248.625,1.913H38.25
		C17.212,1.913,0,19.125,0,40.163v439.875c0,21.037,17.212,38.25,38.25,38.25h286.875c21.037,0,38.25-17.213,38.25-38.25v-191.25
		l145.35-145.35C524.025,128.138,524.025,105.188,508.725,89.888z M248.625,30.6l89.888,105.188H267.75
		c-9.562,0-19.125-9.562-19.125-19.125V30.6z M344.25,480.038c0,9.562-7.65,19.125-19.125,19.125H38.25
		c-9.562,0-19.125-7.65-19.125-19.125V40.163c0-9.562,7.65-19.125,19.125-19.125H229.5v95.625c0,21.038,17.212,38.25,38.25,38.25
		h76.5L153,346.163l-19.125,95.625l95.625-19.125l114.75-114.75V480.038z M170.212,357.637l47.812,47.812l-59.288,11.476
		L170.212,357.637z M233.325,392.063L183.6,342.337l214.2-214.2l49.726,49.725L233.325,392.063z M495.338,130.05l-32.513,32.512
		L413.1,112.837l32.513-32.512c7.65-7.65,19.125-7.65,26.775,0l22.95,22.95C502.987,110.925,502.987,122.4,495.338,130.05z"/>
</g>
  </g>
</svg>
