<?xml version="1.0" encoding="UTF-8" standalone="no"?>
<svg width="17px" height="17px" xmlns="http://www.w3.org/2000/svg" viewBox="0 0 17 17">
  <g stroke="#666" fill="#666">
    <g id="page-add-page" stroke-width="1"  fill="none">
      <path d="M6.98040772,14.4809573 L0.514099126,14.4809573 L0.514099126,0.522827153 L6.82507325,0.522827153 L10.5554199,3.36010743 L10.5554199,6.00878907" id="Stroke-3085" stroke-linejoin="round"></path>
      <path d="M6.52050781,0.52752686 L6.52050781,3.52471932 L10.0111084,3.52471924" id="Stroke-3086" stroke-linecap="round" stroke-linejoin="round"></path>
      <path d="M11.5323486,15.5359497 C9.3230153,15.5359497 7.53234863,13.745283 7.53234863,11.5359497 C7.53234863,9.46112346 9.11161624,7.75553774 11.1337924,7.5555516 C11.2648863,7.54258687 11.3978415,7.53594971 11.5323486,7.53594971 C13.7410153,7.53594971 15.5323486,9.32661637 15.5323486,11.5359497 C15.5323486,13.745283 13.7410153,15.5359497 11.5323486,15.5359497 Z" id="Stroke-3087"></path>
      <path d="M9.4934082,11.5359497 L13.4890747,11.5359497" id="Stroke-3088" stroke-linecap="round"></path>
      <path d="M11.5323486,13.487915 L11.5323486,9.51055908" id="Stroke-3089" stroke-linecap="round"></path>
    </g>
  </g>
</svg>
