<?xml version="1.0" encoding="utf-8" standalone="no"?>
<svg width="18px" height="18px" viewBox="0 0 18 18"
        version="1.1" xmlns="http://www.w3.org/2000/svg" xmlns:xlink="http://www.w3.org/1999/xlink" xmlns:sketch="http://www.bohemiancoding.com/sketch/ns">
  <!-- Generator: Sketch 3.3.2 (12043) - http://www.bohemiancoding.com/sketch -->
  <title>Color</title>
  <desc>Created with Sketch.</desc>
  <defs></defs>
  <g stroke="#666" fill="#666">
    <g id="pallete" viewBox="0 0 18 18"  stroke-width="1" fill="none" fill-rule="evenodd">
      <g id="Content-edit" transform="translate(-296.000000, -373.000000)" stroke-linecap="round" stroke-linejoin="round">
        <g id="Color" transform="translate(297.000000, 375.000000)">
          <path d="M2.82534545,12.6567636 C-0.0325636364,9.79949091 -0.0325636364,5.16549091 2.82534545,2.30694545 C5.68325455,-0.550327273 10.3166182,-0.550327273 13.1745273,2.30694545 C16.0324364,5.16549091 16.0324364,9.79949091 13.1745273,12.6567636 C11.8076182,14.0236727 9.5918,14.0236727 8.22489091,12.6567636 L5.5248,9.95667273 C5.27661818,9.70849091 4.8738,9.70849091 4.62498182,9.95667273 C4.3768,10.2054909 4.3768,10.6083091 4.62498182,10.8571273 C5.12198182,11.3541273 5.12198182,12.1597636 4.62498182,12.6567636 C4.12861818,13.1537636 3.32234545,13.1537636 2.82534545,12.6567636 L2.82534545,12.6567636 Z" id="Stroke-638" ></path>
          <path d="M11.3747636,5.00703636 C11.0024909,5.37994545 10.3973091,5.37994545 10.0250364,5.00703636 C9.65212727,4.63476364 9.65212727,4.03021818 10.0250364,3.65730909 C10.3973091,3.2844 11.0024909,3.2844 11.3747636,3.65730909 C11.7476727,4.03021818 11.7476727,4.63476364 11.3747636,5.00703636 L11.3747636,5.00703636 Z" id="Stroke-639" stroke-width="0.7"  ></path>
          <path d="M12.0046364,7.93214545 C11.7558182,7.68332727 11.7558182,7.28114545 12.0046364,7.03169091 C12.2534545,6.78350909 12.6556364,6.78350909 12.9044545,7.03169091 C13.1532727,7.28114545 13.1532727,7.68332727 12.9044545,7.93214545 C12.6556364,8.18032727 12.2534545,8.18032727 12.0046364,7.93214545 L12.0046364,7.93214545 Z" id="Stroke-640" stroke-width="0.7"  ></path>
          <path d="M9.80001818,11.5319273 C9.30301818,11.0355636 9.30301818,10.2292909 9.80001818,9.73165455 C10.2963818,9.23529091 11.1026545,9.23529091 11.5996545,9.73165455 C12.0966545,10.2292909 12.0966545,11.0355636 11.5996545,11.5319273 C11.1026545,12.0289273 10.2963818,12.0289273 9.80001818,11.5319273 L9.80001818,11.5319273 Z" id="Stroke-641" stroke-width="0.7"  ></path>
          <path d="M7.54958182,2.98231818 C7.92249091,3.35459091 7.92249091,3.95913636 7.54958182,4.33204545 C7.17730909,4.70431818 6.57276364,4.70431818 6.19985455,4.33204545 C5.82694545,3.95913636 5.82694545,3.35459091 6.19985455,2.98231818 C6.57276364,2.60940909 7.17667273,2.60940909 7.54958182,2.98231818 L7.54958182,2.98231818 Z" id="Stroke-642" stroke-width="0.7"  ></path>
        </g>
      </g>
    </g>
  </g>
</svg>