<?xml version="1.0" encoding="iso-8859-1"?>
<!-- Generator: Adobe Illustrator 18.1.1, SVG Export Plug-In . SVG Version: 6.00 Build 0)  -->
<svg version="1.1" id="Capa_1" xmlns="http://www.w3.org/2000/svg" xmlns:xlink="http://www.w3.org/1999/xlink" x="0px" y="0px"
	 viewBox="0 0 47.748 47.748" style="enable-background:new 0 0 47.748 47.748;" width="20px" height="20px" xml:space="preserve">
  <g fill="#999" stroke="#999">
    <g id="pallete" viewBox="0 0 47.748 47.748" stroke="none">
	<path d="M6.763,31.838c4.759,0,10.789-1.501,10.861-1.52c0.006-0.003,0.643-0.234,1.133-0.234
		c0.143,0,0.213,0.02,0.241,0.03c0.098,0.27-0.156,0.938-0.467,1.437c-0.136,0.306-3.296,7.518-1.613,10.62
		c0.426,0.785,1.102,1.258,2.012,1.408c1.353,0.222,2.741,0.334,4.13,0.334h0.002c12.722,0,24.251-9.182,24.674-19.648
		c0.19-4.777-1.899-9.923-5.59-13.765c-4.131-4.298-9.853-6.666-16.109-6.666c-2.85,0-5.817,0.483-8.821,1.436
		C5.393,9.019,1.735,16.528,0.607,20.671c-1.193,4.388-0.471,8.274,0.815,9.702C2.308,31.359,4.055,31.838,6.763,31.838z
		 M1.814,20.999c1.06-3.896,4.518-10.967,15.78-14.538c2.882-0.914,5.723-1.377,8.442-1.377c5.915,0,11.316,2.231,15.209,6.281
		c3.46,3.602,5.419,8.405,5.24,12.849c-0.388,9.656-11.554,18.449-23.426,18.448c-1.319,0-2.641-0.107-3.927-0.318
		c-0.517-0.084-0.881-0.336-1.115-0.77c-1.137-2.096,0.783-7.533,1.609-9.433c0.104-0.159,0.995-1.583,0.479-2.613
		c-0.159-0.317-0.522-0.696-1.349-0.696c-0.253,0-1.196,0.133-1.501,0.307l-0.004-0.013c-0.245,0.06-6.06,1.461-10.489,1.461
		c-2.866,0-3.98-0.571-4.411-1.051C1.44,28.524,0.67,25.206,1.814,20.999z"/>
	<path d="M10.26,22.452c2.22,0,4.025-1.805,4.025-4.024s-1.806-4.023-4.025-4.023s-4.023,1.805-4.023,4.023
		C6.236,20.647,8.041,22.452,10.26,22.452z M10.26,15.654c1.53,0,2.775,1.244,2.775,2.773c0,1.53-1.245,2.774-2.775,2.774
		c-1.529,0-2.773-1.245-2.773-2.774C7.486,16.898,8.73,15.654,10.26,15.654z"/>
	<path   d="M18.834,16.442c2.218,0,4.021-1.805,4.021-4.024s-1.804-4.023-4.021-4.023
		c-2.219,0-4.023,1.805-4.023,4.023C14.81,14.637,16.615,16.442,18.834,16.442z M18.834,9.644c1.528,0,2.771,1.244,2.771,2.773
		c0,1.53-1.243,2.774-2.771,2.774c-1.529,0-2.773-1.245-2.773-2.774C16.06,10.888,17.304,9.644,18.834,9.644z"/>
	<path   d="M28.191,16.442c2.22,0,4.025-1.805,4.025-4.024s-1.806-4.023-4.025-4.023s-4.023,1.805-4.023,4.023
		C24.168,14.637,25.972,16.442,28.191,16.442z M28.191,9.644c1.53,0,2.775,1.244,2.775,2.773c0,1.53-1.245,2.774-2.775,2.774
		c-1.529,0-2.773-1.245-2.773-2.774C25.418,10.888,26.662,9.644,28.191,9.644z"/>
	<path   d="M36.371,21.171c2.219,0,4.023-1.805,4.023-4.024s-1.805-4.024-4.023-4.024
		c-2.22,0-4.025,1.805-4.025,4.024C32.345,19.366,34.151,21.171,36.371,21.171z M36.371,14.373c1.529,0,2.773,1.245,2.773,2.774
		c0,1.53-1.244,2.774-2.773,2.774c-1.53,0-2.775-1.244-2.775-2.774C33.595,15.618,34.841,14.373,36.371,14.373z"/>
	<path   d="M35.303,27.272c0,2.219,1.806,4.024,4.025,4.024s4.023-1.805,4.023-4.024s-1.805-4.024-4.023-4.024
		C37.108,23.248,35.303,25.053,35.303,27.272z M42.101,27.272c0,1.53-1.244,2.774-2.773,2.774c-1.53,0-2.775-1.245-2.775-2.774
		s1.245-2.774,2.775-2.774C40.857,24.498,42.101,25.742,42.101,27.272z"/>
	<path   d="M25.631,32.33c-2.22,0-4.025,1.805-4.025,4.024s1.806,4.024,4.025,4.024s4.023-1.805,4.023-4.024
		S27.849,32.33,25.631,32.33z M25.631,39.128c-1.53,0-2.775-1.244-2.775-2.774s1.245-2.774,2.775-2.774
		c1.529,0,2.773,1.245,2.773,2.774S27.16,39.128,25.631,39.128z"/>
</g>
    
  </g>
</svg>
