<?xml version="1.0" encoding="UTF-8" standalone="no"?>
<svg width="21px" height="22px"  version="1.1" xmlns="http://www.w3.org/2000/svg" xmlns:xlink="http://www.w3.org/1999/xlink" xmlns:sketch="http://www.bohemiancoding.com/sketch/ns">
  <g stroke="#666" fill="white">
    <g id="perspective-datas" viewBox="0 0 21 22" stroke-width="1" fill="none" fill-rule="evenodd">
      <path d="M19.5006,4.5 C19.5006,6.709 15.2466,8.5 10.0006,8.5 C4.7546,8.5 0.5006,6.709 0.5006,4.5 C0.5006,2.291 4.7546,0.5 10.0006,0.5 C15.2466,0.5 19.5006,2.291 19.5006,4.5 L19.5006,4.5 Z" id="Stroke-5082"></path>
      <path d="M19.5004,8.5 C19.5004,10.709 15.2464,12.5 10.0004,12.5 C4.7544,12.5 0.5004,10.709 0.5004,8.5" id="Stroke-5083"></path>
      <path d="M19.5004,13 C19.5004,15.209 15.2464,17 10.0004,17 C4.7544,17 0.5004,15.209 0.5004,13" id="Stroke-5084"></path>
      <path d="M0.5004,4.5 L0.5004,17.5 C0.5004,19.709 4.7544,21.5 10.0004,21.5 C15.2464,21.5 19.5004,19.709 19.5004,17.5 L19.5004,4.5" id="Stroke-5085"></path>
    </g>
  </g>
</svg>