<?xml version="1.0" encoding="iso-8859-1"?>
<!-- Generator: Adobe Illustrator 18.1.1, SVG Export Plug-In . SVG Version: 6.00 Build 0)  -->
<svg version="1.1" id="Capa_1" xmlns="http://www.w3.org/2000/svg" xmlns:xlink="http://www.w3.org/1999/xlink" x="0px" y="0px"
	 viewBox="0 0 28.047 28.047" style="enable-background:new 0 0 28.047 28.047;" xml:space="preserve">
  <g fill="#666" stroke="#666">
    
    <g id="perspective-design" viewBox="0 0 28.047 28.047" stroke="none">
	<path d="M25.818,0.433H2.231C0.998,0.433,0,1.451,0,2.699v22.654c0,1.25,0.998,2.262,2.231,2.262h23.587
		c1.23,0,2.229-1.012,2.229-2.262V2.699C28.048,1.451,27.049,0.433,25.818,0.433z M3.644,2.06h20.763
		c1.083,0,1.963,0.895,1.963,1.994V8.54H1.68V4.054C1.68,2.954,2.556,2.06,3.644,2.06z M9.668,10.796H26.37v5.982H9.668V10.796z
		 M1.68,23.995V10.796h5.812v15.193H3.644C2.556,25.99,1.68,25.097,1.68,23.995z M24.407,25.99H9.668v-6.957H26.37v4.963
		C26.37,25.097,25.49,25.99,24.407,25.99z"/>
</g>
  </g>

</svg>
