<?xml version="1.0" ?>
<svg height="16px" version="1.1" viewBox="0 0 16 16" width="16px" xmlns="http://www.w3.org/2000/svg" xmlns:sketch="http://www.bohemiancoding.com/sketch/ns" xmlns:xlink="http://www.w3.org/1999/xlink">
  <g fill="#999">
    <g id="perspective-media" viewBox="0 0 16 16" fill-rule="evenodd" stroke="none" stroke-width="1">
      <g id="Group" transform="translate(-576.000000, -192.000000)">
        <path d="M577,193 L591,193 L591,208 L577,208 Z M580,194 L580,200 L588,200 L588,194 Z M580,201 L580,207 L588,207 L588,201 Z M578,194 L578,195 L579,195 L579,194 Z M578,196 L578,197 L579,197 L579,196 Z M578,198 L578,199 L579,199 L579,198 Z M578,200 L578,201 L579,201 L579,200 L578,200 Z M578,202 L578,203 L579,203 L579,202 L578,202 Z M578,204 L578,205 L579,205 L579,204 L578,204 Z M578,206 L578,207 L579,207 L579,206 L578,206 Z M589,194 L589,195 L590,195 L590,194 L589,194 Z M589,196 L589,197 L590,197 L590,196 L589,196 Z M589,198 L589,199 L590,199 L590,198 L589,198 Z M589,200 L589,201 L590,201 L590,200 L589,200 Z M589,202 L589,203 L590,203 L590,202 L589,202 Z M589,204 L589,205 L590,205 L590,204 L589,204 Z M589,206 L589,207 L590,207 L590,206 L589,206 Z M589,206" id="Rectangle 249"/>
      </g>
    </g>
  </g>
</svg>