<?xml version="1.0" ?>
<!DOCTYPE svg  PUBLIC '-//W3C//DTD SVG 1.1//EN'  'http://www.w3.org/Graphics/SVG/1.1/DTD/svg11.dtd'>
<svg enable-background="new 0 0 512 512" id="Layer_1" version="1.1" viewBox="0 0 512 512" xml:space="preserve" xmlns="http://www.w3.org/2000/svg" xmlns:xlink="http://www.w3.org/1999/xlink">
  <g fill="#666" stroke="none">
    <g id="perspective-design" viewBox="0 0 512 512" >
    <path d="M347.4,123.5c-16.5,4.1-38.2,42.3-55.6,73c-14.6,25.6-23.8,41.5-30.8,44.6c-1.6,0.7-3.4,1.1-5.2,1.1   c-10.8,0-24.4-12.6-39.7-26.9c-13-12.1-26.3-24.6-38.4-29.6c-21.8-8.9-70.1,35.4-87.7,54.1v12.5c0,19.4,15.8,35.2,35.1,35.2h255.8   c19.4,0,35.1-15.8,35.1-35.2v-77.5c-4.9-4.7-34.5-33.2-61-50.1C352.6,123.2,350.2,122.8,347.4,123.5z"  />
    <path d="M274.7,144.4c-8.1,14.8-23.4,24-40,24c-25.2,0-45.8-20.6-45.8-46c0-25.3,20.5-46,45.8-46   c4.7,0,9.5,0.9,14.7,2.6l7.7,2.6l-7.6,3.1c-11.2,4.6-18.4,15.4-18.4,27.4c0,19.7,19.4,35.3,39.8,27.7l7.7-2.9L274.7,144.4z"  />
    <path d="M435.2,0H75c-30,0-54.5,24.5-54.5,54.4v251.1c0,29.9,24.5,54.4,54.5,54.4h360.2c30,0,54.5-24.5,54.5-54.4   V54.4C489.7,24.5,465.2,0,435.2,0z M449.9,281.2c0,25.7-20.2,39.8-45.9,39.8H108c-25.7,0-48.3-14-48.3-39.7V86.1   c0-25.7,21.1-45.9,46.8-45.9h296c25.7,0,47.4,20.1,47.4,45.8V281.2z"  />
    <g>
    <path d="M202.7,372.1c0.7,28.3,23.5,51.1,51.7,51.1s51.1-22.8,51.7-51.1H202.7z" />
    <path d="M320.4,510.4l-6.6,1.5c-5.6,1.3-11.7-2.2-13.4-7.8L267.2,397c-2-6.5,1.7-13.1,8.3-14.6l6.6-1.5    c5.6-1.3,11.7,2.2,13.4,7.8l33.2,107.2C330.8,502.3,327,508.9,320.4,510.4z"  />
    <path d="M189.8,510.4l6.6,1.5c5.6,1.3,11.7-2.2,13.4-7.8L243.1,397c2-6.5-1.7-13.1-8.3-14.6l-6.6-1.5    c-5.6-1.3-11.7,2.2-13.4,7.8l-33.2,107.2C179.5,502.3,183.2,508.9,189.8,510.4z"  />
  </g>
  </g></g>
</svg>