<?xml version="1.0" encoding="iso-8859-1"?>
<!-- Generator: Adobe Illustrator 16.0.0, SVG Export Plug-In . SVG Version: 6.00 Build 0)  -->
<!DOCTYPE svg PUBLIC "-//W3C//DTD SVG 1.1//EN" "http://www.w3.org/Graphics/SVG/1.1/DTD/svg11.dtd">
<svg version="1.1" id="Capa_1" xmlns="http://www.w3.org/2000/svg" xmlns:xlink="http://www.w3.org/1999/xlink" x="0px" y="0px"
	 width="24px" height="24px" viewBox="0 0 533.333 533.333" style="enable-background:new 0 0 533.333 533.333;"
	 xml:space="preserve">
  <g fill="#999" stroke="#999">
<g id="placeholder"  viewBox="0 0 533.333 533.333" stroke="none">
	<path d="M200,100h66.667v33.333H200V100z M300,100h66.667v33.333H300V100z M466.667,100v133.333h-100V200h66.667v-66.667H400V100
		H466.667z M166.667,200h66.667v33.333h-66.667V200z M266.667,200h66.667v33.333h-66.667V200z M100,133.333V200h33.333v33.333
		H66.667V100h100v33.333H100z M200,300h66.667v33.333H200V300z M300,300h66.667v33.333H300V300z M466.667,300v133.333h-100V400
		h66.667v-66.667H400V300H466.667z M166.667,400h66.667v33.333h-66.667V400z M266.667,400h66.667v33.333h-66.667V400z M100,333.333
		V400h33.333v33.333H66.667V300h100v33.333H100z M500,33.333H33.333V500H500V33.333z M533.333,0L533.333,0v533.333H0V0H533.333z"/>
</g>
</g>
</svg>
