<?xml version="1.0" encoding="iso-8859-1"?>
<!-- Generator: Adobe Illustrator 16.0.0, SVG Export Plug-In . SVG Version: 6.00 Build 0)  -->
<!DOCTYPE svg PUBLIC "-//W3C//DTD SVG 1.1//EN" "http://www.w3.org/Graphics/SVG/1.1/DTD/svg11.dtd">
<svg version="1.1" id="Capa_1" xmlns="http://www.w3.org/2000/svg" xmlns:xlink="http://www.w3.org/1999/xlink" x="0px" y="0px"
	 width="480.581px" height="480.58px" viewBox="0 0 480.581 480.58" style="enable-background:new 0 0 480.581 480.58;"
	 xml:space="preserve">
<g fill="#666" stroke="#666">
	<g id="puzzle-piece" viewBox="0 0 480.581 480.58" stroke="none">
		<path d="M365.158,480.574H240.668c-6.132,0-11.556-3.906-13.509-9.723c-1.962-5.811,0.012-12.212,4.926-15.912
			c11.904-9.02,18.752-21.857,18.752-35.204c0-26.179-25.343-47.487-56.483-47.487c-31.141,0-56.483,21.309-56.483,47.487
			c0,13.347,6.839,26.185,18.77,35.216c4.894,3.688,6.862,10.09,4.894,15.924c-1.948,5.793-7.376,9.705-13.503,9.705H23.531
			c-7.861,0-14.254-6.395-14.254-14.256v-97.688c0-5.432,3.153-10.468,8.044-12.838c4.823-2.317,10.888-1.649,15.058,1.66
			c5.539,4.381,11.272,6.603,17.026,6.603c23.141,0,42.691-33.769,42.691-73.736c0-39.975-19.544-73.749-42.691-73.749
			c-5.411,0-10.796,1.963-16.021,5.84c-2.645,2.518-6.174,3.948-9.853,3.948c-7.861,0-14.254-6.398-14.254-14.253V107.428
			c0-7.855,6.398-14.248,14.254-14.248h85.077c-3.632-7.578-5.503-15.652-5.503-23.924C103.104,31.064,144.04,0,194.355,0
			s91.25,31.07,91.25,69.256c0,8.272-1.88,16.346-5.503,23.924h85.062c7.86,0,14.256,6.398,14.256,14.248v93.133
			c7.224-3.257,14.86-4.938,22.639-4.938c38.184,0,69.244,40.938,69.244,91.256c0,50.312-31.066,91.244-69.244,91.244
			c-7.778,0-15.415-1.678-22.639-4.936v93.137C379.409,474.186,373.025,480.574,365.158,480.574z M250.989,462.417h110.274V337.108
			l14.954,12.685c7.844,6.662,16.774,10.173,25.842,10.173c28.171,0,51.093-32.781,51.093-73.087s-22.928-73.104-51.093-73.104
			c-9.067,0-18.004,3.517-25.848,10.173l-14.96,12.688V111.332H242.764l13.595-15.144c7.246-8.074,11.076-17.389,11.076-26.938
			c0-28.176-32.784-51.099-73.086-51.099c-40.305,0-73.092,22.922-73.092,51.099c0,9.549,3.83,18.864,11.083,26.938l13.595,15.144
			H27.429v93.272c6.996-4.111,14.363-6.18,21.976-6.18c34.12,0,60.849,40.365,60.849,91.901s-26.729,91.9-60.849,91.9
			c-7.619,0-14.986-2.081-21.976-6.183v86.374h110.277c-11.547-11.827-17.999-26.924-17.999-42.693
			c0-36.187,33.481-65.64,74.641-65.64c41.157,0,74.641,29.447,74.641,65.64C268.99,435.487,262.536,450.59,250.989,462.417z"/>
	</g>
</g>

</svg>
