<?xml version="1.0" encoding="iso-8859-1"?>
<!-- Generator: Adobe Illustrator 16.0.0, SVG Export Plug-In . SVG Version: 6.00 Build 0)  -->
<!DOCTYPE svg PUBLIC "-//W3C//DTD SVG 1.1//EN" "http://www.w3.org/Graphics/SVG/1.1/DTD/svg11.dtd">
<svg version="1.1" id="Capa_1" xmlns="http://www.w3.org/2000/svg" xmlns:xlink="http://www.w3.org/1999/xlink" x="0px" y="0px"
	 width="81.181px" height="81.18px" viewBox="0 0 81.181 81.18" style="enable-background:new 0 0 81.181 81.18;"
	 xml:space="preserve">
<g id="puzzle" viewBox="0 0 81.181 81.18" stroke="none">
	 <path d="M74.186,54.506c-1.102,0-2.176,0.418-3.107,1.209v-8.127c0.627-0.139,1.099-0.695,1.099-1.363v-9.127
		c0.707,0.319,1.456,0.484,2.218,0.484c3.742,0,6.786-4.011,6.786-8.941c0-4.932-3.044-8.943-6.786-8.943
		c-0.762,0-1.511,0.165-2.218,0.484v-9.126c0-0.771-0.627-1.396-1.397-1.396h-8.336c0.356-0.743,0.541-1.534,0.541-2.345
		c0-3.742-4.013-6.787-8.942-6.787c-4.931,0-8.942,3.045-8.942,6.787c0,0.811,0.184,1.602,0.539,2.345H37.3
		c-0.77,0-1.396,0.626-1.396,1.396v0.263H24.6l0.787,1.341c0.32,0.546,0.483,1.119,0.483,1.703c0,2.797-3.642,5.073-8.116,5.073
		s-8.116-2.276-8.116-5.073c0-0.584,0.163-1.157,0.483-1.703l0.788-1.341H0v13.81l1.511-1.476c0.998-0.975,2.263-1.512,3.562-1.512
		c3.057,0,5.543,2.883,5.543,6.426c0,3.542-2.486,6.424-5.543,6.424c-1.299,0-2.563-0.536-3.562-1.511L0,32.004v13.808h11.248
		c-0.791,0.932-1.209,2.007-1.209,3.108c0,3.25,3.612,5.896,8.053,5.896s8.053-2.646,8.053-5.896c0-1.103-0.418-2.178-1.208-3.108
		h10.967v0.413c0,0.508,0.275,0.949,0.682,1.193v8.635l1.34-0.787c0.547-0.32,1.12-0.483,1.703-0.483
		c2.797,0,5.072,3.642,5.072,8.116s-2.275,8.115-5.072,8.115c-0.584,0-1.157-0.162-1.703-0.482l-1.34-0.788v10.909h13.809
		l-1.476-1.512c-0.976-0.998-1.511-2.262-1.511-3.562c0-3.056,2.882-5.541,6.425-5.541c3.542,0,6.425,2.485,6.425,5.541
		c0,1.299-0.537,2.562-1.512,3.562l-1.477,1.512h13.809V69.404c0.933,0.791,2.007,1.208,3.107,1.208
		c3.252,0,5.896-3.611,5.896-8.053C80.082,58.12,77.438,54.506,74.186,54.506z M37.683,11.439h11.613l-1.333-1.484
		c-0.71-0.791-1.086-1.704-1.086-2.64c0-2.762,3.213-5.008,7.163-5.008c3.948,0,7.161,2.246,7.161,5.008
		c0,0.936-0.375,1.849-1.086,2.64l-1.332,1.484h11.613v12.278l1.465-1.243c0.769-0.652,1.645-0.997,2.531-0.997
		c2.762,0,5.008,3.214,5.008,7.164c0,3.949-2.246,7.162-5.008,7.162c-0.888,0-1.764-0.345-2.531-0.997l-1.465-1.243v10.906h-9.783
		c0.026-0.049,0.052-0.096,0.076-0.146c0.779-0.924,1.194-1.987,1.194-3.09c0-2.299-1.812-4.29-4.438-5.263
		c-1.019-0.474-2.176-0.745-3.406-0.745c-0.771,0-1.514,0.107-2.213,0.303c-3.473,0.655-6.049,2.961-6.049,5.705
		c0,1.159,0.455,2.276,1.313,3.233h-9.41v-7.09c0.686,0.402,1.407,0.605,2.153,0.605c3.344,0,5.963-3.955,5.963-9.005
		c0-5.051-2.619-9.006-5.963-9.006c-0.746,0-1.468,0.203-2.153,0.605v-9.137H37.683z M36.184,35.832v-0.527
		c0.094,0.084,0.19,0.162,0.288,0.238C36.361,35.626,36.265,35.722,36.184,35.832z"/>
</g>

</svg>
