<svg  xmlns="http://www.w3.org/2000/svg" version="1.1" xmlns:xlink="http://www.w3.org/1999/xlink" width="17" height="17" viewBox="-1 -1 19 19">
  <defs >
    <clipPath id="SvgjsClipPath1144">
      <path d="M72 175.5C72 170.80558 75.80558 167 80.5 167C85.19442 167 89 170.80558 89 175.5C89 180.19442 85.19442 184 80.5 184C75.80558 184 72 180.19442 72 175.5Z " fill="#ffffff"></path>
    </clipPath>
  </defs>
  <g id="query-group">
    <path  d="M72 175.5C72 170.80558 75.80558 167 80.5 167C85.19442 167 89 170.80558 89 175.5C89 180.19442 85.19442 184 80.5 184C75.80558 184 72 180.19442 72 175.5Z " fill="#ffffff" fill-opacity="1" transform="matrix(1,0,0,1,-72,-167)"></path>
    <path  d="M72 175.5C72 170.80558 75.80558 167 80.5 167C85.19442 167 89 170.80558 89 175.5C89 180.19442 85.19442 184 80.5 184C75.80558 184 72 180.19442 72 175.5Z " fill-opacity="0" fill="#ffffff" stroke-dashoffset="0" stroke-linejoin="miter" stroke-linecap="butt" stroke-opacity="1" stroke="#22b980" stroke-miterlimit="50" stroke-width="1" clip-path="url(&quot;#SvgjsClipPath1144&quot;)" transform="matrix(1,0,0,1,-72,-167)"></path>
    <path  d="M82.21 175.61C82.21 176.5 81.49 177.21 80.61 177.21C79.72 177.21 79 176.5 79 175.61C79 174.72000000000003 79.72 174 80.61 174C81.49 174 82.21 174.72 82.21 175.61Z " fill-opacity="0" fill="#ffffff" stroke-dashoffset="0" stroke-linejoin="round" stroke-linecap="butt" stroke-opacity="1" stroke="#22b980" stroke-miterlimit="50" stroke-width="1" transform="matrix(1,0,0,1,-72,-167)"></path>
    <path  d="M84.46 175.82C84.46 175.51999999999998 84.41999999999999 175.23 84.36 174.95L85.42 174.33999999999997L84.35000000000001 172.47999999999996L83.32000000000001 173.09999999999997C82.9 172.69999999999996 82.39 172.39999999999998 81.86000000000001 172.22999999999996V170.99999999999997H79.72000000000001V172.22999999999996C79.18 172.39999999999995 78.60000000000001 172.69999999999996 78.18 173.09999999999997L77.09 172.47999999999996L76.01 174.33999999999997L77.07000000000001 174.95C77.00000000000001 175.23 76.96000000000001 175.51999999999998 76.96000000000001 175.82C76.96000000000001 176.12 77.00000000000001 176.41 77.07000000000001 176.69L76.00000000000001 177.3L77.07000000000001 179.16000000000003L78.18 178.54000000000002C78.60000000000001 178.94000000000003 79.18 179.24 79.72000000000001 179.41000000000003V180.64000000000001H81.86000000000001V179.41000000000003C82.39000000000001 179.24000000000004 82.90000000000002 178.94000000000003 83.32000000000001 178.54000000000002L84.37 179.16000000000003L85.43 177.3L84.36000000000001 176.69C84.43 176.41 84.46000000000001 176.12 84.46000000000001 175.82Z " fill-opacity="0" fill="#ffffff" stroke-dashoffset="0" stroke-linejoin="round" stroke-linecap="butt" stroke-opacity="1" stroke="#22b980" stroke-miterlimit="50" stroke-width="1" transform="matrix(1,0,0,1,-72,-167)"></path>
  </g>
</svg>