<svg xmlns="http://www.w3.org/2000/svg" version="1.1" xmlns:xlink="http://www.w3.org/1999/xlink" width="24" height="24" viewBox="0 0 24 24">
  <g fill="#666" stroke="#666" >
    <g id="query-perspective">
      <path stroke-miterlimit="50" stroke-linecap="round" stroke-linejoin="round" stroke-dashoffset="0" fill="#ffffff" fill-opacity="0" d="m20.5,10.5c0,5.52 -4.48,10 -10,10c-5.52,0 -10,-4.48 -10,-10c0,-5.52 4.48,-10 10,-10c5.52,0 10,4.48 10,10z" />
      <path stroke-miterlimit="50" stroke-linecap="round" stroke-linejoin="round" stroke-dashoffset="0" fill="#ffffff" fill-opacity="0" d="m17.5,17.5l5.93,5.93" />
      <path stroke-miterlimit="50" stroke-linejoin="round" stroke-dashoffset="0" fill="#ffffff" fill-opacity="0" d="m15.26,15.05l1.5,-2.6l-1.5,-0.86c0.15,-0.71 0.16,-1.42 0,-2.17l1.5,-0.87l-1.5,-2.6l-1.45,0.87c-0.53,-0.49 -1.31,-0.87 -1.81,-1.09l0,-1.73l-3,0l0,1.73c-1,0.22 -1.4,0.6 -1.94,1.09l-1.53,-0.87l-1.51,2.6l1.49,0.87c-0.16,0.7 -0.17,1.41 -0.01,2.17l-1.5,0.86l1.5,2.6l1.56,-0.87c0.54,0.49 0.94,0.87 1.94,1.09l0,1.73l3,0l0,-1.73c0.5,-0.22 1.28,-0.6 1.82,-1.09l1.44,0.87z" />
      <path stroke-miterlimit="50" stroke-linejoin="round" stroke-dashoffset="0" fill="#ffffff" fill-opacity="0" d="m12.5,10.5c0,1.1 -0.89,2 -2,2c-1.1,0 -2,-0.9 -2,-2c0,-1.1 0.9,-2 2,-2c1.11,0 2,0.9 2,2z" />
    </g>
  </g>
</svg>