<?xml version="1.0" encoding="UTF-8" standalone="no"?>
<svg width="18px" height="18px" xmlns="http://www.w3.org/2000/svg">
  <g stroke="#666" fill="white">
    <g id="restart-application" viewBox="0 0 18 18" stroke-width="1" fill="none" stroke-linecap="round" >
      <path d="M7.39257812,5.51904296 C3.74318682,5.51904296 0.520019528,4.66713049 0.520019528,3.13043483 C0.520019528,1.59373918 3.61168705,0.486206048 7.26107835,0.486206048 C10.9104697,0.486206048 13.5324707,1.59373909 13.5324707,3.13043475 C13.5324707,4.6671304 11.0419694,5.51904296 7.39257812,5.51904296 Z" id="Stroke-9206"></path>
      <path d="M8.37231445,8.53173828 C8.03214054,8.5546948 7.59489491,8.53173828 7.2401123,8.53173828 C3.590721,8.53173828 0.515380856,7.35090464 0.515380856,5.81420898" id="Stroke-9207"></path>
      <path d="M7.51892113,11.5321045 C3.86952983,11.5321045 0.533325192,10.6902601 0.533325192,9.15356446" id="Stroke-9208"></path>
      <path d="M7.4901123,14.5244141 C3.840721,14.5244141 0.518432614,13.6630384 0.518432614,12.1263428 L0.518432614,3.11132812" id="Stroke-9209"></path>
      <path d="M13.5222168,3.07019043 L13.5222168,6.47741699" id="Stroke-9210"></path>
      <path d="M16.6523826,10.4347826 L16.6523826,12.173913 L14.9132522,12.173913" id="Stroke-9211"></path>
      <path d="M10.391513,15.6521739 L10.391513,14.2608696 L11.7828174,14.2608696" id="Stroke-9212"></path>
      <path d="M10.5695304,12.1735652 C10.9994435,10.9575652 12.1590957,10.0866087 13.5218783,10.0866087 C14.8853565,10.0866087 16.1931826,10.9436522 16.6230957,12.1589565" id="Stroke-9213"></path>
      <path d="M16.4744348,14.2608696 C16.0445217,15.4768696 14.8848696,16.3478261 13.522087,16.3478261 C12.1593043,16.3478261 10.8354783,15.4907826 10.4055652,14.2754783" id="Stroke-9214"></path>
    </g>
  </g>
</svg>
