<?xml version="1.0" encoding="UTF-8" standalone="no"?>
<svg width="18px" height="18px" viewBox="0 0 18 18" version="1.1" xmlns="http://www.w3.org/2000/svg" xmlns:xlink="http://www.w3.org/1999/xlink" xmlns:sketch="http://www.bohemiancoding.com/sketch/ns">
  <!-- Generator: Sketch 3.3.2 (12043) - http://www.bohemiancoding.com/sketch -->
  <title>save</title>
  <desc>Created with Sketch.</desc>
  <defs></defs>
  <g fill="#666" stroke="#666">
    <g id="save" viewBox="0 0 18 18" stroke-width="1" fill="none" fill-rule="evenodd">
      <g transform="translate(-481.000000, -254.000000)" stroke-linecap="round" stroke-linejoin="round">
        <g transform="translate(482.000000, 255.000000)">
          <path d="M2.79429933,0.507223609 L0.528515062,2.79663392 L0.528515062,15.5115852 L15.5269053,15.5115852 L15.5269053,0.507223609 L2.79429933,0.507223609 Z"></path>
          <path d="M12.5266303,3.58695643 L3.5494308,3.58695646 L3.5494308,0.506055284 L12.5266303,0.506055284 L12.5266303,3.58695643 Z" ></path>
          <path d="M3.58123539,15.5098978 L12.5615506,15.5098978 L12.5615506,13.5629383 L3.58123539,13.5629383 L3.58123539,15.5098978 Z" ></path>
          <path d="M10.5357397,7.74153458 C10.5357397,8.99396569 9.52030094,10.0094044 8.26786983,10.0094044 C7.01543871,10.0094044 6,8.99396569 6,7.74153458 C6,6.48910346 7.01543871,5.47366475 8.26786983,5.47366475 C9.52030094,5.47366475 10.5357397,6.48910346 10.5357397,7.74153458 L10.5357397,7.74153458 Z"></path>
          <path d="M8.53573965,12.0652174 L11.5492561,12.0652174"></path>
        </g>
      </g>
    </g>
  </g>
</svg>