<?xml version="1.0" encoding="utf-8"?>
<!DOCTYPE svg PUBLIC "-//W3C//DTD SVG 1.1//EN" "http://www.w3.org/Graphics/SVG/1.1/DTD/svg11.dtd"[]>
<svg xmlns="http://www.w3.org/2000/svg" viewBox="0 0 25 25">
  <g fill="#999">
    <g id="scale" stroke="none" >
      <g>
        <path d="M25,23.077v0.962c0,0.531-0.43,0.962-0.962,0.962h-0.962c-0.531,0-0.962-0.43-0.962-0.962
		s0.43-0.962,0.962-0.962c0-0.531,0.43-0.962,0.962-0.962S25,22.545,25,23.077z M24.038,10.538c-0.531,0-0.962,0.43-0.962,0.961v2
		c0,0.531,0.43,0.961,0.962,0.961S25,14.031,25,13.5v-2C25,10.969,24.57,10.538,24.038,10.538z M24.038,4.75
		c-0.531,0-0.962,0.431-0.962,0.962v2c0,0.531,0.43,0.962,0.962,0.962S25,8.242,25,7.711v-2C25,5.18,24.57,4.75,24.038,4.75z
		 M24.038,16.326c-0.531,0-0.962,0.43-0.962,0.962v2c0,0.531,0.43,0.962,0.962,0.962S25,19.82,25,19.288v-2
		C25,16.756,24.57,16.326,24.038,16.326z M24.038,0h-0.962c-0.531,0-0.962,0.431-0.962,0.962s0.43,0.962,0.962,0.962
		c0,0.531,0.43,0.962,0.962,0.962S25,2.454,25,1.923V0.962C25,0.431,24.57,0,24.038,0z M17.288,1.923h2
		c0.531,0,0.962-0.431,0.962-0.962S19.82,0,19.288,0h-2c-0.531,0-0.962,0.431-0.962,0.962S16.757,1.923,17.288,1.923z M5.711,1.923
		h2c0.531,0,0.962-0.431,0.962-0.962S8.242,0,7.712,0h-2C5.18,0,4.75,0.431,4.75,0.962S5.18,1.923,5.711,1.923z M11.5,1.923h2
		c0.531,0,0.961-0.431,0.961-0.962S14.031,0,13.5,0h-2c-0.531,0-0.961,0.431-0.961,0.962S10.969,1.923,11.5,1.923z M0.962,2.885
		c0.531,0,0.962-0.431,0.962-0.962c0.531,0,0.962-0.431,0.962-0.962S2.454,0,1.923,0H0.962C0.431,0,0,0.431,0,0.962v0.962
		C0,2.454,0.431,2.885,0.962,2.885z M0.962,8.673c0.531,0,0.962-0.431,0.962-0.962v-2c0-0.531-0.431-0.962-0.962-0.962
		S0,5.18,0,5.711v2C0,8.242,0.431,8.673,0.962,8.673z M19.288,23.077h-2c-0.531,0-0.962,0.43-0.962,0.962s0.43,0.962,0.962,0.962h2
		c0.531,0,0.962-0.43,0.962-0.962S19.82,23.077,19.288,23.077z M20.677,3.905l-5.95,0.743c-0.263,0.032-0.324,0.213-0.138,0.399
		l2.038,2.038l-6.375,6.376H1.923V11.5c0-0.531-0.431-0.961-0.962-0.961S0,10.969,0,11.5v2c0,0.171,0.056,0.323,0.134,0.461
		C0.056,14.1,0,14.252,0,14.423v2.865v2v3.789v0.962c0,0.531,0.431,0.962,0.962,0.962h0.962h3.788h2h2.866
		c0.171,0,0.323-0.056,0.462-0.134C11.177,24.944,11.33,25,11.5,25h2c0.531,0,0.961-0.43,0.961-0.962s-0.43-0.962-0.961-0.962
		h-1.962V14.75l6.376-6.377l2.036,2.036c0.188,0.187,0.367,0.125,0.4-0.138l0.743-5.95C21.128,4.061,20.939,3.872,20.677,3.905z"/>
      </g>
    </g>
  </g>
</svg>
