<?xml version="1.0" encoding="iso-8859-1"?>
<!-- Generator: Adobe Illustrator 16.0.0, SVG Export Plug-In . SVG Version: 6.00 Build 0)  -->
<!DOCTYPE svg PUBLIC "-//W3C//DTD SVG 1.1//EN" "http://www.w3.org/Graphics/SVG/1.1/DTD/svg11.dtd">
<svg version="1.1" id="Capa_1" xmlns="http://www.w3.org/2000/svg" xmlns:xlink="http://www.w3.org/1999/xlink" x="0px" y="0px"
	 width="18px" height="18px" viewBox="0 0 413.601 413.601" style="enable-background:new 0 0 413.601 413.601;"
	 xml:space="preserve">
  <g stroke="#666" fill="#666"> 
<g id="selection" viewBox="0 0 413.601 413.601">
	<path d="M395.442,368.206h18.158v45.395h-45.396v-18.158h27.237V368.206z M109.958,413.601h64.563v-18.158h-64.563V413.601z
		 M239.079,413.601h64.563v-18.158h-64.563V413.601z M18.158,368.206H0v45.395h45.395v-18.158H18.158V368.206z M18.158,239.079H0
		v64.562h18.158V239.079z M18.158,109.958H0v64.563h18.158V109.958z M0,45.395h18.158V18.158h27.237V0H0V45.395z M174.521,0h-64.563
		v18.158h64.563V0z M239.079,18.158h64.563V0h-64.563V18.158z M368.205,0v18.158h27.237v27.237h18.158V0H368.205z M395.442,303.642
		h18.158v-64.562h-18.158V303.642z M395.442,174.521h18.158v-64.563h-18.158V174.521z"/>
</g>
</g>
</svg>
