<?xml version="1.0" encoding="UTF-8" standalone="no"?>
<svg width="18px" height="19px" xmlns="http://www.w3.org/2000/svg" viewBox="0 0 18 19">
  <g stroke="#666" fill="white">
    <g id="seoassistant" stroke-width="1" fill="none" fill-rule="evenodd" stroke-linecap="round" stroke-linejoin="round">
      <path d="M0.507446294,16.5338745 L16.5701904,16.5338745" id="Stroke-4459"></path>
      <path d="M3.52227791,12.5444946 L1.5180664,12.5444946 L1.5180664,16.5374756 L3.52227791,16.5374756 L3.52227791,12.5444946 Z" id="Stroke-4460" fill="#FFFFFF"></path>
      <path d="M7.52227783,9.51342773 L5.5180664,9.51342773 L5.5180664,16.5374756 L7.52227791,16.5374756 L7.52227783,9.51342773 Z" id="Stroke-4460-Copy" fill="#FFFFFF"></path>
      <path d="M11.5222778,10.5230713 L9.5180664,10.5230713 L9.5180664,13.3526611 L9.5180664,16.5374756 L11.5222779,16.5374756 L11.5222778,10.5230713 Z" id="Stroke-4460-Copy-2" fill="#FFFFFF"></path>
      <path d="M15.5222778,6.48461915 L13.5180664,6.48461915 L13.5180664,16.5374756 L15.5222779,16.5374756 L15.5222778,6.48461915 Z" id="Stroke-4460-Copy-3" fill="#FFFFFF"></path>
      <path d="M3.08709565,8 C3.08709565,8.384 2.77613913,8.69565217 2.39144348,8.69565217 C2.00744348,8.69565217 1.6957913,8.384 1.6957913,8 C1.6957913,7.616 2.00744348,7.30434783 2.39144348,7.30434783 C2.77613913,7.30434783 3.08709565,7.616 3.08709565,8 L3.08709565,8 Z" id="Stroke-4464" stroke-width="0.8" fill="#FFFFFF"></path>
      <path d="M7.2610087,4.52173913 C7.2610087,4.90573913 6.95005217,5.2173913 6.56535652,5.2173913 C6.18135652,5.2173913 5.86970435,4.90573913 5.86970435,4.52173913 C5.86970435,4.13773913 6.18135652,3.82608696 6.56535652,3.82608696 C6.95005217,3.82608696 7.2610087,4.13773913 7.2610087,4.52173913 L7.2610087,4.52173913 Z" id="Stroke-4465" stroke-width="0.8" fill="#FFFFFF"></path>
      <path d="M11.4349217,5.91304348 C11.4349217,6.29704348 11.1239652,6.60869565 10.7392696,6.60869565 C10.3552696,6.60869565 10.0436174,6.29704348 10.0436174,5.91304348 C10.0436174,5.52904348 10.3552696,5.2173913 10.7392696,5.2173913 C11.1239652,5.2173913 11.4349217,5.52904348 11.4349217,5.91304348 L11.4349217,5.91304348 Z" id="Stroke-4466" stroke-width="0.8" fill="#FFFFFF"></path>
      <path d="M15.6088348,1.04347826 C15.6088348,1.42747826 15.2978783,1.73913043 14.9131826,1.73913043 C14.5291826,1.73913043 14.2175304,1.42747826 14.2175304,1.04347826 C14.2175304,0.659478261 14.5291826,0.347826087 14.9131826,0.347826087 C15.2978783,0.347826087 15.6088348,0.659478261 15.6088348,1.04347826 L15.6088348,1.04347826 Z" id="Stroke-4467" stroke-width="0.8" fill="#FFFFFF"></path>
      <path d="M2.92612174,7.55471304 L6.03151304,4.96688696" id="Stroke-4468" stroke-width="0.8"></path>
      <path d="M7.22267826,4.74114783 L10.0992,5.69906087" id="Stroke-4469" stroke-width="0.8"></path>
      <path d="M14.4608,1.57133913 L11.1919304,5.38490435" id="Stroke-4470" stroke-width="0.8"></path>
    </g>
  </g>
</svg>
