<?xml version="1.0" encoding="UTF-8" standalone="no"?>
<svg width="18px" height="18px" viewBox="0 0 18 18" version="1.1" xmlns="http://www.w3.org/2000/svg" xmlns:xlink="http://www.w3.org/1999/xlink" xmlns:sketch="http://www.bohemiancoding.com/sketch/ns">

  <g fill="#666" stroke="#666">
    <g id="settings"  viewBox="0 0 18 18" fill="none">
      <g  transform="translate(-637.000000, -188.000000)" stroke-width="0.8" stroke-linecap="round" stroke-linejoin="round">
        <g  transform="translate(590.000000, 188.000000)">
          <g  transform="translate(48.000000, 1.000000)" >
            <path d="M16.3477565,9.39130435 L16.3477565,7.30434783 L14.0889739,7.30434783 C13.9435826,6.70121739 13.7056696,5.78713043 13.3912348,5.27165217 L14.9884522,3.67443478 L13.0204522,1.70713043 L11.4232348,3.30434783 C10.9070609,2.98991304 9.99436522,2.752 9.39123478,2.6066087 L9.39123478,0.347826087 L7.30427826,0.347826087 L7.30427826,2.6066087 C6.70114783,2.752 5.78706087,2.98991304 5.27227826,3.30434783 L3.67436522,1.70713043 L1.70706087,3.67443478 L3.30427826,5.27234783 C2.98984348,5.78713043 2.75193043,6.70121739 2.60584348,7.30434783 L0.347756522,7.30434783 L0.347756522,9.39130435 L2.60584348,9.39130435 C2.75193043,9.99443478 2.98984348,10.9085217 3.30427826,11.4233043 L1.70636522,13.0212174 L3.67436522,14.9885217 L5.27158261,13.3906087 C5.78706087,13.7057391 6.70114783,13.9436522 7.30427826,14.0897391 L7.30427826,16.3478261 L9.39123478,16.3478261 L9.39123478,14.0897391 C9.99436522,13.9436522 10.9077565,13.7057391 11.4232348,13.3913043 L13.0211478,14.9885217 L14.9884522,13.0212174 L13.3912348,11.4233043 C13.7056696,10.9085217 13.9435826,9.99443478 14.0896696,9.39130435 L16.3477565,9.39130435 Z" ></path>
            <path d="M11.4782609,8.34782609 C11.4782609,10.0765217 10.0765217,11.4782609 8.34782609,11.4782609 C6.61843478,11.4782609 5.2173913,10.0765217 5.2173913,8.34782609 C5.2173913,6.61913043 6.61843478,5.2173913 8.34782609,5.2173913 C10.0765217,5.2173913 11.4782609,6.61913043 11.4782609,8.34782609 L11.4782609,8.34782609 Z" ></path>
          </g>
        </g>
      </g>
    </g>
  </g>
</svg>