<?xml version="1.0" encoding="iso-8859-1"?>
<!-- Generator: Adobe Illustrator 18.0.0, SVG Export Plug-In . SVG Version: 6.00 Build 0)  -->
<!DOCTYPE svg PUBLIC "-//W3C//DTD SVG 1.1//EN" "http://www.w3.org/Graphics/SVG/1.1/DTD/svg11.dtd">
<svg version="1.1" id="Capa_1" xmlns="http://www.w3.org/2000/svg" xmlns:xlink="http://www.w3.org/1999/xlink" x="0px" y="0px"
	 viewBox="0 0 296.046 296.046" style="enable-background:new 0 0 296.046 296.046;" xml:space="preserve">
  <g id="social-videmo" viewBox="0 0 296.046 296.046" stroke="none">
    <path d="M285.175,34.009c-8.641-10.308-22.128-15.985-37.978-15.985c-17.529,0-36.306,6.864-51.516,18.831
	C178.791,50.145,167.6,68.802,164.17,89.39c-0.32,1.924,0.507,3.858,2.119,4.956c1.612,1.098,3.717,1.156,5.388,0.152
	c6.391-3.839,12.454-5.869,17.535-5.869c5.337,0,9.497,2.236,12.031,6.465c4.547,7.588,3.343,19.836-3.144,31.964
	c-20.988,39.229-32.853,48.644-35.468,48.91c-0.382-0.171-3.006-1.732-7.216-13.514c-3.364-9.416-6.93-22.834-11.248-40.085
	c-2.018-8.059-3.596-17.555-5.265-27.608c-5.824-35.063-12.426-74.805-42.345-74.805c-2.197,0-4.503,0.233-6.859,0.695
	C51.393,28.19,3.199,85.307,1.166,87.735c-1.5,1.792-1.56,4.383-0.143,6.241l6.965,9.136c1.616,2.121,4.619,2.596,6.815,1.085
	c0.119-0.082,11.95-8.146,21.642-8.146c3.676,0,6.253,1.164,8.109,3.664c3.328,4.481,14.62,41.031,23.693,70.399
	c9.952,32.214,19.355,62.648,24.425,73.193c7.478,17.298,24.223,34.717,44.841,34.717c0.001,0,0.003,0,0.005,0
	c7.706-0.001,15.341-2.42,22.691-7.189c24.147-15.659,117.719-93.291,134.353-187.011C298.261,62.973,295.015,45.748,285.175,34.009
	z"/>
  </g>

</svg>
