<?xml version="1.0" encoding="iso-8859-1"?>
<!-- Generator: Adobe Illustrator 18.0.0, SVG Export Plug-In . SVG Version: 6.00 Build 0)  -->
<!DOCTYPE svg PUBLIC "-//W3C//DTD SVG 1.1//EN" "http://www.w3.org/Graphics/SVG/1.1/DTD/svg11.dtd">
<svg version="1.1" id="Capa_1" xmlns="http://www.w3.org/2000/svg" xmlns:xlink="http://www.w3.org/1999/xlink" x="0px" y="0px"
	 viewBox="0 0 278.828 278.828" style="enable-background:new 0 0 278.828 278.828;" xml:space="preserve">
<g id="social-googleplus" viewBox="0 0 278.828 278.828" stroke="none">
	<path d="M181.378,212.558c-0.684-19.135-11.532-36.66-29.771-48.106c-10.903-9.19-15.144-18.81-15.144-28.704
		c0-5.99,5.108-13.917,5.108-13.917c11.434-17.76,14.941-41.01,9.625-63.833c-2.624-11.265-7.141-21.333-13.45-29.998h8.162
		c3.584,0,6.5-2.916,6.5-6.5v-15c0-3.584-2.916-6.5-6.501-6.5C91.762,0.023,84.997,0.032,84.047,0.043V0.039
		c-4.147,0.098-8.231,0.61-12.139,1.52C54.791,5.546,40.861,16.616,32.686,32.73c-7.862,15.495-9.704,34.703-5.188,54.086
		c8.348,35.831,36.575,61.838,67.117,61.838c4.092,0,8.187-0.471,12.169-1.399c0.739-0.172,1.492-0.368,2.266-0.59
		c0.284,1.749,0.66,3.491,1.125,5.217c-2.622-0.124-5.23-0.139-7.869-0.045c-19.905,0.711-38.531,7.596-52.448,19.387
		c-14.872,12.6-22.717,29.229-22.089,46.822c1.216,34.084,34.457,60.783,75.676,60.783c1.125,0,2.26-0.02,3.394-0.061
		c19.905-0.711,38.531-7.597,52.448-19.388C174.161,246.78,182.006,230.151,181.378,212.558z M100.431,119.986
		c-1.901,0.443-3.858,0.667-5.815,0.667c-17.664,0-34.422-16.903-39.848-40.191c-3.024-12.98-1.998-25.433,2.888-35.063
		c4.367-8.608,11.685-14.493,20.606-16.571C80.622,28.279,83.036,28,85.436,28c17.956,0,33.424,14.608,38.491,36.352
		c3.508,15.061,1.54,30.615-5.261,41.671c0,0-0.633,1.054-1.718,2.543C112.564,114.541,106.854,118.49,100.431,119.986z
		 M141.189,238.017c-9.143,7.746-21.696,12.281-35.346,12.769c-0.811,0.029-1.615,0.043-2.422,0.043
		c-26.054-0.001-46.993-14.84-47.668-33.782c-0.316-8.836,4.019-17.523,12.206-24.459c9.144-7.746,21.697-12.28,35.347-12.768
		c0.803-0.029,1.602-0.043,2.396-0.043c10.883,0,21.109,2.562,29.521,7.378c0.114,0.069,0.229,0.134,0.259,0.148
		c11.016,6.379,17.546,15.949,17.914,26.256C153.711,222.394,149.376,231.08,141.189,238.017z"/>
	<path d="M247.252,94.382h-20.92v-20.92c0-3.584-2.916-6.5-6.5-6.5h-15c-3.584,0-6.5,2.916-6.5,6.5v20.92h-20.92
		c-3.584,0-6.5,2.916-6.5,6.5v15c0,3.584,2.916,6.5,6.5,6.5h20.92v20.92c0,3.584,2.916,6.5,6.5,6.5h15c3.584,0,6.5-2.916,6.5-6.5
		v-20.92h20.92c3.584,0,6.5-2.916,6.5-6.5v-15C253.752,97.298,250.836,94.382,247.252,94.382z"/>
</g>

</svg>
