<?xml version="1.0" encoding="iso-8859-1"?>
<!-- Generator: Adobe Illustrator 18.0.0, SVG Export Plug-In . SVG Version: 6.00 Build 0)  -->
<!DOCTYPE svg PUBLIC "-//W3C//DTD SVG 1.1//EN" "http://www.w3.org/Graphics/SVG/1.1/DTD/svg11.dtd">
<svg version="1.1" id="Capa_1" xmlns="http://www.w3.org/2000/svg" xmlns:xlink="http://www.w3.org/1999/xlink" x="0px" y="0px"
	 viewBox="0 0 255.875 255.875" style="enable-background:new 0 0 255.875 255.875;" xml:space="preserve">
<g id="social-youtube"  viewBox="0 0 255.875 255.875" stroke="none">
	<path d="M85.57,58.251v45.023c0,0.829,0.671,1.5,1.5,1.5h10c0.829,0,1.5-0.671,1.5-1.5V58.251l21.379-56.218
		c0.175-0.461,0.113-0.979-0.167-1.385C119.502,0.243,119.041,0,118.547,0h-10.698c-0.622,0-1.181,0.385-1.402,0.967L92.07,38.771
		L77.693,0.967C77.472,0.385,76.914,0,76.292,0H65.593c-0.493,0-0.955,0.243-1.235,0.648c-0.28,0.406-0.342,0.924-0.167,1.385
		L85.57,58.251z"/>
	<path d="M109.503,57.149v30.033c0,10.936,8.897,19.833,19.833,19.833c10.936,0,19.834-8.897,19.834-19.833V57.149
		c0-10.936-8.897-19.833-19.834-19.833C118.4,37.316,109.503,46.213,109.503,57.149z M136.17,87.182
		c0,3.768-3.065,6.833-6.834,6.833c-3.768,0-6.833-3.065-6.833-6.833V57.149c0-3.768,3.065-6.833,6.833-6.833
		c3.768,0,6.834,3.065,6.834,6.833V87.182z"/>
	<path d="M174.404,103.191c2.404,0,4.699-0.452,6.834-1.239v1.322c0,0.829,0.671,1.5,1.5,1.5h10c0.829,0,1.5-0.671,1.5-1.5V83.358
		v-7.65V42.325c0-0.829-0.671-1.5-1.5-1.5h-10c-0.829,0-1.5,0.671-1.5,1.5v33.383v7.65c0,3.768-3.065,6.833-6.834,6.833
		c-3.768,0-6.833-3.065-6.833-6.833V42.325c0-0.829-0.671-1.5-1.5-1.5h-10c-0.829,0-1.5,0.671-1.5,1.5v41.033
		C154.57,94.294,163.468,103.191,174.404,103.191z"/>
	<g>
		<path d="M150.325,179.343c-3.768,0-6.833,3.065-6.833,6.833v25.033c0,3.768,3.065,6.833,6.833,6.833s6.834-3.065,6.834-6.833
			v-25.033C157.159,182.408,154.093,179.343,150.325,179.343z"/>
		<path d="M193.6,178.843c-3.768,0-6.833,3.065-6.833,6.833v4.567h13.667v-4.567C200.433,181.908,197.368,178.843,193.6,178.843z"/>
		<path d="M197.938,115.875h-140c-29.307,0-53.15,23.843-53.15,53.149v33.7c0,29.307,23.843,53.15,53.15,53.15h140
			c29.307,0,53.15-23.843,53.15-53.15v-33.7C251.088,139.718,227.245,115.875,197.938,115.875z M76.692,224.625
			c0,0.829-0.671,1.5-1.5,1.5h-10c-0.829,0-1.5-0.671-1.5-1.5v-71h-14.75c-0.829,0-1.5-0.671-1.5-1.5v-10c0-0.829,0.671-1.5,1.5-1.5
			h42.5c0.829,0,1.5,0.671,1.5,1.5v10c0,0.829-0.671,1.5-1.5,1.5h-14.75V224.625z M124.609,200.125v10.233v19.607
			c0,0.829-0.671,1.5-1.5,1.5h-10c-0.829,0-1.5-0.671-1.5-1.5v-1.013c-2.134,0.787-4.429,1.239-6.834,1.239
			c-10.936,0-19.833-7.545-19.833-19.833v-33.399c0-0.829,0.671-1.5,1.5-1.5h10c0.829,0,1.5,0.671,1.5,1.5v33.399
			c0,3.768,3.065,6.833,6.833,6.833c3.768,0,6.834-3.065,6.834-6.833v-10.233v-23.167c0-0.829,0.671-1.5,1.5-1.5h10
			c0.829,0,1.5,0.671,1.5,1.5V200.125z M170.159,211.209c0,10.936-8.897,19.833-19.833,19.833c-2.404,0-4.699-0.452-6.833-1.239
			v1.096c0,0.829-0.671,1.5-1.5,1.5h-10c-0.829,0-1.5-0.671-1.5-1.5v-19.69v-25.033v-42.051c0-0.829,0.671-1.5,1.5-1.5h10
			c0.829,0,1.5,0.671,1.5,1.5v23.456c2.134-0.787,4.429-1.239,6.833-1.239c10.936,0,19.833,8.897,19.833,19.833V211.209z
			 M213.433,201.743c0,0.829-0.671,1.5-1.5,1.5h-25.167v7.966c0,3.768,3.065,6.833,6.833,6.833c3.768,0,6.834-3.065,6.834-6.833
			c0-0.829,0.671-1.5,1.5-1.5h10c0.829,0,1.5,0.671,1.5,1.5c0,10.936-8.898,19.833-19.834,19.833
			c-10.936,0-19.833-8.897-19.833-19.833v-25.533c0-10.936,8.898-19.833,19.833-19.833c10.936,0,19.834,8.897,19.834,19.833V201.743
			z"/>
	</g>
</g>

</svg>
