<?xml version="1.0" encoding="iso-8859-1"?>
<!-- Generator: Adobe Illustrator 18.0.0, SVG Export Plug-In . SVG Version: 6.00 Build 0)  -->
<!DOCTYPE svg PUBLIC "-//W3C//DTD SVG 1.1//EN" "http://www.w3.org/Graphics/SVG/1.1/DTD/svg11.dtd">
<svg version="1.1" id="Capa_1" xmlns="http://www.w3.org/2000/svg" xmlns:xlink="http://www.w3.org/1999/xlink" x="0px" y="0px"
	 viewBox="0 0 290 290" style="enable-background:new 0 0 290 290;" xml:space="preserve">
  <g fill="#666" stroke="#666">
<g id="social-instagram" viewBox="0 0 290 290" stroke="none">
	<path d="M250.626,0H39.374C17.663,0,0,17.663,0,39.374v211.252C0,272.338,17.663,290,39.374,290h211.252
		C272.337,290,290,272.338,290,250.626V39.374C290,17.663,272.337,0,250.626,0z M145,215.846c-35.762,0-64.856-29.094-64.856-64.856
		c0-35.761,29.095-64.856,64.856-64.856s64.856,29.095,64.856,64.856C209.856,186.752,180.762,215.846,145,215.846z
		 M265.447,103.115H206.85C192.058,85.407,169.823,74.122,145,74.122s-47.058,11.286-61.85,28.993H24.553V46.804
		c0-14.313,11.645-25.957,25.958-25.957h188.979c14.313,0,25.958,11.644,25.958,25.957V103.115z"/>
	<path d="M145,109.296c-22.989,0-41.694,18.704-41.694,41.693c0,22.99,18.704,41.693,41.694,41.693s41.694-18.703,41.694-41.693
		C186.694,128,167.989,109.296,145,109.296z"/>
	<path d="M233.488,37.491h-25.093c-5.735,0-10.401,4.667-10.401,10.402v25.093c0,5.735,4.665,10.401,10.401,10.401h25.093
		c5.735,0,10.401-4.665,10.401-10.401V47.893C243.889,42.157,239.223,37.491,233.488,37.491z"/>
</g>
</g>
</svg>
