<?xml version="1.0" encoding="iso-8859-1"?>
<!-- Generator: Adobe Illustrator 18.0.0, SVG Export Plug-In . SVG Version: 6.00 Build 0)  -->
<!DOCTYPE svg PUBLIC "-//W3C//DTD SVG 1.1//EN" "http://www.w3.org/Graphics/SVG/1.1/DTD/svg11.dtd">
<svg version="1.1" id="Capa_1" xmlns="http://www.w3.org/2000/svg" xmlns:xlink="http://www.w3.org/1999/xlink" x="0px" y="0px"
	 viewBox="0 0 293.828 293.828" style="enable-background:new 0 0 293.828 293.828;" xml:space="preserve">
  <g fill="#666" stroke="#666">
    <g id="social-skype"  viewBox="0 0 293.828 293.828" stroke="none">
      <path d="M284.642,174.604c1.668-8.685,2.513-17.513,2.513-26.267c0-76.523-62.273-138.779-138.817-138.779
	c-6.598,0-13.273,0.478-19.87,1.422C115.764,3.792,101.383,0,86.758,0C39.975,0,1.914,38.066,1.914,84.856
	c0,13.689,3.356,27.279,9.721,39.422c-1.388,7.92-2.091,16.004-2.091,24.058c0,76.531,62.263,138.794,138.793,138.794
	c7.368,0,14.725-0.578,21.893-1.719c11.426,5.511,24.127,8.416,36.843,8.416c46.782,0,84.842-38.062,84.842-84.847
	C291.912,196.992,289.467,185.436,284.642,174.604z M144.059,127.973c1.886,0.611,3.814,1.236,5.779,1.887
	c2.589,0.856,5.299,1.696,7.92,2.508c10.849,3.361,22.067,6.837,31.239,13.356c12.093,8.596,18.225,20.765,18.225,36.167
	c0,14.151-6.257,26.514-17.619,34.809c-10.153,7.413-24.142,11.331-40.453,11.331c-48.718,0-60.419-28.631-62.845-37.405
	c-2.207-7.985,2.477-16.248,10.461-18.455c7.982-2.204,16.247,2.477,18.455,10.461c2.705,9.787,15.071,15.399,33.929,15.399
	c8.44,0,28.072-1.572,28.072-16.14c0-10.664-5.698-13.851-28.343-20.868c-2.755-0.854-5.604-1.736-8.467-2.684
	c-1.907-0.631-3.777-1.237-5.605-1.83c-11.4-3.696-22.168-7.187-30.633-13.165c-11.199-7.909-16.878-19.123-16.878-33.329
	c0-21.975,21.084-44.221,61.38-44.221c34.518,0,50.294,15.104,57.45,27.773c4.074,7.213,1.529,16.363-5.684,20.438
	c-7.213,4.074-16.362,1.53-20.438-5.684c-1.75-3.099-7.076-12.527-31.329-12.527c-20.475,0-31.38,8.259-31.38,14.221
	C117.296,117.657,119.603,120.044,144.059,127.973z"/>
    </g>
  </g>

</svg>
