<?xml version="1.0" encoding="iso-8859-1"?>
<!-- Generator: Adobe Illustrator 18.0.0, SVG Export Plug-In . SVG Version: 6.00 Build 0)  -->
<!DOCTYPE svg PUBLIC "-//W3C//DTD SVG 1.1//EN" "http://www.w3.org/Graphics/SVG/1.1/DTD/svg11.dtd">
<svg version="1.1" id="Capa_1" xmlns="http://www.w3.org/2000/svg" xmlns:xlink="http://www.w3.org/1999/xlink" x="0px" y="0px"
	 viewBox="0 0 290 290" style="enable-background:new 0 0 290 290;" xml:space="preserve">
  <g id="social-facebook" viewBox="0 0 290 290" stroke="none">
    <path d="M205.807,0h-15.694c-43.62,0-79.107,35.488-79.107,79.108v33.386H84.193c-2.761,0-5,2.239-5,5v40c0,2.761,2.239,5,5,5
	h26.811V285c0,2.761,2.239,5,5,5h40c2.761,0,5-2.239,5-5V162.494h39.786c2.761,0,5-2.239,5-5v-40c0-2.761-2.239-5-5-5h-39.786
	V79.108c0-16.05,13.058-29.108,29.107-29.108h15.694c2.761,0,5-2.239,5-5V5C210.807,2.239,208.568,0,205.807,0z"/>
  </g>


</svg>
