<?xml version="1.0" encoding="iso-8859-1"?>
<!-- Generator: Adobe Illustrator 16.0.0, SVG Export Plug-In . SVG Version: 6.00 Build 0)  -->
<!DOCTYPE svg PUBLIC "-//W3C//DTD SVG 1.1//EN" "http://www.w3.org/Graphics/SVG/1.1/DTD/svg11.dtd">
<svg version="1.1" id="Capa_1" xmlns="http://www.w3.org/2000/svg" xmlns:xlink="http://www.w3.org/1999/xlink" x="0px" y="0px"
	 width="754.537px" height="754.536px" viewBox="0 0 754.537 754.536" style="enable-background:new 0 0 754.537 754.536;"
	 xml:space="preserve">
<g>
	<g>
		<g id="specialchar" viewBox="0 0 754.537 754.536">
			<path d="M598.116,5.361c3.537-5.453,10.833-7,16.262-3.463c5.453,3.537,7.001,10.809,3.464,16.262L141.069,749.174
				c-3.537,5.454-10.808,7.001-16.262,3.464c-5.453-3.537-7-10.833-3.463-16.262L598.116,5.361z"/>
			<path d="M94.863,165.081c0,32.572,13.191,62.05,34.488,83.347l0.049,0.049c21.297,21.297,50.775,34.488,83.347,34.488
				c32.573,0,62.05-13.215,83.348-34.513l0.614-0.565c20.954-21.248,33.924-50.504,33.924-82.807
				c0-32.597-13.191-62.075-34.489-83.348v-0.024l-0.024,0.024c-21.322-21.322-50.799-34.538-83.372-34.538
				c-32.572,0-62.05,13.191-83.347,34.489l-0.049,0.049C108.054,103.03,94.863,132.507,94.863,165.081L94.863,165.081z
				 M112.77,265.106l-0.024-0.024l-0.024-0.024c-25.597-25.622-41.441-60.995-41.441-99.978s15.844-74.333,41.44-99.953v-0.024
				l0.024-0.025l0.024-0.024c25.621-25.596,60.969-41.44,99.978-41.44c39.058,0,74.455,15.844,100.027,41.416v0.049
				c25.621,25.621,41.465,60.994,41.465,100.002c0,38.64-15.549,73.743-40.777,99.29l-0.664,0.737
				c-25.572,25.572-60.969,41.416-100.026,41.416C173.764,306.546,138.416,290.703,112.77,265.106L112.77,265.106z"/>
			<path d="M212.773,82.567c6.509,0,11.791,5.281,11.791,11.791c0,6.509-5.306,11.791-11.791,11.791
				c-16.311,0-31.05,6.583-41.686,17.195l-0.024,0.049l0.024,0.024c-10.637,10.637-17.269,25.4-17.269,41.662
				c0,6.509-5.281,11.791-11.791,11.791c-6.509,0-11.791-5.281-11.791-11.791c0-22.796,9.261-43.43,24.172-58.341l0.024,0.024
				C169.392,91.805,190.026,82.567,212.773,82.567z"/>
			<path d="M423.904,589.603c0,32.572,13.191,62.074,34.489,83.348l0.023,0.023l0.024-0.023
				c21.322,21.322,50.8,34.538,83.348,34.538c32.572,0,62.074-13.191,83.348-34.488l0.05-0.05
				c21.271-21.297,34.464-50.774,34.464-83.347c0-32.573-13.191-62.075-34.464-83.349l-0.024-0.023l-0.025,0.023
				c-21.32-21.322-50.799-34.513-83.347-34.513c-32.598,0-62.075,13.189-83.348,34.464l-0.049,0.049
				C437.095,527.553,423.904,557.056,423.904,589.603L423.904,589.603z M441.788,689.63
				c-25.621-25.621-41.465-60.994-41.465-100.002c0-38.984,15.844-74.332,41.415-99.953l0.024-0.023l0.024-0.024l0.024-0.024
				c25.62-25.62,60.969-41.439,99.978-41.439c39.059,0,74.455,15.844,100.026,41.439l-0.024,0.024
				c25.621,25.62,41.465,60.993,41.465,100.002c0,39.008-15.844,74.356-41.439,99.979l-0.024,0.023l-0.023,0.024l-0.024,0.023
				c-25.621,25.598-60.97,41.44-99.978,41.44c-39.059,0-74.455-15.868-100.053-41.44L441.788,689.63z"/>
			<path d="M541.814,507.091c6.51,0,11.791,5.281,11.791,11.791s-5.281,11.791-11.791,11.791c-16.312,0-31.05,6.583-41.688,17.22
				l-0.023,0.024l0.023,0.024c-10.66,10.66-17.269,25.399-17.269,41.661c0,6.51-5.307,11.791-11.791,11.791
				c-6.51,0-11.791-5.281-11.791-11.791c0-22.796,9.261-43.431,24.172-58.341l0.024,0.024
				C498.433,516.327,519.067,507.091,541.814,507.091z"/>
		</g>
	</g>
</g>

</svg>
