<?xml version="1.0" encoding="iso-8859-1"?>
<!-- Generator: Adobe Illustrator 16.0.0, SVG Export Plug-In . SVG Version: 6.00 Build 0)  -->
<!DOCTYPE svg PUBLIC "-//W3C//DTD SVG 1.1//EN" "http://www.w3.org/Graphics/SVG/1.1/DTD/svg11.dtd">
<svg version="1.1" id="Capa_1" xmlns="http://www.w3.org/2000/svg" xmlns:xlink="http://www.w3.org/1999/xlink" x="0px" y="0px"
	 width="24px" height="24px" viewBox="0 0 446.977 446.977" style="enable-background:new 0 0 446.977 446.977;"
	 xml:space="preserve">
	 <g fill="#999" stroke="#999">
	 
<g id="spreadsheet" viewBox="0 0 446.977 446.977">
	<path d="M430.274,23.861H16.698C7.48,23.861,0,31.357,0,40.559v365.86c0,5.654,2.834,10.637,7.155,13.663v2.632h5.986
		c1.146,0.252,2.332,0.401,3.557,0.401h413.576c1.214,0,2.396-0.149,3.545-0.401h0.821v-0.251
		c7.082-1.938,12.336-8.362,12.336-16.044V40.564C446.977,31.357,439.478,23.861,430.274,23.861z M66,408.4H15.458
		c-0.676-0.416-1.146-1.132-1.146-1.98v-43.35H66V408.4z M66,348.755H14.312v-47.01H66V348.755z M66,287.436H14.312v-49.632H66
		V287.436z M66,223.491H14.312v-53.687H66V223.491z M66,155.49H14.312v-52.493H66V155.49z M186.497,408.4H80.318v-45.33h106.179
		V408.4z M186.497,348.755H80.318v-47.01h106.179V348.755z M186.497,287.436H80.318v-49.632h106.179V287.436z M186.497,223.491
		H80.318v-53.687h106.179V223.491z M186.497,155.49H80.318v-52.493h106.179V155.49z M186.497,88.68H80.318V38.17h106.179V88.68z
		 M308.195,408.4H200.812v-45.33h107.383V408.4z M308.195,348.755H200.812v-47.01h107.383V348.755z M308.195,287.436H200.812
		v-49.632h107.383V287.436z M308.195,223.491H200.812v-53.687h107.383V223.491z M308.195,155.49H200.812v-52.493h107.383V155.49z
		 M308.195,88.68H200.812V38.17h107.383V88.68z M432.66,406.419c0,0.845-0.48,1.56-1.149,1.98h-109v-45.33H432.66V406.419z
		 M432.66,348.755H322.511v-47.01H432.66V348.755z M432.66,287.436H322.511v-49.632H432.66V287.436z M432.66,223.491H322.511
		v-53.687H432.66V223.491z M432.66,155.49H322.511v-52.493H432.66V155.49z M432.66,88.68H322.511V38.17h107.764
		c1.312,0,2.386,1.073,2.386,2.389V88.68z M175.854,276.251H89.938V246.37h85.915V276.251z M297.261,277.378h-85.915v-29.883h85.915
		V277.378z M421.661,276.721h-85.914v-29.883h85.914V276.721z"/>
</g></g>
</svg>