<?xml version="1.0" encoding="iso-8859-1"?>
<!-- Generator: Adobe Illustrator 18.0.0, SVG Export Plug-In . SVG Version: 6.00 Build 0)  -->
<!DOCTYPE svg PUBLIC "-//W3C//DTD SVG 1.1//EN" "http://www.w3.org/Graphics/SVG/1.1/DTD/svg11.dtd">
<svg version="1.1" id="Capa_1" xmlns="http://www.w3.org/2000/svg" xmlns:xlink="http://www.w3.org/1999/xlink" x="0px" y="0px"
	 viewBox="0 0 340 340" width="32px" height="32px" style="enable-background:new 0 0 340 340;" xml:space="preserve">
<g fill="red" stroke="red" >
  <g id="stop-red" viewBox="0 0 340 340" stroke="none" fill="#E84C4B">
	<path d="M242.381,129.395c0-6.748-5.488-12.237-12.234-12.237c-5.667,0-11.982,3.947-11.982,9.612l0.007,40.416
		c0,1.904-1.568,4.118-3.591,4.118c-1.963,0-3.561-1.599-3.561-3.564V98.805c0-6.747-5.478-12.235-12.213-12.235
		c-5.851,0-12.115,4.115-12.115,10.242l0.002,69.533c0,1.995-1.62,3.621-3.61,3.624c-2.004-0.003-3.63-1.629-3.63-3.624
		l-0.013-92.55c0-3.269-1.273-6.339-3.582-8.646c-2.312-2.316-5.383-3.591-8.651-3.591c-6.639,0-12.123,5.412-12.227,12.063
		l-0.001,92.206c0,0.97-0.382,1.888-1.075,2.584c-0.683,0.689-1.6,1.067-2.581,1.067c-2.02,0-3.662-1.64-3.662-3.654l0.044-50.123
		c0.008-9.029,0.013-16.152,0.012-17.156v-0.135c-0.017-6.42-6.302-10.398-12.116-10.4c-6.745,0.002-12.232,5.491-12.232,12.236
		v101.097c0,1.629-1.424,3.388-3.724,3.388c-1.732,0-3.598-0.989-5.545-2.941l-11.93-11.924c-2.818-2.818-6.405-4.37-10.102-4.37
		c-3.415,0-6.539,1.316-9.036,3.807c-5.178,5.18-5.332,13.211-0.393,20.459l0.083,0.124c0.373,0.612,9.314,15.139,25.326,29.408
		c14.968,13.351,39.404,29.265,70.82,29.265c55.301,0,63.558-35.771,63.558-57.095L242.381,129.395z"/>
	<path d="M290.213,49.788C258.103,17.681,215.408,0,170,0S81.896,17.681,49.788,49.788S0,124.592,0,170
		s17.681,88.103,49.788,120.213C81.896,322.318,124.592,340,170,340s88.103-17.682,120.213-49.787
		C322.318,258.103,340,215.408,340,170S322.318,81.896,290.213,49.788z M170,319.68c-82.531,0-149.68-67.148-149.68-149.68
		C20.32,87.469,87.469,20.32,170,20.32c82.531,0,149.68,67.149,149.68,149.68C319.68,252.531,252.531,319.68,170,319.68z"/>
</g>
</g>
</svg>
