<?xml version="1.0" encoding="iso-8859-1"?>
<!-- Generator: Adobe Illustrator 16.0.0, SVG Export Plug-In . SVG Version: 6.00 Build 0)  -->
<!DOCTYPE svg PUBLIC "-//W3C//DTD SVG 1.1//EN" "http://www.w3.org/Graphics/SVG/1.1/DTD/svg11.dtd">
<svg version="1.1" id="Capa_1" xmlns="http://www.w3.org/2000/svg" xmlns:xlink="http://www.w3.org/1999/xlink" x="0px" y="0px"
	 width="793.945px" height="793.945px" viewBox="0 0 793.945 793.945" style="enable-background:new 0 0 793.945 793.945;"
	 xml:space="preserve">
  <g fill="#666" stroke="#666">
    <g id="student" viewBox="0 0 793.945 793.945" stroke="none">
	<path d="M793.945,761.744c0-51.26-8.874-88.787-26.365-111.523c-11.248-14.615-24.796-21.336-35.449-23.115l-141.333-49.869
		c-51.298-17.104-67.438-30.725-72.228-36.244c42.001-40.84,52.373-99.988,54.933-127.477
		c21.995-15.043,29.707-33.239,32.155-46.802c5.838-32.435-13.374-62.264-23.791-75.596c-2.523-22.968-6.546-44.05-11.717-63.534
		h5.79V100.295h32.772c2.601,12.512,4.947,28.435,6.631,48.575c-7.447,10.704-16.185,32.525-19.646,79.593l-1.988,27.192h99.438
		l-2.229-27.394c-2.907-35.892-15.504-60.523-24.348-73.886c-1.458-20.848-3.711-38.602-6.486-54.081h57.904V24.277h-86.388
		c-11.229-13.643-23.109-17.416-32.622-17.416H422.311v17.416H75.954v76.019h142.05v127.289h5.788
		c-5.169,19.483-9.191,40.566-11.715,63.534c-10.417,13.333-29.632,43.163-23.791,75.596c2.448,13.563,10.156,31.759,32.156,46.8
		c2.571,27.436,12.953,86.402,54.945,127.457c-4.774,5.504-20.971,19.174-72.662,36.406L61.961,627.055
		C43.947,629.779,0,648.09,0,761.744v25.34h793.945V761.744z M51.604,736.404c3.192-40.754,13.772-56.133,18.693-59.111
		l148.882-51.98c68.186-22.729,102.443-47.375,107.838-77.576c3.425-19.262-6.25-34.807-14.277-41.162
		c-41.6-38.119-42.463-107.383-42.463-108.014v-15.667l-14.007-6.999c-10.788-5.384-16.863-11.468-18.09-18.09
		c-2.409-13.011,10.358-32.01,16.843-39.095l5.889-6.314l0.818-8.585c2.695-28.644,7.598-54.19,14.595-76.226h241.292
		c7.003,22.035,11.899,47.582,14.6,76.226l0.815,8.585l5.891,6.314c6.271,6.728,19.229,25.882,16.849,39.021
		c-1.187,6.645-7.283,12.755-18.1,18.162l-14.006,6.999v15.666c0,0.695-1.149,70.17-41.162,106.914
		c-9.331,7.455-19.005,23-15.576,42.262c5.396,30.201,39.653,54.85,107.417,77.43l147.706,52.129h1.594
		c4.93,2.994,15.508,18.357,18.697,59.111L51.604,736.404L51.604,736.404z"/>
</g>
  </g>


</svg>
