<?xml version="1.0" encoding="iso-8859-1"?>
<!-- Generator: Adobe Illustrator 18.1.1, SVG Export Plug-In . SVG Version: 6.00 Build 0)  -->
<svg version="1.1" id="Capa_1" xmlns="http://www.w3.org/2000/svg" xmlns:xlink="http://www.w3.org/1999/xlink" x="0px" y="0px"
	 viewBox="0 0 16 16" style="enable-background:new 0 0 16 16;" xml:space="preserve">
<g fill="#999" stroke="#999">
	<g id="table"  viewBox="0 0 16 16" stroke="none">
		<path d="M15.982,1.448C15.939,0.933,15.523,0.5,15,0.5H1c-0.523,0-0.939,0.433-0.983,0.948H0V14.5
			c0,0.552,0.448,1,1,1h14c0.552,0,1-0.448,1-1V1.448H15.982z M5,14.5H1v-3h4V14.5z M5,10.583H1V7.5h4V10.583z M5,6.5H1v-3h4V6.5z
			 M10,14.5H6v-3h4V14.5z M10,10.583H6V7.5h4V10.583z M10,6.5H6v-3h4V6.5z M15,14.5h-4v-3h4V14.5z M15,10.583h-4V7.5h4V10.583z
			 M15,6.5h-4v-3h4V6.5z"/>
	</g>
</g>
</svg>
