<?xml version="1.0" encoding="iso-8859-1"?>
<!-- Generator: Adobe Illustrator 18.1.1, SVG Export Plug-In . SVG Version: 6.00 Build 0)  -->
<svg version="1.1" id="Capa_1" xmlns="http://www.w3.org/2000/svg" xmlns:xlink="http://www.w3.org/1999/xlink" x="0px" y="0px"
	 viewBox="0 0 388.708 388.708" style="enable-background:new 0 0 388.708 388.708;" xml:space="preserve">
  <g fill="#999" stroke="#999">
    <g id="template" viewBox="0 0 388.708 388.708" stroke="none">
	<path   d="M329.061,191.574V99.518c0-4.487-3.642-8.129-8.129-8.129H68.061c-4.487,0-8.129,3.642-8.129,8.129
		v92.064c0,4.487,3.642,8.129,8.129,8.129c4.487,0,8.129-3.642,8.129-8.129v-83.936h236.615v83.936c0,4.487,3.642,8.129,8.129,8.129
		C325.419,199.703,329.061,196.061,329.061,191.574z"/>
	<path   d="M68.061,228.348c-4.487,0-8.129,3.642-8.129,8.129v104.81c0,4.487,3.642,8.129,8.129,8.129h129.748
		c4.487,0,8.129-3.642,8.129-8.129v-104.81c0-4.487-3.642-8.129-8.129-8.129H68.061z M189.68,333.15H76.189v-88.545H189.68V333.15z"
		/>
	<path   d="M239.013,228.348c-4.487,0-8.129,3.642-8.129,8.129v104.81c0,4.487,3.642,8.129,8.129,8.129h78.595
		c4.487,0,8.129-3.642,8.129-8.129v-104.81c0-4.487-3.642-8.129-8.129-8.129H239.013z M309.479,333.15h-62.338v-88.545h62.338
		V333.15z"/>
	<path   d="M303.025,0H99.51c-4.487,0-8.129,3.642-8.129,8.129s3.642,8.129,8.129,8.129h203.515
		c4.487,0,8.129-3.642,8.129-8.129C311.154,3.642,307.512,0,303.025,0z"/>
	<path   d="M344.944,34.782c0-4.487-3.642-8.129-8.129-8.129h-33.79c-4.487,0-8.129,3.642-8.129,8.129
		s3.642,8.129,8.129,8.129h33.79C341.303,42.911,344.944,39.269,344.944,34.782z"/>
	<path   d="M45.032,0H16.485c-4.487,0-8.129,3.633-8.129,8.12L8.08,380.572c0,2.162,0.853,4.227,2.374,5.755
		c1.528,1.528,3.593,2.382,5.755,2.382H372.5c4.487,0,8.129-3.642,8.129-8.129V8.129c0-4.487-3.642-8.129-8.129-8.129h-35.684
		c-4.487,0-8.129,3.642-8.129,8.129s3.642,8.129,8.129,8.129h27.556v356.194H24.337l0.268-356.194h20.427
		c4.487,0,8.129-3.642,8.129-8.129C53.161,3.642,49.519,0,45.032,0z"/>
	<path   d="M36.904,34.034c0,4.487,3.642,8.129,8.129,8.129H99.51c4.487,0,8.129-3.642,8.129-8.129
		s-3.642-8.129-8.129-8.129H45.032C40.545,25.906,36.904,29.547,36.904,34.034z"/>
</g>
  </g>
</svg>
