<?xml version="1.0" encoding="UTF-8" standalone="no"?>
<svg width="14px" height="16px" viewBox="0 0 14 16" version="1.1" xmlns="http://www.w3.org/2000/svg" xmlns:xlink="http://www.w3.org/1999/xlink" xmlns:sketch="http://www.bohemiancoding.com/sketch/ns">
  <g stroke="#666" fill="white">
    <g id="users-changeownpassword" viewBox="0 0 14 16" stroke-width="1" fill="none">
      <path d="M7,8.5 C7,8.776 6.776,9 6.5,9 C6.224,9 6,8.776 6,8.5 C6,8.224 6.224,8 6.5,8 C6.776,8 7,8.224 7,8.5 L7,8.5 Z" id="Stroke-69"></path>
      <path d="M6.48358154,9.48071289 L6.48358154,11.5175781" id="Stroke-71" stroke-linecap="round"></path>
      <path d="M12.5124512,5.50524903 L0.567382832,5.50524903 L0.567382832,14.4874271 L12.5124512,14.4874271 L12.5124512,5.50524903 Z" id="Stroke-73"></path>
      <path d="M6.5,0 C8.43327273,0 10.5031738,1.64133341 10.5031738,3.66666675 L10.5031738,5.50317383 L2.50640869,5.50317383 L2.50640869,3.66666675 C2.50640869,1.64133341 4.56672727,0 6.5,0 Z" id="Stroke-75"></path>
    </g>
  </g>
</svg>