<?xml version="1.0" encoding="UTF-8" standalone="no"?>
<svg width="21px" height="21px" viewBox="0 0 21 21" version="1.1" xmlns="http://www.w3.org/2000/svg" xmlns:xlink="http://www.w3.org/1999/xlink" xmlns:sketch="http://www.bohemiancoding.com/sketch/ns">
  <g stroke="#666" fill="white">
    <g id="users-changeownculture" viewBox="0 0 21 21" stroke-width="1" fill="none">
      <path d="M19.6163274,14.5242967 L19.6163274,13.2966752 L18.2876317,13.2966752 C18.2021074,12.9418926 18.0621586,12.4041944 17.8771969,12.1009719 L18.8167366,11.1614322 L17.6590895,10.0041944 L16.7195499,10.943734 C16.4159182,10.7587724 15.8790384,10.6188235 15.5242558,10.5332992 L15.5242558,9.20460358 L14.2966343,9.20460358 L14.2966343,10.5332992 C13.9418517,10.6188235 13.4041535,10.7587724 13.1013402,10.943734 L12.1613913,10.0041944 L11.0041535,11.1614322 L11.9436931,12.1013811 C11.7587315,12.4041944 11.6187826,12.9418926 11.5328491,13.2966752 L10.2045627,13.2966752 L10.2045627,14.5242967 L11.5328491,14.5242967 C11.6187826,14.8790793 11.7587315,15.4167775 11.9436931,15.7195908 L11.0037442,16.6595396 L12.1613913,17.8167775 L13.1009309,16.8768286 C13.4041535,17.0621995 13.9418517,17.2021483 14.2966343,17.2880818 L14.2966343,18.6163683 L15.5242558,18.6163683 L15.5242558,17.2880818 C15.8790384,17.2021483 16.4163274,17.0621995 16.7195499,16.8772379 L17.6594987,17.8167775 L18.8167366,16.6595396 L17.8771969,15.7195908 C18.0621586,15.4167775 18.2021074,14.8790793 18.2880409,14.5242967 L19.6163274,14.5242967 Z" id="Stroke-3862" stroke-width="0.8" stroke-linecap="round" stroke-linejoin="round"></path>
      <path d="M16.7519182,13.9104859 C16.7519182,14.9273657 15.9273657,15.7519182 14.9104859,15.7519182 C13.8931969,15.7519182 13.0690537,14.9273657 13.0690537,13.9104859 C13.0690537,12.8936061 13.8931969,12.0690537 14.9104859,12.0690537 C15.9273657,12.0690537 16.7519182,12.8936061 16.7519182,13.9104859 L16.7519182,13.9104859 Z" id="Stroke-3863" stroke-width="0.8" stroke-linecap="round" stroke-linejoin="round"></path>
      <path d="M8.65231304,16.3478261 C4.23353043,16.3478261 0.652313043,12.7666087 0.652313043,8.34782609 C0.652313043,3.92973913 4.23353043,0.347826087 8.65231304,0.347826087 C13.0704,0.347826087 16.652313,3.92973913 16.652313,8.34782609" id="Stroke-4873"  stroke-linecap="round" stroke-linejoin="round"></path>
      <path d="M8.65231304,16.3478261 C4.23353043,16.3478261 0.652313043,12.7666087 0.652313043,8.34782609 C0.652313043,3.92973913 4.23353043,0.347826087 8.65231304,0.347826087 C13.0704,0.347826087 16.652313,3.92973913 16.652313,8.34782609" id="Stroke-4873-Copy" stroke-linecap="round" stroke-linejoin="round"></path>
      <path d="M7.95666087,13.9129739 C7.60883478,13.9129739 6.91318261,12.5216696 6.91318261,12.1738435 C6.91318261,11.8260174 7.2610087,11.4781913 7.2610087,11.1303652 C7.2610087,10.7825391 6.56535652,10.086887 6.56535652,10.086887 C6.56535652,8.69558261 5.52187826,9.0434087 4.4784,9.0434087 C3.43492174,9.0434087 3.43492174,7.65210435 3.43492174,7.65210435 C3.43492174,7.65210435 3.43492174,5.21732174 5.17405217,4.86949565 C6.91318261,4.52166957 6.91318261,5.21732174 6.91318261,5.21732174 C7.60883478,5.91297391 9.00013913,5.21732174 9.6957913,5.21732174 C9.6957913,5.21732174 10.0436174,2.78253913 9.34796522,3.13036522 C8.65231304,3.4781913 8.0290087,3.20897391 7.95666087,2.43471304 C7.8557913,1.34810435 10.9917913,0.695582609 10.9917913,0.695582609" id="Stroke-4874-Copy"  stroke-width="0.8" stroke-linecap="round" stroke-linejoin="round"></path>
      <path d="M13.8703613,6.81838165 L12.4284668,7 L12.2790527,6.23960069 L11.6784668,5.53659482 L12.9631348,4.59738307 L13.7561035,4.4838716 C13.7561035,4.4838716 14.2550094,4.02901822 14.6988711,3.43124107" id="Path-138"  stroke-width="0.8"></path>
    </g>
  </g>
</svg>