<?xml version="1.0" encoding="utf-8"?>
<!DOCTYPE svg PUBLIC "-//W3C//DTD SVG 1.1//EN" "http://www.w3.org/Graphics/SVG/1.1/DTD/svg11.dtd"[]>
<svg xmlns="http://www.w3.org/2000/svg">
  <g fill="#999" stroke="#999">
    <g id="web-development" viewBox="0 0 24 24" stroke="none">
      <g>
        <path   d="M13.138,0.369c-5.604,0-10.164,4.56-10.164,10.165c0,2.02,0.599,3.898,1.619,5.482l-4.126,4.061
		l0.009,0.011c-0.637,0.659-0.637,1.707,0.013,2.354c0.646,0.652,1.696,0.655,2.356,0.016l0.01,0.013l4.017-3.95
		c1.729,1.36,3.903,2.18,6.268,2.18c5.604,0,10.164-4.56,10.164-10.165C23.302,4.929,18.742,0.369,13.138,0.369z M2.162,21.824
		c-0.291,0.288-0.761,0.289-1.054-0.003c-0.288-0.291-0.29-0.761,0-1.05s0.76-0.291,1.051-0.001
		C2.449,21.061,2.449,21.532,2.162,21.824z M19.28,9.128c-0.109,0.764-1.418,1.636-1.091,2.399c0.327,0.763-0.218,1.635-0.218,1.635
		s-0.545,2.507-0.872,2.834s-2.289,1.2-1.854,1.745c0.438,0.544,1.744-0.108,3.053-0.437c0.323-0.081,0.646-0.181,0.955-0.296
		c-1.599,1.511-3.748,2.444-6.115,2.444c-2.017,0-3.874-0.682-5.37-1.815l3.506-3.448l4.609-0.013l1.259-4.71l-0.5-0.505
		l-2.501,2.507l-2.446-2.444l2.503-2.504l-0.5-0.503L8.987,7.281l-0.015,4.48l-0.027-0.027L5.504,15.12
		c-0.61-1.011-1.023-2.148-1.191-3.367c0.756-0.394,1.987-1.056,2.43-1.424c0.653-0.545-0.22-0.763-0.327-1.091
		c-0.109-0.327,0-1.09,0-1.853c0-0.764,1.524-0.765,2.069-1.527c0.39-0.543-0.324-1.74-0.769-2.39
		c1.504-1.157,3.381-1.854,5.421-1.854c0.54,0,1.067,0.056,1.581,0.149c0.152,0.939,0.466,2.231,1.072,2.568
		c0.98,0.544,2.181,1.744,2.617,1.962C18.846,6.512,19.388,8.366,19.28,9.128z M20.589,9.783c-0.54-0.387-0.982-2.072-0.654-2.617
		c0.196-0.329,0.708-0.616,1.086-0.793c0.659,1.243,1.036,2.658,1.036,4.161c0,0.451-0.045,0.892-0.109,1.325
		C21.756,11.092,21.384,10.354,20.589,9.783z"/>
      </g>
    </g>
  </g>
</svg>