<?xml version="1.0" encoding="iso-8859-1"?>
<!-- Generator: Adobe Illustrator 16.0.0, SVG Export Plug-In . SVG Version: 6.00 Build 0)  -->
<!DOCTYPE svg PUBLIC "-//W3C//DTD SVG 1.1//EN" "http://www.w3.org/Graphics/SVG/1.1/DTD/svg11.dtd">
<svg version="1.1" id="Capa_1" xmlns="http://www.w3.org/2000/svg" xmlns:xlink="http://www.w3.org/1999/xlink" x="0px" y="0px"
	 width="366.523px" height="366.523px" viewBox="0 0 366.523 366.523" style="enable-background:new 0 0 366.523 366.523;"
	 xml:space="preserve">
<g fill="#999" stroke="#999" >
	<g id="wrench" viewBox="0 0 366.523 366.523" stroke="none">
		<path d="M358.379,84.649c-1.666-3.766-5.078-6.469-9.125-7.228c-4.053-0.762-8.211,0.523-11.127,3.429l-46.148,45.966
			c-6.986,6.987-16.279,10.835-26.162,10.836c-9.881,0-19.172-3.848-26.16-10.837c-6.988-6.988-10.837-16.278-10.838-26.161
			c0-9.883,3.85-19.173,10.822-26.148l46.107-45.974c2.922-2.912,4.219-7.079,3.465-11.135c-0.754-4.056-3.461-7.479-7.232-9.146
			c-12.121-5.362-25.594-8.197-38.965-8.198c-24.838,0.001-47.881,9.362-64.879,26.361L162.939,41.61
			c-26.348,26.348-34.146,65.179-20.72,99.207L17.281,265.755C6.138,276.9,0.001,291.714,0,307.473
			c-0.001,15.759,6.136,30.574,17.279,41.719c11.145,11.144,25.961,17.279,41.719,17.279c15.759-0.001,30.574-6.137,41.719-17.279
			L225.668,224.24c10.719,4.191,22.238,6.379,33.797,6.379c24.705,0,47.93-9.619,65.396-27.088l15.195-15.194
			C366.678,161.714,374.039,120.046,358.379,84.649z M259.465,205.619c-10.801-0.002-21.477-2.541-31.002-7.481
			c-5.295-2.744-11.396-1.079-15.518,3.293L83.038,331.512c-6.422,6.423-14.96,9.958-24.041,9.958s-17.619-3.536-24.041-9.957
			c-6.42-6.422-9.957-14.959-9.957-24.04s3.537-17.619,9.959-24.041l130.06-129.925c4.485-4.262,6.041-10.226,3.294-15.521
			c-13.596-26.223-8.598-57.795,12.305-78.698l15.197-15.196c12.277-12.278,29.041-19.04,47.201-19.04
			c3.373,0,6.752,0.243,10.096,0.719l-31.135,31.045c-11.711,11.71-18.158,27.279-18.158,43.839
			c0.002,16.561,6.449,32.13,18.16,43.839c11.709,11.711,27.279,18.16,43.84,18.159c16.561-0.002,32.129-6.45,43.82-18.141
			l31.215-31.093c2.965,20.931-3.602,42.364-18.475,57.238l-15.195,15.196C294.438,198.598,277.49,205.619,259.465,205.619z"/>
		<path d="M61.894,285.078c-5.209,0-10.106,2.027-13.789,5.711c-3.682,3.684-5.711,8.58-5.711,13.789s2.028,10.104,5.711,13.789
			c3.683,3.683,8.58,5.711,13.789,5.711c5.209-0.002,10.105-2.028,13.789-5.713c3.684-3.683,5.711-8.58,5.711-13.787
			c0-5.209-2.028-10.106-5.711-13.789C71.999,287.104,67.103,285.078,61.894,285.078z"/>
	</g>
</g>

</svg>
